<svg width="120" height="121" viewBox="0 0 120 121" fill="none" xmlns="http://www.w3.org/2000/svg">
<g clip-path="url(#clip0_122_735)">
<path d="M56.9995 65.775C55.462 66.45 50.4745 68.7375 45.937 70.875C41.3995 72.975 36.9745 75.0375 36.0745 75.45C34.387 76.2 33.562 77.475 34.1995 78.2625C34.4245 78.525 34.7245 78.75 34.8745 78.75C35.0245 78.75 36.487 79.3875 38.0995 80.1375C39.7495 80.8875 41.137 81.525 41.2495 81.5625C41.362 81.6 42.7495 82.2375 44.362 82.9875C45.9745 83.775 47.437 84.375 47.587 84.375C47.7745 84.375 48.112 84.6 48.337 84.9C48.5995 85.2 49.1995 85.5375 49.7245 85.65C50.2495 85.8 52.612 86.8125 54.9745 87.9375C57.337 89.0625 59.437 90 59.662 90C59.8495 90 59.9995 84.975 59.9995 77.25C59.9995 70.2375 59.962 64.5 59.9245 64.5C59.8495 64.5 58.537 65.0625 56.9995 65.775Z" fill="black"/>
<path d="M60 77.25C60 84.975 60.15 90 60.3375 90C60.7125 90 63.7875 88.6125 70.95 85.1625C73.2 84.1125 75.075 83.25 75.15 83.25C75.3375 83.25 84.6 78.9375 85.5 78.4125C85.8 78.2625 86.0625 77.7375 86.0625 77.25C86.0625 76.275 86.2875 76.425 81 73.95C67.0125 67.3125 66.3 67.0125 65.6625 66.9C65.3625 66.825 65.025 66.675 64.9125 66.4875C64.6875 66.1875 60.7875 64.5 60.2625 64.5C60.1125 64.5 60 70.2375 60 77.25Z" fill="black"/>
<path d="M51.938 33.3376C48.188 35.1751 44.5505 36.8626 43.763 37.1626C43.013 37.4251 42.3755 37.8001 42.3755 37.9501C42.3755 38.1001 42.1505 38.2501 41.888 38.2501C41.588 38.2501 40.2005 38.8126 38.7755 39.5251C37.3505 40.2001 35.813 40.8751 35.363 41.0251C34.9505 41.1751 34.388 41.5126 34.163 41.7751C33.113 43.0126 33.938 43.5376 45.7505 49.0126C46.8755 49.5376 49.5755 50.8126 51.7505 51.8251C60.413 55.9126 60.263 55.9126 64.013 54.0376C66.4505 52.8001 72.0755 50.1376 72.3755 50.1001C72.488 50.0626 73.5005 49.6126 74.6255 49.0501C75.7505 48.5251 78.863 47.0626 81.488 45.7876C85.6505 43.8001 86.288 43.3876 86.1755 42.7126C86.1005 42.2626 85.8005 41.7376 85.5005 41.5876C84.638 41.1001 74.588 36.3751 74.438 36.3751C74.363 36.3751 71.3255 34.9501 67.688 33.1876C63.4505 31.1626 60.6005 30.0001 59.8505 30.0376C59.1755 30.0376 55.8005 31.4626 51.938 33.3376Z" fill="black"/>
<path d="M33.75 60.0376C33.75 73.2376 33.8625 76.5001 34.2375 76.2376C34.4625 76.0126 37.4625 74.5876 40.875 73.0126C44.2875 71.4376 49.7625 68.8876 53.0625 67.3501C56.3625 65.7751 59.3625 64.5001 59.7375 64.5001C60.3 64.5001 60.375 64.0501 60.375 60.0001C60.375 56.2126 60.3 55.5001 59.8125 55.5001C59.3625 55.5001 37.575 45.4876 34.425 43.8001C33.7875 43.5001 33.75 44.3626 33.75 60.0376Z" fill="black"/>
</g>
<defs>
<clipPath id="clip0_122_735">
<rect width="120" height="120" fill="white" transform="translate(0 0.189453)"/>
</clipPath>
</defs>
</svg>
