<svg width="57" height="62" viewBox="0 0 57 62" fill="none" xmlns="http://www.w3.org/2000/svg">
<path d="M13.7688 6.72425C0.975423 14.3606 -0.413008 16.8399 0.0828598 32.311C0.380381 41.6333 0.677901 43.8152 2.46303 46.0961C5.04154 49.5672 22.0994 60.1788 26.463 60.9722C30.0333 61.6664 37.3721 58.4928 47.6862 51.8482C55.9176 46.3937 56.6118 44.5094 56.2151 29.6333C55.8184 14.4598 55.62 14.0631 42.43 6.42673C29.5374 -1.11047 26.7605 -1.11047 13.7688 6.72425ZM35.1903 17.3358C42.5291 20.8069 45.8019 31.6168 41.6366 38.3606C38.2647 43.6168 34.0994 45.6994 27.3556 45.2036C22.2977 44.9061 21.2068 44.4102 18.0333 41.2366C14.8597 38.0631 14.3639 36.9722 14.0663 31.9143C13.7688 27.3523 14.0663 25.468 15.6531 22.8895C19.8184 16.2449 28.0498 13.9639 35.1903 17.3358Z" fill="white"/>
</svg>
