<svg width="57" height="61" viewBox="0 0 57 61" fill="none" xmlns="http://www.w3.org/2000/svg">
<path d="M13.7688 5.9137C0.975423 13.5501 -0.413008 16.0294 0.0828598 31.5005C0.380381 40.8228 0.677901 43.0046 2.46303 45.2856C5.04154 48.7567 22.0994 59.3682 26.463 60.1616C30.0333 60.8558 37.3721 57.6823 47.6862 51.0377C55.9176 45.5831 56.6118 43.6988 56.2151 28.8228C55.8184 13.6492 55.62 13.2525 42.43 5.61618C29.5374 -1.92101 26.7605 -1.92101 13.7688 5.9137ZM35.1903 16.5253C42.5291 19.9963 45.8019 30.8063 41.6366 37.5501C38.2647 42.8063 34.0994 44.8889 27.3556 44.393C22.2977 44.0955 21.2068 43.5996 18.0333 40.4261C14.8597 37.2525 14.3639 36.1616 14.0663 31.1038C13.7688 26.5418 14.0663 24.6575 15.6531 22.079C19.8184 15.4344 28.0498 13.1534 35.1903 16.5253Z" fill="black"/>
</svg>
