<svg width="618" height="618" viewBox="0 0 618 618" fill="none" xmlns="http://www.w3.org/2000/svg">
<path d="M309 0C138.355 0 0 138.355 0 309C0 479.645 138.355 618 309 618C479.645 618 618 479.645 618 309C618 138.355 479.645 0 309 0ZM309 47.5345C453.071 47.7147 569.796 164.568 569.796 308.665C569.796 452.891 452.891 569.796 308.665 569.796C164.44 569.796 47.5345 452.891 47.5345 308.665C47.5345 236.565 76.7607 171.289 124.012 124.038C171.315 76.7865 236.642 47.5603 308.794 47.5603H308.974L309 47.5345ZM309 118.862C195.906 138.793 95.069 243.08 95.069 356.534C150.406 258.839 187.357 251.809 197.58 251.809C207.802 251.809 213.184 257.114 213.184 268.882V414.472C213.184 432.574 178.01 429.613 166.371 427.836C209.373 491.825 309 499.164 309 499.164L356.534 451.629L404.069 475.396C479.105 441.046 522.905 367.504 522.905 356.56C504.854 378.911 480.521 395.571 452.582 403.837L451.578 404.095C445.269 404.095 427.811 400.85 427.811 392.198V219.854C427.811 204.893 462.367 159.238 475.345 142.604C389.546 165.083 364.671 204.249 364.671 204.249C364.671 204.249 358.157 190.138 332.741 190.138C345.642 202.318 354.32 218.823 356.483 237.312L356.509 237.672V383.263C342.99 392.868 327.051 400.078 309.824 403.889L308.949 404.043C292.469 404.043 284.434 397.348 284.434 384.731C284.434 372.113 285.181 213.905 285.181 213.905C285.181 213.905 261.414 222.635 261.414 173.787C261.414 149.35 308.949 118.81 308.949 118.81L309 118.862Z" fill="black"/>
</svg>
