<svg width="123" height="118" viewBox="0 0 123 118" fill="none" xmlns="http://www.w3.org/2000/svg">
<path d="M79.3793 0.28688C61.6297 2.11136 46.6169 12.7194 38.7195 29.0094C36.7907 33.0233 36.6343 33.1015 35.8524 30.6254C35.6178 29.8435 35.3833 29.1919 35.3311 29.1919C35.3051 29.1919 34.4189 29.5307 33.3763 29.9738C32.3338 30.3908 31.3433 30.7557 31.1869 30.7557C31.0045 30.7557 30.6657 30.9121 30.379 31.0946C29.9359 31.4334 29.988 31.6158 31.2651 34.952C33.4024 40.3994 35.0966 44.8564 35.5918 46.2117C35.8524 46.8894 36.1391 47.4888 36.2173 47.567C36.3216 47.6192 38.3806 46.1335 40.8046 44.283C43.2546 42.4324 46.3823 40.0606 47.7637 39.018C49.1711 38.0015 50.2919 37.0632 50.3179 36.959C50.3179 36.7505 47.2424 32.6323 46.9296 32.4499C46.8254 32.3978 46.0174 32.8669 45.1573 33.5185C44.2711 34.1701 43.437 34.6393 43.3067 34.5611C42.9679 34.3526 43.437 33.0233 44.9227 30.0781C48.4935 22.9626 54.827 16.1599 61.5776 12.2242C68.0936 8.41886 74.1926 6.54225 82.0118 5.94278L86.2342 5.63001L86.3906 4.48319C86.4688 3.83159 86.547 2.58052 86.547 1.66827V0.000175476L84.0187 0.0262413C82.6113 0.0523033 80.5262 0.156559 79.3793 0.28688Z" fill="white"/>
<path d="M91.6562 1.35573C91.3955 2.58074 90.9785 5.39565 90.9785 5.89087C90.9785 6.30789 91.3434 6.46428 93.2722 6.85524C94.5232 7.11588 96.5041 7.6111 97.703 8.00206C98.902 8.36695 99.9445 8.57547 100.049 8.47121C100.414 8.13238 102.134 3.51904 101.978 3.36266C101.404 2.81531 93.9238 0.78232 92.4902 0.78232C91.9429 0.78232 91.7344 0.938705 91.6562 1.35573Z" fill="white"/>
<path d="M105.992 5.13474C105.836 5.31719 103.49 10.139 103.49 10.3215C103.49 10.3736 103.594 10.4257 103.725 10.4257C103.855 10.4257 104.924 10.9731 106.097 11.6247C107.27 12.2763 108.26 12.7715 108.286 12.7194C108.495 12.4587 110.762 8.8619 111.023 8.41881C111.257 7.94966 111.127 7.79328 109.798 6.95923C107.66 5.65603 106.175 4.9523 105.992 5.13474Z" fill="white"/>
<path d="M113.21 12.6415C112.298 13.8665 111.568 14.9612 111.568 15.0915C111.568 15.4043 113.862 17.2548 114.123 17.1505C114.514 16.9942 117.824 13.3713 117.824 13.0846C117.824 12.85 115.165 10.4 114.931 10.426C114.878 10.4521 114.097 11.4425 113.21 12.6415Z" fill="white"/>
<path d="M80.7094 15.9514C80.2142 16.5769 78.9631 18.1668 77.8945 19.5222C76.0961 21.8679 75.9136 22.0243 74.2977 22.5717C73.3594 22.9105 72.3429 23.1711 72.004 23.1972C71.6913 23.1972 69.7104 22.8323 67.5992 22.4153C65.5141 21.9722 63.7157 21.6334 63.6114 21.6334C63.5072 21.6334 62.4646 22.4674 61.2917 23.4839L59.1545 25.3344L59.3369 29.7132L59.5194 34.092L58.555 35.8122C57.4603 37.7931 57.5646 37.6888 53.0555 40.0606L49.6932 41.859L49.2501 44.0484C48.4943 47.6713 48.4161 47.4367 51.5177 50.9293C53.0294 52.6235 54.3587 54.2916 54.5151 54.6565C54.6454 54.9953 54.8278 56.0639 54.906 57.0283C55.0363 58.7225 54.9842 58.9049 53.4986 62.6321L51.9347 66.4635L52.8991 68.2358C54.6454 71.3896 54.5933 71.3375 56.522 71.6502C57.4864 71.8066 59.389 72.0673 60.7444 72.2236C63.1162 72.5364 63.2986 72.6146 64.8625 73.8396C65.7487 74.5433 66.5827 75.2992 66.713 75.5598C66.8434 75.7944 67.495 77.6189 68.1726 79.6258C68.8242 81.6328 69.5279 83.4051 69.6843 83.5615C70.0232 83.9003 74.2716 85.4902 74.8189 85.4902C75.0014 85.4902 76.7737 84.4998 78.7285 83.2748L82.2993 81.0593H84.4626H86.6259L90.2228 83.2748C92.1776 84.4998 93.9499 85.4902 94.1585 85.4902C94.3409 85.4902 95.5659 85.0732 96.843 84.6041C98.4851 83.9785 99.2931 83.5354 99.5016 83.0923C99.684 82.7796 100.336 80.903 100.935 78.9482L102.004 75.4035L103.698 74.0221L105.366 72.6407L109.693 72.0151C112.091 71.6763 114.045 71.3635 114.045 71.3375C114.071 71.3114 114.619 70.3731 115.296 69.2523C115.948 68.1316 116.574 67.0108 116.652 66.7502C116.73 66.4635 116.156 64.639 115.192 62.2672C113.654 58.3836 113.602 58.2533 113.785 56.5852C113.889 55.6469 114.071 54.6565 114.176 54.3437C114.306 54.057 115.635 52.441 117.147 50.7469C118.659 49.0527 119.91 47.541 119.91 47.3586C119.91 47.1761 119.727 45.8468 119.467 44.3612L119.024 41.7027L116.261 40.2691C111.178 37.6627 111.361 37.7931 110.214 35.8122L109.145 34.0138L109.328 29.5829L109.484 25.152L107.321 23.3015L105.131 21.4248L101.248 22.311C99.1106 22.7802 97.1037 23.1972 96.817 23.1972C96.0872 23.1972 93.0898 22.2328 92.5946 21.8419C92.2558 21.5552 91.0829 20.0695 88.4244 16.4987L87.1994 14.8567H84.4105H81.6217L80.7094 15.9514ZM87.7206 35.317C90.6919 35.9425 93.168 37.3239 95.4095 39.5915C98.7197 42.9277 100.179 46.2639 100.205 50.6948C100.231 54.865 98.85 58.514 96.1133 61.4331C92.5164 65.2645 88.6589 66.8805 83.6286 66.672C79.4583 66.4896 76.5392 65.2385 73.5679 62.4496C70.0492 59.1134 68.4593 55.4905 68.4593 50.8251C68.4854 46.4724 69.7365 43.2665 72.7078 40.0867C76.6434 35.8643 82.1169 34.1441 87.7206 35.317Z" fill="white"/>
<path d="M81.9858 40.5036C77.3203 41.6504 74.2969 45.5339 74.2969 50.2776C74.3229 56.5851 79.8746 61.3548 85.9214 60.2341C90.5348 59.4 93.5843 56.4026 94.4183 51.8936C95.1742 47.9058 92.9327 43.4749 89.2316 41.5201C86.7294 40.1908 84.4879 39.878 81.9858 40.5036Z" fill="white"/>
<path d="M118.217 17.2285C117.148 18.245 116.262 19.1833 116.262 19.3136C116.262 19.444 116.601 19.9131 117.018 20.3823L117.773 21.2163L119.572 19.7567C122.465 17.3849 122.439 17.437 121.475 16.3163C121.005 15.795 120.536 15.378 120.406 15.378C120.276 15.378 119.285 16.212 118.217 17.2285Z" fill="white"/>
<path d="M27.6175 60.2344C26.0276 62.2153 25.4803 62.7105 24.4638 63.0754C23.2388 63.5445 23.1606 63.5185 20.3196 62.919L17.4525 62.2935L15.993 63.5445L14.5594 64.7695L14.7158 67.5845C14.8983 70.2691 14.8722 70.4254 14.2206 71.6504C13.5169 72.9536 13.2041 73.1622 9.52908 75.0648C8.278 75.7425 8.25194 75.7686 7.93917 77.4367C7.75672 78.3489 7.60034 79.183 7.60034 79.2872C7.57427 79.3915 8.25194 80.2255 9.08599 81.1117C11.4839 83.7442 11.5621 83.8484 11.7706 85.2559C11.953 86.4548 11.8748 86.8197 10.9105 89.2958L9.81578 92.0325L10.5977 93.466C11.0147 94.248 11.4839 95.0038 11.6403 95.1341C11.7966 95.2645 13.1259 95.5512 14.5855 95.7857C17.5829 96.2288 17.5829 96.2288 18.8861 97.4017C19.6419 98.1054 19.9547 98.757 20.6324 100.972L21.4925 103.683L23.0563 104.23C23.9425 104.543 24.8026 104.778 24.959 104.778C25.1414 104.778 26.3404 104.126 27.5914 103.344C29.7026 102.041 30.0415 101.911 31.4229 101.911C32.7782 101.911 33.117 102.041 35.1761 103.344C36.4272 104.126 37.6 104.778 37.8086 104.778C38.0171 104.778 38.9032 104.517 39.7634 104.204L41.3533 103.657L42.2134 100.92C43.4644 96.8804 44.1942 96.307 49.0161 95.6554C50.8666 95.4208 51.2837 95.2645 51.5182 94.7953C51.6746 94.4825 52.0916 93.7527 52.4044 93.1533L53.0299 92.0846L51.9092 89.3219C50.9448 86.95 50.8145 86.4027 50.9709 85.4383C51.2315 83.9005 51.44 83.5617 53.447 81.3723L55.1933 79.4957L54.9847 78.1143C54.6459 75.9249 54.5417 75.6643 53.7858 75.2994C49.8762 73.3185 49.3549 72.9536 48.6251 71.6244C47.9214 70.3472 47.9214 70.243 48.0778 67.5063L48.2602 64.6914L46.8006 63.4924C45.732 62.6323 45.1586 62.3456 44.7676 62.4238C40.6756 63.4142 39.7373 63.4924 38.5123 63.1014C36.9745 62.5802 36.6357 62.2674 34.8112 59.8434L33.3255 57.8626H31.4229H29.5463L27.6175 60.2344ZM34.2899 69.9823C39.8676 71.4419 43.7512 76.9154 43.1777 82.4931C42.865 85.5426 41.666 87.8883 39.2942 90.0777C36.3229 92.8144 32.3872 93.9091 28.7643 92.9448C23.3169 91.4852 19.5898 86.8197 19.5637 81.3984C19.5637 78.375 20.893 75.3255 23.2127 73.0318C26.2101 70.0866 30.3021 68.9659 34.2899 69.9823Z" fill="white"/>
<path d="M29.3383 75.4035C27.6963 76.0551 26.8883 76.6546 26.1324 77.8275C23.9952 81.0334 25.0899 85.3079 28.5564 87.1323C29.3383 87.5494 30.0681 87.6797 31.4234 87.6797C34.2123 87.6797 36.1149 86.4547 37.2618 83.9265C38.3564 81.5286 37.8352 79.0004 35.8543 77.0195C34.0298 75.195 31.5016 74.5695 29.3383 75.4035Z" fill="white"/>
<path d="M59.6245 93.9872C59.2075 94.9255 58.9208 95.7335 58.9729 95.7596C59.3639 96.0723 63.7166 98.2617 63.9251 98.2617C64.29 98.2617 66.0363 94.3261 65.7756 94.0915C65.541 93.883 60.9538 92.267 60.5889 92.267C60.4586 92.267 60.0155 93.0489 59.6245 93.9872Z" fill="white"/>
<path d="M56.3388 99.5647C55.8436 100.268 55.2441 101.05 54.9835 101.285C54.6968 101.519 54.4883 101.858 54.4883 102.041C54.4883 102.197 55.4266 103.188 56.5995 104.23L58.6846 106.133L59.649 105.012C60.1702 104.413 60.9782 103.37 61.4474 102.718L62.2814 101.546L60.0139 100.086C58.7628 99.278 57.616 98.5482 57.4856 98.47C57.3293 98.3657 56.808 98.8609 56.3388 99.5647Z" fill="white"/>
<path d="M0.09365 100.764C0.302162 101.415 1.55324 106.55 2.62186 111.163C3.11708 113.17 3.58623 114.916 3.69049 115.047C3.87293 115.255 7.20913 114.63 7.5219 114.317C7.60009 114.239 7.5219 113.561 7.36551 112.831C7.00062 111.241 6.97455 110.512 7.28732 110.512C7.44371 110.512 8.32988 111.111 9.29425 111.841C12.7608 114.447 18.1821 116.611 23.7337 117.601C26.7832 118.122 35.8274 118.044 38.5902 117.445C42.7865 116.532 46.4616 115.151 49.9281 113.144C51.6744 112.154 55.2712 109.521 55.2712 109.261C55.2712 109.156 54.4372 108.114 53.4467 106.941L51.5962 104.804L49.9802 105.977C46.3573 108.635 42.4477 110.46 37.8604 111.606C34.5764 112.44 27.1742 112.414 23.2646 111.58C18.8598 110.642 15.6799 109.313 12.7347 107.123C10.3889 105.403 10.415 105.038 12.8911 105.038H14.7938L14.9762 104.048C15.0544 103.526 15.1326 102.614 15.1326 102.015V100.946L11.3012 100.764C-1.18349 100.216 -0.0627342 100.216 0.09365 100.764Z" fill="white"/>
</svg>
