<svg width="120" height="120" viewBox="0 0 120 120" fill="none" xmlns="http://www.w3.org/2000/svg">
<g clip-path="url(#clip0_122_862)">
<g clip-path="url(#clip1_122_862)">
<g clip-path="url(#clip2_122_862)">
<g clip-path="url(#clip3_122_862)">
<path d="M-8.54559 11.2769C-8.86559 11.7036 -9.07892 12.6103 -8.97225 13.3036C-8.81225 14.5303 -8.70559 14.5303 -1.34559 14.6903L6.17441 14.8503L10.0144 29.0902C21.3211 70.6903 29.1077 98.8502 29.4811 99.4369C29.7477 99.8636 31.1344 100.13 33.1077 100.13H36.3077L35.4011 101.89C34.8677 102.904 34.4944 104.824 34.4944 106.637C34.4944 117.144 47.9877 121.197 54.0144 112.557C55.9877 109.784 56.4677 106.05 55.2411 103.117C54.7611 101.997 54.3877 100.877 54.3877 100.61C54.3877 100.344 60.2544 100.13 67.4544 100.13C74.6544 100.13 80.5211 100.237 80.5211 100.29C80.5211 100.397 80.1477 101.25 79.6677 102.21C79.0277 103.437 78.8677 104.93 79.0277 107.33C79.1877 110.157 79.5077 111.117 80.8411 112.717C83.7744 116.397 84.9477 116.93 89.5877 116.93C93.4277 116.93 93.9077 116.824 95.8277 115.277C99.7744 112.13 101.268 106.797 99.4544 102.424C99.0277 101.41 98.6544 100.45 98.6544 100.344C98.6544 100.237 99.9344 100.13 101.481 100.13C103.028 100.13 104.574 99.8636 104.948 99.4902C105.908 98.5302 105.694 97.0369 104.574 96.3969C103.881 96.0769 91.4544 95.8636 68.0411 95.8636C48.5211 95.8636 32.5211 95.7036 32.5211 95.4369C32.5211 95.2236 31.9344 92.9836 31.2411 90.3702L30.0144 85.7302H59.4011C81.5344 85.7302 89.0011 85.5702 89.4811 85.0902C90.6011 83.9702 105.694 45.3036 105.481 44.0236C105.321 42.8503 105.108 42.7969 99.1344 42.6369L92.9477 42.4769L92.0411 38.2636C89.4277 26.0503 80.5211 16.5036 68.5211 12.8769C64.1477 11.5969 55.7744 11.5969 51.5077 12.8769C45.3211 14.7436 41.5344 16.9303 37.0544 21.4636C32.0411 26.4236 29.3744 31.2769 28.0411 37.8369C27.5611 40.0769 27.1877 42.1036 27.1877 42.2636C27.1877 42.4236 25.1611 42.5303 22.7077 42.5303C18.8677 42.5303 18.1744 42.3703 17.9077 41.5703C17.7477 41.0902 15.8277 34.1036 13.6411 26.0503C11.4011 17.9969 9.32108 11.2236 8.94775 10.9569C8.57441 10.7436 4.62775 10.5303 0.20108 10.5303C-6.19892 10.5303 -8.01225 10.6903 -8.54559 11.2769ZM57.5877 23.5969V30.2636H53.0011C47.7211 30.2636 47.8811 30.6369 50.7077 24.4502C52.1477 21.3036 55.8277 16.9303 57.0544 16.9303C57.3744 16.9303 57.5877 19.7036 57.5877 23.5969ZM65.2144 18.5303C67.0811 20.1302 70.4944 26.1036 71.1344 28.7702L71.4544 30.2636H66.9211H62.3877V23.5969C62.3877 19.6503 62.6011 16.9303 62.9211 16.9303C63.1877 16.9303 64.2544 17.6236 65.2144 18.5303ZM46.9744 21.5703C45.6411 24.2369 44.6277 26.9569 43.9344 29.5703C43.7211 30.3703 35.7211 30.5836 35.7211 29.7836C35.7211 27.7036 45.8011 18.5303 48.0944 18.5303C48.3077 18.5303 47.8277 19.9169 46.9744 21.5703ZM79.0277 23.8102C80.8944 25.5169 82.8144 27.7036 83.3477 28.6103L84.3077 30.2636H80.0411H75.8277L75.4544 28.5036C75.2411 27.5969 74.2811 25.0369 73.2677 22.8503C72.2544 20.6636 71.4544 18.7969 71.4544 18.6903C71.4544 17.9969 76.2544 21.1969 79.0277 23.8102ZM42.6544 36.0769C42.6544 36.8769 42.4944 38.6903 42.3344 40.0769L41.9611 42.5303H36.8944H31.8277L32.1477 39.9703C32.3077 38.5836 32.6811 36.8236 33.0011 35.9703C33.5344 34.5303 33.6411 34.5303 38.1211 34.5303H42.6544V36.0769ZM57.5877 38.5303V42.5836L52.1477 42.4236L46.6544 42.2636L46.8144 39.3303C47.1344 34.3169 46.8677 34.5303 52.5744 34.5303H57.5877V38.5303ZM72.7344 36.1836C72.8944 37.0902 73.0544 38.9036 73.0544 40.2369V42.5836L67.6144 42.4236L62.1211 42.2636L61.9611 38.3703L61.8011 34.5303H67.0811H72.4144L72.7344 36.1836ZM87.1877 37.3036C88.7344 42.5303 88.7344 42.5303 82.9211 42.5303C79.2944 42.5303 77.7477 42.3169 77.5877 41.8369C77.4811 41.5169 77.3211 39.7036 77.2144 37.8369L77.0011 34.5303H81.6411H86.3344L87.1877 37.3036ZM27.4544 48.7702C29.3744 60.3436 36.2011 69.5169 46.4944 74.2103C51.2944 76.4502 54.8144 77.1969 60.1477 77.1969C69.1611 77.1969 76.2011 74.1569 82.9211 67.3836C85.9077 64.3436 87.7211 61.9969 88.8944 59.5436C90.6544 55.8636 92.2544 50.5303 92.2544 48.1836C92.2544 46.7969 92.3077 46.7969 96.2011 46.7969H100.094L93.2144 64.1302L86.2811 81.4636L57.4277 81.3569L28.5744 81.1969L24.2544 65.1969C21.8544 56.3969 19.7211 48.6636 19.5077 47.9703C19.1344 46.8503 19.1877 46.7969 23.1344 46.7969H27.1344L27.4544 48.7702ZM42.1211 47.7036C42.1211 48.2369 42.2811 49.9436 42.4944 51.4902L42.8144 54.3169L38.1211 54.1569L33.4277 53.9969L32.7344 51.5969C31.2944 46.7969 31.2944 46.7969 37.0544 46.7969C41.5344 46.7969 42.1211 46.9036 42.1211 47.7036ZM57.5877 50.5303V54.2636H52.5211C46.8677 54.2636 47.3477 54.6903 46.6544 49.3036L46.3344 46.7969H51.9344H57.5877V50.5303ZM73.2677 49.8369C72.7877 54.5303 73.1611 54.2636 67.4544 54.2636H62.3877V50.5303V46.7969H67.9877H73.5877L73.2677 49.8369ZM87.9877 47.7569C87.9877 48.2903 87.6144 49.9969 87.1877 51.4902L86.3344 54.2636H81.5344C77.3211 54.2636 76.7344 54.1569 77.0011 53.4103C77.1611 52.9303 77.3211 51.2769 77.3211 49.6769V46.7969H82.6544C87.4544 46.7969 87.9877 46.9036 87.9877 47.7569ZM45.0544 62.4236C45.7477 64.3969 46.8144 66.8503 47.4011 67.9169C48.0411 68.9302 48.5211 69.8903 48.5211 70.0503C48.5211 70.5303 45.0544 68.5569 42.4944 66.5836C40.1477 64.8236 35.7211 59.7569 35.7211 58.8503C35.7211 58.6369 37.5344 58.5303 39.7211 58.6369L43.7744 58.7969L45.0544 62.4236ZM57.5877 65.1969C57.5877 69.1436 57.3744 71.8636 57.0544 71.8636C55.7744 71.8636 52.6277 68.1836 50.9744 64.7702C47.8277 58.2103 47.7211 58.5303 53.0011 58.5303H57.5877V65.1969ZM71.2411 59.9169C70.0677 64.4502 64.9477 71.8636 62.9211 71.8636C62.6011 71.8636 62.3877 69.2502 62.3877 65.1969V58.5303H66.9744H71.5611L71.2411 59.9169ZM83.3477 60.1302C81.9611 62.4769 76.8944 67.2769 74.0144 68.9302C72.5744 69.7303 71.4544 70.2103 71.4544 70.0503C71.4544 69.8903 72.1477 68.3969 73.0011 66.6903C73.9077 64.9836 74.8677 62.4769 75.2411 61.0369L75.9344 58.5303H80.1477H84.3077L83.3477 60.1302ZM48.4144 101.517C51.3477 103.544 52.0411 108.077 49.8544 110.744C46.1744 115.064 39.6677 113.41 38.6011 107.864C38.1744 105.624 39.6144 102.477 41.5344 101.464C43.4011 100.45 46.9211 100.45 48.4144 101.517ZM92.2544 101.464C94.4411 102.584 95.6677 105.09 95.2944 107.757C94.7611 111.81 90.5477 114.317 86.7611 112.77C84.5744 111.81 82.6544 109.144 82.6544 106.904C82.6544 102.157 87.8811 99.1702 92.2544 101.464Z" fill="white"/>
</g>
</g>
</g>
</g>
<defs>
<clipPath id="clip0_122_862">
<rect width="120" height="120" fill="white"/>
</clipPath>
<clipPath id="clip1_122_862">
<rect width="120" height="120" fill="white"/>
</clipPath>
<clipPath id="clip2_122_862">
<rect width="120" height="120" fill="white" transform="translate(0 0.280273)"/>
</clipPath>
<clipPath id="clip3_122_862">
<rect width="120" height="120" fill="white" transform="translate(0 0.280273)"/>
</clipPath>
</defs>
</svg>
