<svg width="120" height="121" viewBox="0 0 120 121" fill="none" xmlns="http://www.w3.org/2000/svg">
<g clip-path="url(#clip0_122_880)">
<path d="M70.8378 33.1809C54.5861 33.3981 53.7174 33.4343 51.5819 34.1944C46.6955 35.8956 41.9178 39.0807 38.8412 42.7003C37.0676 44.7996 34.8235 48.202 34.8235 48.7811C34.8235 48.9621 34.6063 49.505 34.3167 49.9393C33.3757 51.4234 32.2174 56.5269 32.0364 59.9654C31.6021 67.7112 35.0768 75.9638 41.0491 81.5017C44.0533 84.2887 47.528 86.3156 51.6543 87.7273C54.2966 88.6321 55.0205 88.7407 59.9792 88.7407C64.9018 88.7407 65.6981 88.6321 68.3041 87.7634C77.5701 84.6868 83.7234 78.606 86.9085 69.4124C87.8134 66.6616 87.8496 66.5892 87.9582 53.4503C87.9944 46.175 88.0306 38.6102 87.9582 36.6195L87.8496 32.9999L70.8378 33.1809ZM80.7915 50.1927V59.9654H70.8378H60.8841V50.1927V40.42H70.8378H80.7915V50.1927ZM59.0743 71.7289V81.6464L57.1922 81.4293C55.1652 81.2121 51.6181 79.9815 49.2654 78.6422C47.2747 77.484 43.9809 74.2626 42.5693 72.0547C41.0491 69.6658 39.5289 65.3585 39.5289 63.3316V61.7752H49.3016H59.0743V71.7289ZM80.5382 63.8383C79.7419 72.2357 71.4531 80.5244 62.9834 81.4655L60.8841 81.6826V71.7289V61.7752H70.8016H80.7553L80.5382 63.8383Z" fill="white"/>
</g>
<defs>
<clipPath id="clip0_122_880">
<rect width="120" height="120" fill="white" transform="translate(0 0.719727)"/>
</clipPath>
</defs>
</svg>
