<svg width="61" height="76" viewBox="0 0 61 76" fill="none" xmlns="http://www.w3.org/2000/svg">
<path d="M19.6545 0.598985C19.3105 0.943025 18.9664 1.74578 18.9664 2.31919C18.9664 3.0646 18.5077 3.35131 17.1889 3.35131C13.9205 3.35131 13.2324 4.15407 13.2324 7.93851V11.3789H22.4068H31.5812V7.93851C31.5812 4.26875 30.8931 3.35131 27.9115 3.35131C26.9367 3.35131 26.2486 2.89258 25.7325 1.74578C25.1018 0.484304 24.5284 0.140265 22.6935 0.0255852C21.3747 -0.0890951 20.0559 0.197605 19.6545 0.598985ZM24.127 1.9178C25.6179 3.75269 23.3816 6.56235 21.432 5.30087C19.4251 4.03939 20.1132 1.0577 22.4068 1.0577C22.9802 1.0577 23.7256 1.45909 24.127 1.9178Z" fill="white"/>
<path d="M0.731085 6.33275C-0.243695 7.30753 -0.243695 58.4548 0.731085 59.4296C1.18981 59.8883 4.57287 60.1177 12.0844 60.1177H22.807L22.5203 58.3975L22.2909 56.6773H12.8872H3.48341V32.8812V9.08507H7.21051H10.9376V7.36487V5.64467H6.17839C3.25405 5.64467 1.13247 5.93137 0.731085 6.33275Z" fill="white"/>
<path d="M33.873 7.36517V9.08537H37.6001H41.3272V23.4204V37.7554H43.0474H44.7676V22.0442C44.7676 8.28261 44.653 6.27571 43.8502 5.98901C43.3341 5.81699 40.9259 5.64497 38.4029 5.64497H33.873V7.36517Z" fill="white"/>
<path d="M14.549 21.8144C11.6247 24.7388 11.51 24.7388 10.4205 23.764C7.84025 21.4131 6.29207 24.9681 8.81503 27.3191C9.56045 28.0072 10.6499 28.5806 11.2806 28.5806C12.8862 28.5806 20.3977 20.897 19.939 19.7502C19.3083 18.0873 17.588 18.7754 14.549 21.8144Z" fill="white"/>
<path d="M23.7822 19.6931C22.9221 21.9294 23.8396 22.2734 30.319 22.2734C35.1929 22.2734 36.7411 22.1014 37.3145 21.4133C37.8879 20.7253 37.8879 20.3812 37.3145 19.6931C36.7411 19.0051 35.1929 18.833 30.319 18.833C25.3304 18.833 24.0116 19.0051 23.7822 19.6931Z" fill="white"/>
<path d="M23.9541 25.5415C23.7248 25.7136 23.5527 26.5163 23.5527 27.2617C23.5527 28.4659 23.7821 28.5806 26.7064 28.5806C30.0895 28.5806 31.2363 27.6631 29.8601 26.0003C29.1147 25.1402 24.6995 24.7961 23.9541 25.5415Z" fill="white"/>
<path d="M14.5509 40.1636C11.6839 42.9732 11.5118 43.0879 10.4797 42.1705C8.93155 40.737 7.49805 40.909 7.49805 42.5145C7.49805 44.0053 10.193 46.9297 11.5692 46.9297C12.9453 46.9297 20.3422 39.1314 19.9408 38.0993C19.3101 36.4365 17.5899 37.1245 14.5509 40.1636Z" fill="white"/>
<path d="M23.7821 38.0421C23.5528 38.5008 23.6101 39.3036 23.7821 39.8196C24.5276 41.7692 38.1171 39.877 37.4291 37.8701C37.085 36.7806 24.1835 36.8953 23.7821 38.0421Z" fill="white"/>
<path d="M38.746 41.1383C31.1197 43.1452 25.7871 49.9686 25.7871 57.7669C25.7871 59.9458 26.0738 62.7554 26.4752 64.0169C27.622 67.8587 30.8904 71.6431 34.9615 73.7074C38.1152 75.3702 39.09 75.5996 43.1611 75.5996C46.9456 75.5996 48.2644 75.3129 50.8447 74.0514C54.5145 72.2739 57.6108 69.1202 59.2737 65.3357C61.0512 61.494 60.9939 54.4985 59.159 50.9434C56.0626 44.9227 50.6727 41.2529 44.3079 40.9089C42.1864 40.7942 39.7207 40.8516 38.746 41.1383ZM41.8997 45.5534C41.8997 47.7324 44.1359 47.4457 44.5946 45.2094C44.9387 43.2598 45.4547 43.2598 49.7552 45.3814C52.6796 46.7576 54.5718 48.7071 56.12 51.8035C58.1842 55.932 58.2416 56.5627 56.4067 56.7921C55.2599 56.9068 54.7438 57.3081 54.6291 58.2256C54.4571 59.2577 54.6865 59.5444 55.8333 59.5444C57.7255 59.5444 57.8975 59.8884 57.2094 62.2967C55.7759 67.228 51.3608 71.4711 46.6589 72.4459C45.0534 72.7326 44.824 72.6179 44.652 71.4711C44.5373 70.611 44.0212 70.095 43.2185 69.9803C42.129 69.8083 41.8997 70.0376 41.8997 71.2418C41.8997 72.0445 41.5556 72.7326 41.2116 72.7326C36.223 72.7326 29.9729 67.0559 28.9981 61.666C28.5968 59.6591 28.6541 59.5444 30.1449 59.5444C31.4064 59.5444 31.6358 59.315 31.4638 58.2256C31.3491 57.4228 30.833 56.9068 29.9156 56.7921C28.7688 56.6201 28.6541 56.3334 28.9408 54.7852C29.8582 50.2553 34.4455 45.4388 39.09 44.1773C41.4983 43.5465 41.8997 43.7186 41.8997 45.5534Z" fill="white"/>
<path d="M33.7022 49.3952C33.5302 49.8539 33.5875 50.542 33.8743 50.9433C34.505 51.9755 36.2825 51.1727 36.0532 49.9686C35.8238 48.7071 34.1036 48.3057 33.7022 49.3952Z" fill="white"/>
<path d="M50.1584 49.5098C49.929 50.0259 50.0437 50.714 50.3877 51.058C51.2478 51.9181 52.9107 51.1153 52.6813 49.9685C52.452 48.6497 50.6171 48.3057 50.1584 49.5098Z" fill="white"/>
<path d="M36.3383 52.4343C36.1663 53.0077 36.7971 54.0972 38.1159 55.4733C39.2627 56.6201 40.1801 57.9963 40.1801 58.5697C40.1801 59.0857 40.8109 59.9458 41.6136 60.4619C42.8178 61.2647 43.3912 61.322 44.538 60.7486C45.3407 60.4046 46.9462 60.1179 48.1504 60.1179C50.5587 60.1179 51.8775 59.0857 51.3041 57.5949C50.9027 56.6201 50.1573 56.3908 45.6274 55.8747C43.3912 55.588 42.359 55.0719 40.7535 53.5238C38.5746 51.4022 36.9117 50.9435 36.3383 52.4343Z" fill="white"/>
<path d="M33.5298 65.9091C33.0711 66.7118 34.734 68.3747 35.5367 67.916C36.6262 67.2279 36.2822 65.2783 35.078 65.2783C34.4473 65.2783 33.7592 65.565 33.5298 65.9091Z" fill="white"/>
<path d="M49.9297 66.3679C49.9297 67.6294 51.1338 68.2601 52.2233 67.5721C53.2554 66.9413 52.4526 65.2785 51.0765 65.2785C50.3311 65.2785 49.9297 65.6798 49.9297 66.3679Z" fill="white"/>
<path d="M23.9541 43.8907C23.7248 44.0627 23.5527 44.8655 23.5527 45.6109C23.5527 47.6178 25.9037 47.3884 27.4519 45.2095L28.7707 43.4893H26.5344C25.3303 43.4893 24.1261 43.6613 23.9541 43.8907Z" fill="white"/>
</svg>
