<svg width="120" height="121" viewBox="0 0 120 121" fill="none" xmlns="http://www.w3.org/2000/svg">
<g clip-path="url(#clip0_122_935)">
<path d="M22 36.3231V47.6462L29.3973 47.776C36.6649 47.8733 36.7947 47.8733 38.4169 48.7493C39.3253 49.236 40.4609 50.0796 40.9151 50.5987L41.7262 51.572L39.52 58.4178C38.2871 62.2138 37.184 65.3933 37.0867 65.4907C36.9569 65.6204 35.14 65.7827 32.9987 65.8476L29.1378 65.9449V70.6169V75.2889H25.5689H22V86.6444V98H58.5H95V86.6444V75.2889H91.1391H87.3107L86.4022 72.8556L85.5262 70.4222H80.692C77.0258 70.4222 75.8578 70.3249 75.8902 70.0004C75.8902 69.8058 76.312 68.5729 76.7987 67.34L77.7396 65.0689L80.692 64.9716C82.3142 64.9391 83.6444 64.7769 83.6444 64.6147C83.6444 64.4849 83.0604 62.7653 82.3467 60.8511C81.6329 58.9369 81.0489 57.1849 81.0489 56.9902C81.0489 56.6658 83.1578 51.1178 84.3258 48.36C84.6502 47.6462 85.2018 48.9764 89.3547 60.04C91.9502 66.9182 94.2538 73.0502 94.5133 73.6667C94.9027 74.6724 94.9676 71.7524 94.9676 49.8849L95 25H58.5H22V36.3231ZM62.7178 56.3413C64.4049 61.9867 65.4107 64.8418 65.5729 64.5498C65.7351 64.2902 67.4222 60.4293 69.3364 55.9844L72.808 47.8733L76.6364 47.776C79.6538 47.7111 80.4324 47.776 80.3027 48.1004C80.2053 48.3276 78.064 53.616 75.5658 59.8778C73.0351 66.1071 70.6018 72.1418 70.1151 73.2773L69.2716 75.3213L65.5404 75.224L61.7769 75.1267L59.6031 68.1511C58.4027 64.3227 57.332 60.8836 57.2022 60.5267C57.0724 60.0724 56.1964 62.2138 54.4444 67.5022L51.8813 75.1267L48.1502 75.224L44.4191 75.3213L43.0564 72.9529C42.3102 71.6551 41.4667 70.1951 41.2071 69.7084C40.7204 68.8649 40.7853 68.5729 42.2778 63.8684C43.1213 61.1431 43.9649 58.5476 44.1271 58.0933C44.4191 57.3471 44.6138 57.6391 46.4631 61.3053L48.5071 65.3609L51.3622 56.536L54.2498 47.7111H57.1698H60.1222L62.7178 56.3413Z" fill="white"/>
</g>
<defs>
<clipPath id="clip0_122_935">
<rect width="120" height="120" fill="white" transform="translate(0 0.0996094)"/>
</clipPath>
</defs>
</svg>
