<svg width="62" height="70" viewBox="0 0 62 70" fill="none" xmlns="http://www.w3.org/2000/svg">
<path d="M53.6355 13.5591C53.5874 13.2089 53.2808 13.0153 53.0274 12.9941C52.7745 12.9728 47.4218 12.5762 47.4218 12.5762C47.4218 12.5762 43.7044 8.88555 43.2966 8.47716C42.8882 8.06877 42.091 8.19296 41.7816 8.28415C41.7357 8.29758 40.9693 8.53422 39.701 8.92639C38.4591 5.35326 36.2678 2.06936 32.4121 2.06936C32.3058 2.06936 32.1962 2.07384 32.0865 2.07999C30.99 0.629927 29.6317 0 28.4586 0C19.4774 0 15.1865 11.2274 13.841 16.9331C10.3513 18.0145 7.87185 18.7831 7.5552 18.8827C5.60724 19.4936 5.5457 19.5551 5.29004 21.3907C5.09704 22.7803 0 62.1983 0 62.1983L39.7173 69.6399L61.2377 64.9843C61.2377 64.9843 53.6831 13.9093 53.6355 13.5591ZM37.5058 9.60554C36.5083 9.91435 35.3744 10.2651 34.1453 10.6455C34.1464 10.4089 34.1475 10.1756 34.1475 9.92107C34.1475 7.7001 33.8393 5.91214 33.3447 4.49452C35.3313 4.74403 36.6543 7.00416 37.5058 9.60554ZM30.8804 4.9348C31.4326 6.31885 31.7917 8.30485 31.7917 10.9851C31.7917 11.1222 31.7906 11.2475 31.7895 11.3745C29.6038 12.0514 27.2289 12.7865 24.8485 13.5238C26.185 8.36583 28.6902 5.87465 30.8804 4.9348ZM28.2119 2.40894C28.5996 2.40894 28.9901 2.54041 29.3638 2.79775C26.4855 4.15215 23.4002 7.5636 22.0972 14.3759C20.1929 14.9655 18.3316 15.5417 16.6108 16.0749C18.137 10.8788 21.761 2.40894 28.2119 2.40894Z" fill="white"/>
<path d="M53.0266 12.9943C52.7738 12.973 47.4211 12.5764 47.4211 12.5764C47.4211 12.5764 43.7036 8.88575 43.2958 8.47736C43.1431 8.3252 42.9372 8.24743 42.7218 8.21387L39.7188 69.6395L61.237 64.9845C61.237 64.9845 53.6823 13.9095 53.6348 13.5593C53.5866 13.2091 53.2801 13.0155 53.0266 12.9943Z" fill="white"/>
<path d="M32.4112 24.8847L29.7578 32.7778C29.7578 32.7778 27.4328 31.537 24.583 31.537C20.4051 31.537 20.1948 34.1591 20.1948 34.8198C20.1948 38.4248 29.5922 39.806 29.5922 48.2502C29.5922 54.8935 25.3785 59.1715 19.6969 59.1715C12.879 59.1715 9.39258 54.9282 9.39258 54.9282L11.218 48.8969C11.218 48.8969 14.8018 51.9738 17.8261 51.9738C19.802 51.9738 20.6059 50.418 20.6059 49.2812C20.6059 44.5786 12.8963 44.3688 12.8963 36.6419C12.8963 30.1384 17.5643 23.8447 26.9869 23.8447C30.6176 23.8447 32.4112 24.8847 32.4112 24.8847Z" fill="black"/>
</svg>
