<svg width="95" height="110" viewBox="0 0 95 110" fill="none" xmlns="http://www.w3.org/2000/svg">
<path d="M8.42686 0.576279C7.5202 1.05628 7.46686 3.18961 7.46686 33.3229V65.5896H4.6402C-0.106469 65.5896 0.000197325 65.2163 0.000197325 81.6963C0.000197325 98.0163 -0.106469 97.5896 4.69353 97.5896H7.46686V102.923C7.46686 107.616 7.57353 108.256 8.4802 108.79C9.9202 109.536 84.4802 109.536 85.9202 108.79C86.8269 108.256 86.9335 107.616 86.9335 102.923V97.5896H89.7602C94.5069 97.5896 94.4002 97.9629 94.4002 81.4829C94.4002 65.1629 94.5069 65.5896 89.7069 65.5896H86.9335V43.8296V22.0696L76.3202 11.5096C70.4535 5.64294 65.3869 0.682945 64.9602 0.469612C63.9469 -0.223717 9.54686 -0.11705 8.42686 0.576279ZM62.5069 13.6963L62.6669 23.7229L73.0669 23.9896L83.4669 24.2563V44.7896V65.3229H47.2002H10.9335L10.7735 34.4963L10.6669 3.72295H36.5335H62.4002L62.5069 13.6963ZM80.5335 20.6296C80.5335 20.7363 77.2802 20.7896 73.3335 20.7896H66.1335V13.4829V6.12295L73.3335 13.3229C77.2802 17.2696 80.5335 20.5763 80.5335 20.6296ZM91.2002 81.5896V94.3896H47.2002H3.2002V81.5896V68.7896H47.2002H91.2002V81.5896ZM83.6269 101.696L83.7869 105.59H47.2002H10.6669V101.963C10.6669 99.9363 10.8269 98.1229 11.0402 97.9629C11.2002 97.7496 27.6269 97.6429 47.4135 97.6963L83.4669 97.8563L83.6269 101.696Z" fill="white"/>
<path d="M49.7071 34.0697C49.3338 34.2831 47.4671 38.9764 45.5471 44.5231C42.0805 54.6031 41.9205 55.9897 44.0538 55.9897C45.0671 55.9897 45.3338 55.3497 49.0671 44.6297C51.7338 37.0031 52.2671 34.9764 51.7338 34.3897C50.9871 33.4831 50.6671 33.4297 49.7071 34.0697Z" fill="white"/>
<path d="M27.6801 39.5094C25.3868 41.9628 23.4668 44.3628 23.4668 44.8428C23.4668 45.3228 25.3335 47.7228 27.6268 50.1228C30.7201 53.4294 32.0001 54.4961 32.6935 54.2294C34.7201 53.4828 34.3468 52.2028 30.9868 48.8428C29.2268 47.0294 27.7335 45.3228 27.7335 45.0561C27.7335 44.7361 29.1735 42.9228 30.9335 40.9494C32.6935 39.0294 34.1335 37.1628 34.1335 36.8428C34.1335 36.5228 33.6001 36.0427 33.0135 35.6694C31.9468 35.1361 31.4668 35.5094 27.6801 39.5094Z" fill="white"/>
<path d="M61.1742 35.7761C60.6942 36.0961 60.2676 36.5761 60.2676 36.8428C60.2676 37.1628 61.7076 39.0294 63.4676 40.9494C65.2276 42.9228 66.6676 44.7361 66.6676 45.0561C66.6676 45.3228 65.1742 47.0294 63.4142 48.8428C60.0542 52.2028 59.6809 53.4828 61.7076 54.2294C62.4009 54.4961 63.6809 53.4294 66.7742 50.1228C69.0676 47.7228 70.9342 45.3761 70.9342 44.9494C70.9342 44.0961 64.2676 36.4161 62.9342 35.7228C62.4542 35.4561 61.7076 35.5094 61.1742 35.7761Z" fill="white"/>
<path d="M59.8402 73.163C58.8802 74.123 58.9336 88.7363 59.9469 89.5363C61.7069 90.9763 63.1469 88.9497 62.8269 85.4297L62.6669 83.4563L65.3336 83.1897C68.8536 82.8163 70.1869 81.963 70.9336 79.7763C71.7869 77.163 70.5602 74.3363 68.0536 73.323C65.7602 72.363 60.7469 72.2563 59.8402 73.163ZM67.6269 77.803C67.8402 79.2963 66.9869 79.9897 64.7469 79.9897C62.6669 79.9897 62.5069 79.8297 62.8269 77.8563C63.0402 76.2563 63.1469 76.203 65.2802 76.363C67.1469 76.523 67.5202 76.7363 67.6269 77.803Z" fill="white"/>
<path d="M23.5742 73.6964C22.8809 74.3897 22.6142 87.6697 23.2542 89.2697C23.4142 89.7497 24.1609 90.123 24.8542 90.123C26.0809 90.123 26.1342 90.0164 26.1342 85.8564C26.1342 83.5097 26.2942 81.5897 26.5609 81.5897C26.7742 81.5897 27.5742 82.7097 28.3742 83.9897C29.1742 85.323 30.1876 86.3897 30.6676 86.3897C31.0942 86.3897 32.2142 85.2697 33.0676 83.883L34.6676 81.3764V84.8964C34.6676 86.8697 34.8276 88.7897 34.9876 89.2697C35.4142 90.3897 37.6542 90.3897 38.0809 89.2697C38.2409 88.7897 38.4009 85.3764 38.4009 81.5897C38.4009 75.9897 38.2409 74.5497 37.5476 73.8564C36.2676 72.6297 35.6809 73.003 33.3342 76.8964C32.1609 78.8697 31.0409 80.5764 30.8809 80.7897C30.6676 80.9497 29.6009 79.6164 28.5342 77.7497C26.6676 74.603 25.3342 73.0564 24.5342 73.0564C24.3742 73.0564 23.9476 73.323 23.5742 73.6964Z" fill="white"/>
<path d="M41.3341 73.8031C40.4807 74.4431 40.6407 75.0831 43.8407 82.1764C46.8807 89.0564 47.3607 89.8564 48.5341 89.8564C49.9741 89.8564 50.3474 89.2698 54.4541 79.8298C56.4807 75.1898 56.6407 74.5498 55.9474 73.8031C54.5607 72.4698 53.6007 73.4298 51.1474 78.9231C49.8674 81.8564 48.6941 84.2564 48.5341 84.2564C48.3741 84.2564 47.2007 81.8564 45.9741 78.9764C44.6941 76.0431 43.3074 73.5364 42.9341 73.3764C42.5607 73.2698 41.8141 73.4298 41.3341 73.8031Z" fill="white"/>
</svg>
