<svg width="120" height="121" viewBox="0 0 120 121" fill="none" xmlns="http://www.w3.org/2000/svg">
<g clip-path="url(#clip0_122_911)">
<path d="M55.9784 27.1949C52.6731 27.5347 49.1207 28.4923 46.1552 29.7588C30.9569 36.3385 22.9253 52.8651 27.0955 69.021C27.4353 70.3802 28.5474 73.1604 29.5668 75.1992C37.3513 91.0771 56.4727 98.0584 72.8448 90.9844C88.0431 84.4047 96.0747 67.8781 91.9045 51.7222C91.5647 50.363 90.4526 47.5828 89.4332 45.544C83.3168 33.095 69.7867 25.6812 55.9784 27.1949ZM42.9425 49.7761C43.3441 50.363 43.4368 51.6604 43.4368 57.9003C43.4368 66.3335 43.5603 66.8896 45.7845 68.187C47.4217 69.1446 50.8197 69.0519 52.2715 68.0325C54.0941 66.7351 54.2486 65.9937 54.2486 57.993C54.2486 49.7761 54.3721 49.3127 56.1638 49.1582C57.9555 49.0038 58.0172 49.2818 57.8937 58.4564C57.801 66.0555 57.7701 66.6116 57.1214 67.7854C55.5151 70.7509 52.982 72.0792 48.8118 72.1101C46.3096 72.1101 45.8463 72.0175 44.209 71.1834C42.1702 70.1331 40.5639 68.3106 40.0388 66.4571C39.6372 64.9435 39.6372 50.4865 40.0388 49.6834C40.5021 48.8184 42.3247 48.8802 42.9425 49.7761ZM66.9447 52.8342C70.0338 57.2825 70.528 57.9621 70.6825 57.7459C70.7752 57.6532 71.7637 56.2013 72.9375 54.5023C76.3046 49.5598 76.7371 49.0965 77.7256 49.0965C78.8377 49.0965 79.6408 50.1159 79.2701 51.0735C79.1466 51.4442 77.6329 53.6683 75.903 56.0469C74.1731 58.3946 72.7831 60.4643 72.7831 60.6496C72.7831 60.835 73.5244 61.947 74.4203 63.1518C75.3161 64.3256 76.7989 66.3953 77.7256 67.7236C79.2084 69.8242 79.3628 70.1949 79.0848 70.9672C78.8686 71.6159 78.5596 71.8321 77.7874 71.8939C77.2313 71.9557 76.5517 71.8321 76.3355 71.6468C76.0884 71.4305 74.6365 69.4844 73.092 67.2912L70.2809 63.3062L67.1918 67.631C64.319 71.6777 64.041 71.9557 63.1142 71.9557C61.9404 71.9557 61.3535 71.4923 61.3535 70.5656C61.3535 70.2258 62.8671 67.8163 64.7206 65.1906L68.0877 60.4643L64.875 56.016C62.5582 52.8034 61.6624 51.2897 61.6624 50.641C61.6624 49.6525 62.3111 49.1273 63.5467 49.0965C64.2572 49.0965 64.7514 49.6216 66.9447 52.8342Z" fill="white"/>
</g>
<defs>
<clipPath id="clip0_122_911">
<rect width="120" height="120" fill="white" transform="translate(0 0.0996094)"/>
</clipPath>
</defs>
</svg>
