<svg width="97" height="109" viewBox="0 0 97 109" fill="none" xmlns="http://www.w3.org/2000/svg">
<path d="M41.8201 58.3602C38.0975 60.5087 34.9705 62.3593 34.8429 62.487C34.5876 62.7422 36.2255 64.9332 37.7359 66.3159C39.3312 67.7624 41.3734 68.9536 43.5005 69.6769C45.5426 70.3788 49.0738 70.5916 51.3924 70.2087C54.1578 69.7194 57.0082 68.3155 59.2205 66.3159C60.3904 65.2736 62.3262 62.9124 62.3262 62.5295C62.3262 62.4444 60.2841 61.1894 57.8165 59.7429C55.3277 58.3177 52.2433 56.5308 50.9883 55.7863C49.7119 55.0631 48.6696 54.4462 48.6483 54.4462C48.6271 54.4462 45.5639 56.2117 41.8201 58.3602Z" fill="black"/>
<path d="M10.8905 76.2286L1.29688 81.7593L1.6585 82.3762C2.06266 83.0782 3.97714 84.8012 4.87056 85.2904C5.21091 85.4606 5.84907 85.8222 6.29578 86.0562C6.76376 86.3115 7.21047 86.5242 7.31683 86.5242C7.42319 86.5242 7.57209 86.6306 7.63591 86.7582C7.72099 86.8858 8.1677 87.2049 8.65696 87.4602C9.12494 87.7367 10.2524 88.3536 11.1458 88.8641C12.0392 89.3534 12.8263 89.7575 12.8901 89.7363C12.9752 89.7363 13.1028 89.8001 13.1666 89.9064C13.2304 90.0128 14.0175 90.5233 14.8896 91.0338C15.7618 91.5231 17.0168 92.2463 17.655 92.6292C18.2931 93.0121 19.6545 93.7992 20.6756 94.3948C21.6754 94.9692 22.5688 95.4159 22.6326 95.3308C22.6964 95.267 22.7602 95.3095 22.7602 95.4371C22.7602 95.6286 23.8238 96.2242 24.0153 96.1391C24.0578 96.1178 24.1642 96.2029 24.228 96.3093C24.3556 96.5007 27.8442 98.6067 28.0782 98.6279C28.142 98.6279 28.7376 98.9895 29.4184 99.415C30.1203 99.8617 31.0137 100.372 31.4605 100.564C31.8859 100.776 32.5453 101.138 32.9282 101.415C33.2898 101.691 33.6089 101.861 33.6089 101.776C33.6089 101.712 33.8004 101.819 34.0344 102.031C34.2471 102.244 35.183 102.797 36.0977 103.265C37.0124 103.733 37.7995 104.18 37.8633 104.265C37.9271 104.35 38.3313 104.563 38.7567 104.733C39.1822 104.924 39.5863 105.158 39.6714 105.265C39.8203 105.541 43.0324 107.307 43.2451 107.243C43.3302 107.222 43.394 107.286 43.394 107.371C43.394 107.477 43.9471 107.839 44.6278 108.179C45.7765 108.753 45.9892 108.796 48.4993 108.796C50.8179 108.796 51.2859 108.732 52.1155 108.307C53.328 107.711 54.3703 107.115 54.7745 106.775C54.9659 106.626 55.5615 106.265 56.1146 106.009C56.6677 105.733 57.4973 105.265 57.9653 104.967C58.4332 104.69 59.2203 104.244 59.7308 103.967C60.2201 103.712 60.6243 103.414 60.6243 103.329C60.6243 103.223 60.7093 103.18 60.8157 103.244C60.9221 103.308 61.1135 103.223 61.2624 103.052C61.4113 102.882 61.624 102.733 61.7304 102.733C61.9857 102.733 65.4955 100.67 66.0061 100.223C66.1975 100.053 66.3677 99.9681 66.3677 100.032C66.3677 100.117 66.8144 99.883 67.3887 99.5426C67.9418 99.2023 68.7927 98.713 69.3032 98.4577C69.7924 98.2025 70.1966 97.9047 70.1966 97.7983C70.1966 97.7132 70.3242 97.6281 70.4944 97.6281C70.6433 97.6281 71.0262 97.4367 71.3453 97.1814C71.6431 96.9474 71.8984 96.7985 71.8984 96.8624C71.8984 97.0113 75.5784 94.8415 75.7486 94.6075C75.8124 94.4799 75.9188 94.4161 75.9613 94.4374C76.1528 94.5224 77.2163 93.9268 77.2163 93.7354C77.2163 93.6077 77.2802 93.5865 77.3653 93.6503C77.4291 93.7354 77.6418 93.6716 77.8332 93.5014C78.0247 93.3525 78.8543 92.8632 79.6626 92.4165C82.0451 91.1402 85.1721 89.2896 85.321 89.0768C85.3848 88.9492 85.4911 88.8854 85.5337 88.9067C85.7038 88.9917 86.7887 88.3961 86.7887 88.226C86.7887 88.1409 86.8738 88.0558 86.9802 88.0558C87.278 88.0558 90.724 86.12 90.7878 85.9073C90.8304 85.801 90.9793 85.7159 91.1282 85.7159C91.2984 85.7159 91.66 85.5244 91.9578 85.2904C92.2769 85.0352 92.5959 84.8437 92.681 84.8437C93.0214 84.8437 94.4892 83.5249 95.106 82.674C95.6166 81.972 95.6804 81.7593 95.4677 81.5466C95.3188 81.4189 93.2341 80.1639 90.8304 78.8025C88.4267 77.4198 84.2361 75.0161 81.5133 73.4207C78.7905 71.8466 76.5357 70.5915 76.5144 70.6341C74.7701 73.5909 71.2389 77.6538 68.5374 79.8023C66.4528 81.4828 62.9854 83.461 60.4541 84.4608C50.3286 88.4174 39.48 87.2474 30.3969 81.2275C27.7591 79.4619 23.5048 75.2288 21.7605 72.6124L20.4841 70.6766L10.8905 76.2286Z" fill="black"/>
<path d="M86.3643 32.6213C81.2803 35.5781 74.0266 39.79 70.2402 41.981C66.4751 44.172 62.8163 46.2779 62.1356 46.6395C61.4549 47.0224 58.179 48.8943 54.8181 50.8301C50.2021 53.4891 48.7981 54.4038 48.9896 54.5739C49.1385 54.7228 51.4996 56.1268 54.2437 57.7009C56.9878 59.275 60.7317 61.4235 62.5398 62.4871C72.1547 68.0391 87.0025 76.6117 90.8314 78.8027C93.2351 80.1853 95.3198 81.3978 95.4687 81.5255C95.8303 81.802 95.8729 81.7382 96.4685 80.0577L97.0003 78.5899V54.5739C97.0003 33.4084 96.9577 30.409 96.6599 29.3667C96.4897 28.7073 96.1707 27.9628 95.9792 27.7288C95.6176 27.2821 95.5751 27.3033 86.3643 32.6213ZM77.2174 50.7237V52.5318H79.0255H80.8336V54.4463V56.3608H79.0255H77.2174V58.1689V59.977H75.4093H73.6012V58.1689V56.3608H71.793H69.9849V54.4463V52.5318H71.793H73.6012V50.7237V48.9156H75.4093H77.2174V50.7237ZM90.6187 50.7237V52.5318H92.4268H94.2349V54.4463V56.3608H92.4268H90.6187V58.1689V59.977H88.8106H87.0025V58.1689V56.3608H85.1944H83.3862V54.4463V52.5318H85.1944H87.0025V50.7237V48.9156H88.8106H90.6187V50.7237Z" fill="black"/>
<path d="M45.5644 0.330124C44.7987 0.606659 33.8011 6.83933 29.5892 9.37069C28.866 9.83867 28.2066 10.2003 28.164 10.2003C28.1215 10.2003 27.5897 10.4981 26.9728 10.8597C26.3559 11.2426 25.4199 11.7744 24.8881 12.0722C24.3563 12.37 21.8675 13.7952 19.3574 15.263C14.8265 17.8582 14.0607 18.3262 9.89144 20.7512C8.72149 21.4319 7.33881 22.2189 6.80701 22.5167C6.27522 22.7933 5.59451 23.1974 5.27544 23.4102C4.97763 23.6441 4.63728 23.8143 4.53092 23.8143C4.14802 23.8143 2.29737 25.6012 1.61667 26.6435C1.2125 27.2604 0.680701 28.3452 0.44671 29.0685C0 30.3873 0 30.6426 0 54.4884V78.5895L0.531798 80.0573C0.808333 80.8443 1.08487 81.5463 1.12741 81.5889C1.19123 81.6739 19.9318 70.9529 20.2509 70.6551C20.3147 70.57 19.9743 69.634 19.4425 68.5917C18.3364 66.3369 17.209 62.9547 16.6559 60.2957C16.0816 57.4027 16.1454 51.0637 16.7623 48.1494C17.7195 43.7461 19.4851 39.6194 21.9739 35.9393C23.5693 33.5994 27.9726 29.2812 30.3976 27.6645C34.0776 25.2395 38.3107 23.4952 42.6502 22.6018C45.5432 22.0275 51.8822 22.0913 54.8177 22.7082C59.0296 23.6229 63.05 25.3034 66.6024 27.6645C69.2401 29.4301 73.4945 33.6632 75.2175 36.2797L76.5151 38.1941L85.8535 32.8123C90.98 29.8343 95.3195 27.3242 95.4684 27.2391C95.6811 27.1115 95.5322 26.7924 94.8728 25.9628C94.0432 24.8992 92.4903 23.7718 89.9802 22.3891C89.3421 22.0488 88.0019 21.283 87.0021 20.6874C86.0024 20.113 82.9392 18.3262 80.1951 16.752C77.451 15.1567 72.1331 12.0935 68.3892 9.92376C64.6454 7.7753 61.2419 5.81828 60.8377 5.58429C60.4335 5.3503 59.1785 4.62705 58.0723 3.98889C56.9662 3.32947 55.2219 2.32969 54.1796 1.73407C53.1585 1.13846 51.8822 0.500298 51.3504 0.308853C50.1166 -0.116585 46.7982 -0.095314 45.5644 0.330124Z" fill="black"/>
<path d="M44.5649 38.9171C39.1831 40.3423 35.0564 44.1926 33.2695 49.4467C32.5037 51.659 32.3123 55.6581 32.8441 57.9129C33.3333 59.9976 34.4395 62.5928 34.7586 62.3588C34.8862 62.2524 40.9274 58.7425 48.1811 54.552C55.4349 50.3827 61.5825 46.8303 61.859 46.6601C62.327 46.341 62.327 46.341 61.9653 45.7029C61.391 44.7244 59.2638 42.4483 58.1151 41.6187C56.6048 40.4912 54.2224 39.3851 52.393 38.9171C50.2445 38.3641 46.6496 38.3641 44.5649 38.9171Z" fill="black"/>
</svg>
