<svg width="108" height="112" viewBox="0 0 108 112" fill="none" xmlns="http://www.w3.org/2000/svg">
<path d="M107.939 25.3373C107.979 25.4866 108 25.6406 108 25.7953V49.8358C108 50.4638 107.666 51.0439 107.126 51.3564L87.0956 62.9735V85.9995C87.0956 86.6261 86.765 87.2046 86.2256 87.5201L44.4146 111.767C44.3188 111.821 44.2144 111.856 44.11 111.894C44.0709 111.907 44.0339 111.931 43.9926 111.942C43.7003 112.019 43.3931 112.019 43.1008 111.942C43.053 111.929 43.0095 111.902 42.9638 111.885C42.8681 111.85 42.768 111.819 42.6767 111.767L0.874371 87.5201C0.33386 87.2073 0 86.6274 0 85.9995V13.878C0 13.7202 0.0217505 13.5669 0.0609014 13.4179C0.0739517 13.3675 0.104402 13.3215 0.121803 13.2711C0.154429 13.179 0.184879 13.0848 0.232731 12.9994C0.265356 12.9424 0.313207 12.8964 0.352358 12.8438C0.402385 12.7737 0.448061 12.7014 0.506787 12.64C0.556813 12.5896 0.622065 12.5524 0.678616 12.5086C0.741692 12.456 0.798244 12.399 0.870021 12.3574H0.872196L21.7744 0.234163C22.313 -0.0780544 22.9759 -0.0780544 23.5145 0.234163L44.4167 12.3574H44.4211C44.4907 12.4012 44.5494 12.456 44.6125 12.5064C44.669 12.5502 44.7321 12.5896 44.7821 12.6378C44.843 12.7014 44.8865 12.7737 44.9387 12.8438C44.9757 12.8964 45.0257 12.9424 45.0562 12.9994C45.1062 13.087 45.1345 13.179 45.1693 13.2711C45.1867 13.3215 45.2171 13.3675 45.2302 13.4201C45.2702 13.5694 45.2907 13.7233 45.2911 13.878V58.9244L62.7089 48.8213V25.7931C62.7089 25.6397 62.7307 25.4841 62.7698 25.3373C62.785 25.2847 62.8133 25.2387 62.8307 25.1883C62.8655 25.0963 62.896 25.0021 62.9438 24.9166C62.9764 24.8597 63.0243 24.8137 63.0613 24.7611C63.1135 24.691 63.157 24.6187 63.2179 24.5573C63.2679 24.5069 63.331 24.4697 63.3875 24.4258C63.4528 24.3733 63.5093 24.3163 63.5789 24.2747H63.5811L84.4855 12.1514C85.024 11.8388 85.6871 11.8388 86.2256 12.1514L107.128 24.2747C107.202 24.3185 107.258 24.3733 107.324 24.4237C107.378 24.4675 107.441 24.5069 107.491 24.5551C107.552 24.6187 107.595 24.691 107.648 24.7611C107.687 24.8137 107.735 24.8597 107.765 24.9166C107.815 25.0021 107.843 25.0963 107.878 25.1883C107.898 25.2387 107.926 25.2847 107.939 25.3373ZM104.516 48.8213V28.8299L97.2009 33.0718L87.0956 38.933V58.9244L104.518 48.8213H104.516ZM83.6133 84.985V64.9805L73.6733 70.6992L45.2889 87.0183V107.211L83.6133 84.985ZM3.48443 16.9126V84.985L41.8045 107.209V87.0205L21.7853 75.6072L21.7788 75.6028L21.7701 75.5985C21.7027 75.559 21.6461 75.502 21.583 75.4538C21.5287 75.41 21.4656 75.375 21.4177 75.3268L21.4134 75.3202C21.3568 75.2654 21.3177 75.1975 21.2698 75.1361C21.2263 75.077 21.1741 75.0266 21.1393 74.9652L21.1371 74.9587C21.098 74.8929 21.0741 74.814 21.0458 74.7396C21.0175 74.6738 20.9805 74.6125 20.9631 74.5424V74.5402C20.9414 74.4569 20.937 74.3693 20.9283 74.2838C20.9196 74.2181 20.9022 74.1523 20.9022 74.0866V74.0822V27.0157L10.7991 21.1524L3.48443 16.9148V16.9126ZM22.6466 3.77933L5.231 13.878L22.6423 23.9767L40.0557 13.8758L22.6423 3.77933H22.6466ZM31.7036 66.8035L41.8067 60.9445V16.9126L34.492 21.1546L24.3867 27.0157V71.0476L31.7036 66.8035ZM85.3555 15.6966L67.9421 25.7953L85.3555 35.8939L102.767 25.7931L85.3555 15.6966ZM83.6133 38.933L73.508 33.0718L66.1933 28.8299V48.8213L76.2964 54.6802L83.6133 58.9244V38.933ZM43.5445 83.9837L69.0862 69.2947L81.8537 61.9546L64.4533 51.8625L44.4189 63.4818L26.1593 74.0713L43.5445 83.9837Z" fill="black"/>
</svg>
