<svg width="108" height="108" viewBox="0 0 108 108" fill="none" xmlns="http://www.w3.org/2000/svg">
<path d="M49.8178 0.0209351C46.1956 0.387222 43.5073 0.841919 40.756 1.52397C20.6762 6.58885 5.11461 22.9076 1.05069 43.205C-0.350229 50.1644 -0.350229 57.8439 1.05069 64.8033C5.30392 86.0101 22.0644 102.784 43.2549 107.04C47.3188 107.861 48.8333 108 54.0458 108C59.2582 108 60.7727 107.861 64.8366 107.04C86.0271 102.784 102.788 86.0101 107.041 64.8033C107.861 60.7363 108 59.2206 108 54.0042C108 48.7877 107.861 47.272 107.041 43.205C102.788 21.9982 86.0271 5.22475 64.8366 0.968231C61.0251 0.197762 59.4349 0.046196 54.6768 0.00830078C52.2788 -0.00432587 50.0954 -0.00432587 49.8178 0.0209351ZM57.7058 1.33452C68.7869 2.1555 78.871 6.18467 87.592 13.2831C89.1697 14.5588 93.4608 18.8532 94.7355 20.432C102.548 30.0565 106.801 41.7904 106.801 53.7642V55.4819L105.665 55.6335C104.226 55.823 102.838 56.2524 101.626 56.9092C98.7363 58.4628 97.7897 58.7406 95.316 58.7406C92.9054 58.7406 92.0598 58.5259 89.5861 57.3134C88.5386 56.8081 87.2134 56.2524 86.6455 56.0882C84.4747 55.4567 81.8748 55.4314 79.6661 56.025C79.1487 56.1766 77.9245 56.6818 76.9526 57.1492C74.3149 58.4501 73.0275 58.8038 70.9577 58.8038C68.8879 58.8038 67.6132 58.4501 64.9628 57.1492C62.9687 56.1766 61.8959 55.8482 60.0912 55.6461C57.6679 55.3809 55.2574 55.8609 52.771 57.0987C52.0138 57.4902 51.3323 57.7681 51.2692 57.7302C51.1682 57.667 49.3382 55.103 49.0731 54.6609C49.01 54.5473 49.1993 54.2441 49.6537 53.7768C53.2759 49.9497 52.6322 43.7734 48.3033 40.6789C46.7256 39.5421 45.1733 39.0748 43.0656 39.0874C41.5511 39.0874 40.6298 39.2895 39.3424 39.9084C37.4619 40.8052 36.1241 42.1188 35.228 43.9628C34.5339 45.3901 34.3193 46.3626 34.3193 47.9415C34.3193 49.4698 34.5339 50.4676 35.1649 51.7938L35.5814 52.6779L36.5785 52.9053C37.26 53.0442 38.2823 53.461 39.7842 54.1936C42.1947 55.3556 43.0151 55.6209 44.4791 55.7345L45.4383 55.8103L46.2208 57.2628C46.6373 58.0586 46.9528 58.7406 46.915 58.7785C46.7635 58.9301 44.1636 58.5512 43.2297 58.2354C42.687 58.0586 41.7656 57.6291 41.1725 57.2881C39.9861 56.6187 38.8881 56.1514 37.6386 55.8103C36.9949 55.6335 36.3513 55.583 34.5465 55.5956C32.4388 55.5956 32.1864 55.6209 31.1515 55.9366C30.5331 56.1261 29.2079 56.7071 28.1856 57.2376C25.7245 58.5006 24.8789 58.7154 22.4936 58.7154C19.8937 58.7154 19.3383 58.5512 16.0443 56.8208C14.1007 55.8103 12.3338 55.444 9.80958 55.5577C7.5252 55.6588 5.98545 56.1008 4.06708 57.225C3.54962 57.5281 2.74189 57.9196 2.28753 58.0965L1.45456 58.4122L1.36621 57.0734C0.823512 48.1057 2.72926 38.7843 6.76795 30.6249C10.6678 22.7434 16.587 15.8597 23.8819 10.7191C31.4039 5.40157 40.7686 2.05446 50.0702 1.34715C52.0895 1.19558 55.7369 1.19558 57.7058 1.33452ZM45.2869 43.3187C46.3849 43.8744 47.2305 44.7333 47.7732 45.8953C48.1392 46.6658 48.177 46.8552 48.177 47.9415C48.177 49.053 48.1392 49.2172 47.7479 50.0255C47.2052 51.1244 46.3596 51.958 45.249 52.5137C44.4791 52.8927 44.2898 52.9305 43.2549 52.9305C42.2452 52.9305 42.0307 52.8927 41.2734 52.5264C39.6327 51.7559 38.5726 50.3665 38.2697 48.6109C37.8532 46.1732 39.6327 43.5207 42.1316 42.8892C43.053 42.6619 44.2898 42.8387 45.2869 43.3187ZM13.2046 57.1618C14.1512 57.4018 14.656 57.6291 16.8268 58.7659C18.783 59.789 20.4616 60.13 23.0489 60.0289C25.4973 59.9405 26.6711 59.5995 28.9302 58.3491C30.4573 57.5028 31.7447 57.0734 33.3349 56.8839C35.7329 56.6061 38.0551 57.086 40.1628 58.2986C42.321 59.5237 43.7345 59.9405 46.1325 60.0289C48.9974 60.1426 50.1838 59.8648 53.2254 58.3491C54.2729 57.8312 55.4467 57.326 55.8505 57.225C58.9805 56.4419 61.1513 56.745 64.6473 58.4249C67.4996 59.789 68.3073 59.9911 70.9577 59.9911C73.6081 59.9911 74.4158 59.789 77.2682 58.4249C80.2088 57.0102 82.0515 56.6187 84.3485 56.9092C85.9892 57.1239 86.8853 57.427 89.0434 58.488C91.6181 59.7637 92.6025 60.0037 95.2529 59.9911C97.8781 59.9911 98.711 59.7763 101.437 58.4249C103.406 57.4523 104.681 57.0229 106.094 56.8587L106.713 56.7829L106.624 58.2354C106.574 59.0438 106.511 59.7763 106.473 59.8648C106.435 59.9658 106.069 60.0542 105.438 60.1047C103.848 60.231 102.586 60.6226 100.743 61.5699C98.1936 62.8582 97.2975 63.1235 95.0636 63.1866C93.4103 63.2371 93.12 63.2119 91.9715 62.9214C91.1259 62.7066 90.1919 62.3277 89.1318 61.7972C86.2921 60.3447 84.8533 60.0037 82.0767 60.1047C79.7923 60.1805 78.6438 60.4963 76.3847 61.633C73.9489 62.8708 73.0402 63.1235 70.8315 63.1866C69.1656 63.2371 68.8879 63.2119 67.7394 62.9214C66.8938 62.694 65.8968 62.3025 64.7104 61.7088C63.7386 61.2289 62.4386 60.6731 61.8076 60.4837C60.7474 60.1679 60.5203 60.1426 58.3368 60.1426C56.1534 60.1426 55.9263 60.1679 54.8661 60.4837C54.2477 60.6731 52.8846 61.2541 51.8371 61.7846C49.2246 63.0856 48.4168 63.275 45.8548 63.1992C43.4695 63.1235 42.8258 62.9466 40.5667 61.7467C37.8405 60.3068 36.5027 59.9911 33.5116 60.1047C31.1389 60.1805 30.369 60.3952 27.7312 61.7215C24.9925 63.0856 24.2226 63.275 21.6227 63.1992C19.2374 63.1235 18.6063 62.9466 16.2462 61.7088C13.5327 60.2942 12.359 60.0163 9.48143 60.0921C7.02036 60.1553 6.01069 60.4205 3.70107 61.6078C2.77975 62.0877 1.99725 62.4667 1.98463 62.4414C1.95939 62.4161 1.87105 61.7972 1.77008 61.052C1.58076 59.7006 1.59339 59.6879 1.8458 59.6121C2.61568 59.3848 3.87776 58.8164 4.82433 58.2859C6.03593 57.6039 7.41161 57.1113 8.61059 56.9218C9.79696 56.745 12.0309 56.8587 13.2046 57.1618ZM12.3842 61.532C13.4318 61.772 14.5676 62.2267 15.7666 62.9087C17.9879 64.1718 19.6286 64.5381 22.4809 64.4497C24.9546 64.3739 25.9264 64.1086 28.5263 62.7698C30.9369 61.5446 31.833 61.3046 34.1048 61.3046C36.3639 61.3046 37.2474 61.532 39.8473 62.8329C42.7374 64.2855 43.318 64.4244 46.2839 64.4118C48.5304 64.4118 48.7576 64.3865 49.8178 64.0581C50.4488 63.8687 51.6352 63.3508 52.4681 62.9087C55.0049 61.5699 57.0748 61.1026 59.4349 61.3425C61.063 61.5067 61.8581 61.7593 63.9531 62.7824C66.9695 64.2476 68.3452 64.5633 71.1218 64.4497C73.2421 64.3612 74.4158 64.0329 76.8264 62.8582C79.6409 61.4688 81.2942 61.1026 83.6543 61.3425C85.3203 61.5194 86.128 61.772 88.3745 62.8582C91.3026 64.2602 91.921 64.4118 94.7481 64.4118C96.8558 64.4118 97.1082 64.3865 98.1557 64.0707C98.7868 63.8813 100.15 63.3003 101.185 62.7824C103.166 61.7846 104.592 61.3299 105.69 61.3299H106.309L106.233 61.7972C106.056 62.8582 105.653 65.0686 105.589 65.2707C105.552 65.4222 105.4 65.498 105.173 65.498C104.302 65.498 102.321 66.1422 100.907 66.8874C98.2188 68.302 96.4393 68.7441 94.0792 68.6178C92.2996 68.5167 91.2016 68.1883 89.0687 67.14C86.229 65.738 85.0553 65.4475 82.4427 65.4601C80.1583 65.4727 78.8584 65.8011 76.4226 67.0137C75.4255 67.4936 74.1256 68.0494 73.5198 68.2388C72.5101 68.542 72.2198 68.5799 70.4529 68.5799C68.686 68.5672 68.3831 68.542 67.3608 68.2262C66.7424 68.0368 65.6443 67.5694 64.9249 67.1905C61.8076 65.5359 58.7786 65.0433 55.6865 65.6875C54.4496 65.9527 53.5031 66.319 52.1021 67.0642C49.8304 68.2641 48.3916 68.6557 46.2082 68.6557C44.05 68.6557 42.485 68.2136 40.3521 67.0263C36.4396 64.8286 31.7447 64.8412 27.7943 67.0768C25.5604 68.3399 23.8819 68.7441 21.3829 68.6178C19.4519 68.5294 18.4296 68.2262 16.3724 67.14C14.3783 66.0916 13.0279 65.6496 11.2357 65.4727C8.64846 65.1949 6.01069 65.7127 3.86514 66.9L2.96906 67.3926L2.57781 65.5864C2.28753 64.2728 2.22443 63.7802 2.33802 63.7424C2.42636 63.7171 3.2341 63.3129 4.13018 62.8456C5.90973 61.9109 7.10871 61.4941 8.44652 61.3299C9.5193 61.191 11.3241 61.292 12.3842 61.532ZM11.6396 66.7611C12.9269 66.9758 13.5832 67.2158 15.7414 68.2894C18.5054 69.6661 19.1869 69.8429 21.9887 69.8429C24.7906 69.8429 25.4721 69.6661 28.2361 68.2767C29.3467 67.721 30.6845 67.1526 31.202 67.0137C33.0825 66.4958 35.7202 66.559 37.4872 67.14C37.8784 67.2789 39.0648 67.822 40.0997 68.3399C42.7248 69.6661 43.4442 69.8429 46.2208 69.8429C48.9722 69.8429 49.7294 69.6535 52.2157 68.403C54.2729 67.38 55.0933 67.0768 56.5573 66.8242C57.8951 66.5842 58.7786 66.5842 60.1543 66.8242C61.6183 67.0768 62.527 67.4052 64.3949 68.3652C66.2501 69.3124 67.8782 69.7672 69.7587 69.8808C72.2198 70.0198 74.2265 69.5524 76.8895 68.2136C79.3632 66.9632 81.2185 66.5211 83.3009 66.6853C85.0174 66.8116 86.2416 67.1905 88.3114 68.2136C90.5201 69.3124 92.0725 69.7672 93.9908 69.8808C96.4898 70.0198 98.4965 69.5524 101.197 68.1504C102.661 67.4052 104.454 66.7611 105.072 66.7611C105.299 66.7611 105.299 66.7737 104.441 69.5777L103.987 71.0555L103.09 71.3207C102.611 71.4723 101.525 71.9396 100.693 72.3817C97.4994 74.0489 94.8491 74.4405 91.9336 73.6953C91.4035 73.569 90.0279 73.0006 88.8794 72.4448C86.4814 71.2828 85.3077 70.9544 83.2505 70.8408C80.7894 70.7144 78.5934 71.2197 76.2964 72.4575C73.9236 73.7332 71.5004 74.251 69.2665 73.9858C67.6889 73.7837 66.654 73.4427 64.8366 72.5333C62.325 71.2828 60.5455 70.8029 58.3368 70.8029C56.0903 70.8029 54.2224 71.3081 51.8371 72.5711C51.0798 72.9753 49.944 73.4679 49.3129 73.6574C48.2906 73.9605 47.9751 73.9984 46.2839 73.9984C43.6209 73.9984 43.1035 73.8468 39.7211 72.0912C39.1657 71.8007 38.2066 71.4218 37.5755 71.2323C36.528 70.9039 36.2756 70.8786 34.1679 70.8786C31.3029 70.8786 30.6466 71.0428 27.8574 72.4448C25.1439 73.7963 24.3362 74.011 21.9887 74.011C19.3888 73.9984 18.8335 73.8342 15.489 72.0912C13.8356 71.2323 12.5231 70.9165 10.3775 70.8408C8.32031 70.765 6.83105 70.9923 5.32917 71.6112C4.87481 71.788 4.48357 71.8891 4.43308 71.8386C4.3195 71.7123 3.43603 69.0093 3.43603 68.782C3.43603 68.5294 5.40489 67.481 6.55339 67.14C8.21935 66.6348 9.99889 66.5085 11.6396 66.7611ZM13.2803 72.5459C13.9366 72.7732 14.9337 73.2027 15.489 73.5311C16.8142 74.2889 17.7355 74.6678 18.9723 74.971C22.1528 75.7288 25.4342 75.2615 28.2992 73.6574C30.5709 72.3691 32.1233 71.9901 34.6853 72.0912C36.061 72.1543 36.5027 72.2175 37.5124 72.5585C38.1687 72.7732 39.1657 73.2027 39.7211 73.5311C41.6521 74.6426 43.2549 75.1352 45.3752 75.2994C47.8615 75.4762 50.1207 74.9457 52.6827 73.5942C54.5253 72.6217 55.9641 72.1922 57.731 72.1038C60.1038 71.9775 61.4921 72.3185 64.3318 73.7205C66.288 74.6805 67.3986 75.0215 69.1908 75.2236C71.7781 75.5267 73.9236 75.072 76.7886 73.6321C77.672 73.19 78.8963 72.6722 79.5021 72.4827C80.4865 72.1796 80.8273 72.1417 82.5058 72.1417C84.9164 72.1291 85.8125 72.3564 88.4376 73.6447C90.5201 74.6805 91.6055 75.0215 93.4229 75.2236C95.9597 75.5141 98.8499 74.9078 101.096 73.6195C102.068 73.0637 103.267 72.5206 103.356 72.609C103.431 72.6848 102.434 75.0973 101.803 76.4108C101.324 77.3834 101.298 77.4087 100.301 77.9518C99.7459 78.2549 98.7489 78.6844 98.0926 78.8991C97.0198 79.2527 96.6917 79.3033 95.0636 79.3538C93.4103 79.4043 93.12 79.379 91.9715 79.0885C91.1259 78.8738 90.1919 78.4949 89.1318 77.9518C86.3173 76.5119 84.8028 76.1582 81.9758 76.2719C79.805 76.3477 78.6186 76.6761 76.3847 77.8002C73.9489 79.038 73.0402 79.2906 70.8315 79.3538C69.1782 79.4043 68.8879 79.379 67.7394 79.0885C66.8938 78.8738 65.9599 78.5075 64.8997 77.9644C62.06 76.5119 60.6339 76.1709 57.8446 76.2719C55.5098 76.3477 54.4496 76.6382 51.8371 77.9518C49.2246 79.2527 48.4168 79.4422 45.8548 79.3664C43.4695 79.2906 42.8384 79.1138 40.4783 77.876C37.7396 76.4487 36.5658 76.1709 33.6378 76.2719C31.1262 76.3477 30.4068 76.5372 27.7312 77.876C24.9799 79.2527 24.2226 79.4422 21.6227 79.3664C19.25 79.2906 18.5937 79.1138 16.3472 77.9265C13.7599 76.5498 12.5231 76.234 9.89792 76.234C8.86301 76.234 7.81548 76.3098 7.29802 76.4235C6.27573 76.6382 6.42718 76.7771 5.64469 75.0089C4.79909 73.0637 4.79909 73.1522 5.66993 72.8238C6.0738 72.6722 6.71746 72.4701 7.09609 72.3817C7.47471 72.2806 7.90382 72.1796 8.04265 72.1417C8.18148 72.1038 9.15329 72.0912 10.1882 72.1164C11.9173 72.1543 12.1823 72.1922 13.2803 72.5459ZM11.1979 77.4971C12.6493 77.6739 14.2395 78.2044 15.6404 79.0001C17.9879 80.339 19.5781 80.7179 22.4809 80.6168C24.942 80.5411 26.0148 80.2506 28.3623 79.0128C30.268 78.0149 31.2903 77.6739 32.9184 77.4845C35.2659 77.2318 37.6639 77.7497 39.8725 79.0001C42.22 80.339 43.8102 80.7179 46.713 80.6168C49.1489 80.5537 50.2469 80.2506 52.4681 79.0759C55.0049 77.7371 57.1757 77.2571 59.4727 77.5097C61.1513 77.6992 61.9212 77.9518 63.9531 78.937C66.9569 80.4148 68.3326 80.7305 71.1218 80.6168C73.2421 80.5284 74.4285 80.2 76.8264 79.0128C78.871 78.0023 79.9185 77.6613 81.4962 77.5097C83.8563 77.2697 85.4717 77.6234 88.3745 79.0254C90.9492 80.2506 91.9463 80.5284 94.117 80.6168C96.3257 80.7053 97.8276 80.44 100.024 79.5811C100.289 79.4675 99.4557 80.9452 98.0043 83.143C97.3227 84.1913 96.982 84.5955 96.7296 84.6586C96.5402 84.7218 95.5937 84.7597 94.6219 84.7471C92.3754 84.7344 91.4667 84.4944 89.0687 83.3198C86.229 81.9178 85.0553 81.6147 82.4427 81.6273C80.1583 81.6399 78.8963 81.9683 76.2585 83.244C73.5576 84.545 72.7625 84.7597 70.4529 84.7597C68.1685 84.7597 67.3229 84.5323 64.8366 83.3072C62.0474 81.9304 60.8484 81.6273 58.3368 81.6147C55.9515 81.6147 54.4875 81.9936 52.2157 83.1809C49.6158 84.545 48.1266 84.9112 45.615 84.7849C43.684 84.6965 42.6617 84.3934 40.6045 83.3072C38.6104 82.2588 37.26 81.8167 35.4678 81.6399C32.7417 81.3494 30.2049 81.8799 27.7943 83.244C25.5604 84.5071 23.8819 84.9112 21.3829 84.7849C19.4519 84.6965 18.4296 84.3934 16.3724 83.3072C13.9618 82.0441 12.0813 81.5389 9.79696 81.5389H9.02708L8.23197 80.1116C7.07085 78.0402 6.96988 77.8634 6.96988 77.8128C6.96988 77.7497 8.18148 77.5097 8.79991 77.4592C9.79696 77.3708 10.0746 77.3708 11.1979 77.4971ZM11.6396 82.9282C12.9269 83.1303 13.5706 83.3829 15.7414 84.4565C18.518 85.8333 19.2121 86.0101 21.9887 86.0101C24.7906 86.0101 25.4721 85.8333 28.2361 84.4439C30.5583 83.2819 31.6437 82.9535 33.4232 82.8398C35.8212 82.7009 37.3357 83.0798 40.2259 84.5576C42.7122 85.8207 43.4568 86.0101 46.2208 86.0101C48.9848 86.0101 49.7042 85.8333 52.3419 84.5197C54.4244 83.484 55.3836 83.1556 56.9486 82.9156C59.2329 82.5872 61.3406 83.0167 64.0794 84.3808C66.2754 85.4796 67.8278 85.9343 69.7587 86.048C72.182 86.1869 74.3275 85.6943 76.6371 84.4818C79.7671 82.8398 82.4301 82.4483 85.396 83.1935C86.0144 83.3451 87.1629 83.8124 88.3114 84.3808C90.6715 85.5554 92.0725 85.947 94.2811 86.048C95.1267 86.0859 95.8209 86.1617 95.8209 86.1996C95.8209 86.2754 93.9908 88.4731 93.0821 89.4962L92.5773 90.0519L91.7696 89.8372C91.3278 89.7109 90.0279 89.1678 88.8794 88.612C86.4814 87.45 85.295 87.1216 83.2505 87.0079C80.7894 86.8816 78.5934 87.3868 76.2964 88.6246C73.3936 90.1782 70.5539 90.595 67.7015 89.8624C67.1715 89.7361 65.7958 89.1678 64.6473 88.6246C62.2241 87.4626 61.0125 87.109 59.0184 87.0079C56.4437 86.869 54.5632 87.3237 51.774 88.7636C49.4644 89.9382 48.5683 90.1656 46.2208 90.1656C43.6335 90.1656 43.0782 90.0014 39.7211 88.2584C39.1657 87.9679 38.2066 87.5889 37.5755 87.3995C36.528 87.0711 36.2756 87.0458 34.1679 87.0458C31.3029 87.0458 30.6466 87.21 27.8574 88.612C25.5604 89.7614 24.4372 90.1024 22.5567 90.2161C20.3354 90.3424 18.3034 89.8372 16.2588 88.6499C15.7161 88.3341 14.7696 87.9047 14.1764 87.6774L13.091 87.2858L11.7027 85.4291C10.9455 84.406 10.2134 83.3956 10.0872 83.1935L9.86006 82.8019H10.3397C10.6047 82.8019 11.1853 82.8651 11.6396 82.9282ZM37.5124 88.7131C38.1687 88.9404 39.1657 89.3699 39.7211 89.6982C41.6521 90.8097 43.2549 91.3023 45.3752 91.4665C47.8237 91.6434 50.1585 91.1002 52.5691 89.8119C54.7147 88.6752 56.3049 88.2331 58.3368 88.2331C60.4067 88.2331 61.694 88.5868 64.3318 89.8877C66.3385 90.8729 67.4113 91.2013 69.2539 91.3908C71.7655 91.6686 74.0877 91.176 76.7886 89.7993C77.672 89.3572 78.8963 88.8394 79.5021 88.6499C80.5117 88.3468 80.802 88.3089 82.5689 88.3089C85.0048 88.3089 85.8756 88.5236 88.16 89.6856C89.0434 90.1403 90.1667 90.6455 90.6589 90.8097L91.5298 91.1002L90.1415 92.4517C89.359 93.1843 88.6901 93.7906 88.6396 93.7906C88.5765 93.7906 88.16 93.6264 87.7056 93.4116C86.0018 92.6412 85.0174 92.4644 82.5058 92.477C80.4108 92.477 80.1457 92.5022 79.0982 92.818C78.4798 93.0075 77.2808 93.5127 76.4478 93.9421C73.9363 95.2178 72.6615 95.5589 70.4024 95.5589C68.4083 95.5589 66.9695 95.1799 64.8997 94.1316C62.0726 92.6791 60.5707 92.3254 57.7437 92.4391C55.535 92.5149 54.3613 92.8433 52.0264 94.0305C49.4013 95.3694 48.8964 95.4957 46.1577 95.4957C43.9995 95.4957 43.8355 95.4704 42.8763 95.142C42.321 94.94 41.2356 94.4474 40.4531 94.0305C38.0425 92.7422 36.7173 92.4012 34.1805 92.4012C31.4796 92.4012 30.3059 92.7043 27.7312 94.0432C25.5983 95.1547 24.6896 95.4452 22.9353 95.521L21.5344 95.5967L20.2849 94.5358C19.5908 93.9674 18.0889 92.5528 16.9404 91.416C15.0346 89.5341 14.921 89.3825 15.5521 89.7488C16.7258 90.4182 17.584 90.7719 18.783 91.075C22.0266 91.9086 25.3585 91.4665 28.2992 89.8246C30.6088 88.5236 31.7951 88.2331 34.4203 88.2836C36.1493 88.3215 36.4144 88.3594 37.5124 88.7131ZM36.6289 93.8664C37.727 94.1063 38.623 94.4726 39.9104 95.1926C42.2326 96.5061 43.8228 96.8851 46.713 96.784C49.1489 96.7209 50.2469 96.4177 52.4681 95.2431C54.9797 93.9169 57.1252 93.4243 59.3718 93.6643C61.0125 93.8285 61.9212 94.1063 63.89 95.0789C64.8997 95.5715 66.023 96.0767 66.389 96.203C67.5248 96.5946 69.0141 96.8219 70.4529 96.8219C72.813 96.8219 74.6304 96.3419 76.9526 95.1168C78.4924 94.2958 79.8807 93.8537 81.4078 93.6769C83.1874 93.4748 85.3329 93.7779 86.8979 94.4474L87.5037 94.7126L87.2387 94.9905C87.0998 95.142 86.229 95.8115 85.3077 96.4935L83.6417 97.7061L82.2534 97.7566C79.9438 97.845 78.6565 98.2113 76.1702 99.4617C75.3119 99.8785 74.1256 100.384 73.5198 100.573C72.5353 100.864 72.2072 100.902 70.516 100.914C68.1433 100.914 67.2977 100.7 64.8366 99.487C62.0474 98.0976 60.8484 97.7945 58.3368 97.7818C55.9515 97.7818 54.4875 98.1608 52.2157 99.348C49.6158 100.712 48.1266 101.078 45.615 100.952C43.684 100.864 42.6617 100.561 40.6045 99.4743C38.6483 98.4513 37.2726 97.9966 35.5309 97.7945C33.032 97.5166 30.2175 98.0471 28.2234 99.1586L27.4536 99.588L26.2546 98.8554C25.5857 98.4513 24.6391 97.8324 24.1469 97.4787L23.2382 96.8472L23.9071 96.7588C25.207 96.5819 26.7342 96.0388 28.3623 95.1799C30.1292 94.2453 31.3156 93.8285 32.6786 93.6643C33.7514 93.5253 35.5435 93.6264 36.6289 93.8664ZM36.8814 99.2849C37.3357 99.3986 38.6735 99.9669 39.8473 100.561C42.7753 102 43.419 102.177 46.2208 102.177C48.9848 102.177 49.7042 102 52.3419 100.687C54.4244 99.6512 55.3836 99.3228 56.9486 99.0828C59.2456 98.7544 61.3154 99.1712 64.0794 100.548C66.288 101.647 67.8404 102.102 69.7587 102.215C72.182 102.354 74.3275 101.862 76.6371 100.649C78.0633 99.9038 79.7292 99.2975 80.7389 99.1586C81.5593 99.0449 81.4583 99.1333 79.7292 100.106C75.9051 102.24 71.3868 104.047 67.1336 105.158L66.023 105.449L64.2939 104.615C62.2619 103.63 60.9872 103.289 59.0184 103.175C56.4816 103.036 54.5127 103.504 51.9633 104.842C49.3129 106.219 48.0635 106.497 45.8422 106.156C42.8384 105.689 41.3113 105.297 40.289 104.703C39.0395 103.996 37.2852 103.415 35.7076 103.2C35.0008 103.112 34.1931 102.935 33.9155 102.821C32.7291 102.316 30.3185 101.179 29.5739 100.763L28.7661 100.321L29.1952 100.093C29.7506 99.7901 31.4291 99.247 32.2621 99.0954C33.1834 98.9312 35.9096 99.0449 36.8814 99.2849ZM60.3814 104.577C61.429 104.779 62.2493 105.044 63.259 105.499C63.9279 105.815 63.9405 105.828 63.6124 105.916C63.0192 106.093 59.4854 106.535 57.7058 106.674C55.6865 106.825 51.3954 106.838 51.3954 106.699C51.3954 106.56 53.7681 105.322 54.6263 105.019C56.368 104.413 58.6019 104.236 60.3814 104.577Z" fill="black"/>
<path d="M16.3142 39.1872C16.0785 39.3677 16.0655 39.6128 16.0262 46.6673L16 53.954L16.5498 54.3151C17.9898 55.205 20.2022 55.8756 22.1528 55.9788C23.5143 56.0562 24.5616 55.9272 26.0409 55.5016L26.9965 55.2179V53.9798C26.9965 52.0324 27.2583 52.1613 23.2525 52.1613H19.9273V45.713C19.9273 39.4838 19.9142 39.2646 19.6786 39.1356C19.2728 38.9292 16.6284 38.9679 16.3142 39.1872Z" fill="black"/>
<path d="M28.3611 39.3372L28.0504 39.6744L28.0115 46.872C27.9856 53.7196 27.9856 54.0697 28.2058 53.9919C28.3352 53.953 29.0215 53.7196 29.7337 53.4602C30.4458 53.2138 31.158 53.0063 31.3134 53.0063C32.0385 53.0063 31.9996 53.4083 31.9996 46.3274V39.8041L31.663 39.402C31.3263 39 31.3263 39 30.0056 39C28.7496 39 28.659 39.013 28.3611 39.3372Z" fill="black"/>
<path d="M54.1551 39.3092C53.9928 39.5926 53.9812 40.2625 54.016 45.3382C54.0624 50.8003 54.074 51.0837 54.3174 51.8824C54.6999 53.1578 54.6187 53.1063 55.801 52.8615C56.3689 52.7456 57.3194 52.6554 57.9221 52.6554H59L58.548 52.1658C57.6207 51.161 57.6555 51.38 57.5859 44.8615C57.5512 41.6667 57.5048 39.0515 57.4932 39.0258C57.4816 39.0129 56.763 39 55.9053 39C54.3753 39 54.3406 39.0129 54.1551 39.3092Z" fill="black"/>
<path d="M64.6212 39.2667C64.4539 39.523 64.43 40.2405 64.43 44.9297C64.43 48.6324 64.3821 50.4517 64.2865 50.7848C64.0834 51.5407 63.4022 52.2966 62.5776 52.7066C61.98 53.0013 61.8963 53.0782 62.0995 53.1551C63.0197 53.5138 63.5695 53.77 64.657 54.3466C65.3382 54.7053 65.9955 55 66.115 55C66.5931 55 67.4416 53.5138 67.7762 52.1045C68.0033 51.1564 68.0152 50.7336 67.9913 45.0706L67.9555 39.0489L66.378 39.0105C64.8602 38.9849 64.8004 38.9849 64.6212 39.2667Z" fill="black"/>
<path d="M72.1419 39.2304C72.0387 39.3992 72 42.218 72 47.7386V56H72.4903C73.1742 56 74.8774 55.5454 75.4968 55.1946L76 54.9089L75.9871 47.3099C75.9742 43.1273 75.9355 39.5551 75.8839 39.3733C75.7935 39.0485 75.7935 39.0485 74.0387 39.0096C72.4 38.9836 72.2581 38.9966 72.1419 39.2304Z" fill="black"/>
<path d="M79.6807 39.1189C78.9874 39.403 79 39.2738 79 46.4526V53.0891L79.3025 53.0116C79.9328 52.8567 81.3697 52.6759 82.126 52.6759H82.9075V47.4468V42.2177H84.2689C86.3361 42.2177 87.4831 42.6308 88.5798 43.767C90.5209 45.7425 90.5714 49.0995 88.7058 51.1782C88.1386 51.8109 86.9411 52.4952 86.1974 52.6114C85.063 52.8051 85.063 52.8051 86.5 53.3086C87.2689 53.5668 88.3907 54.0575 89.0209 54.3932L90.1554 55L90.6344 54.6514C91.4033 54.1091 92.6386 52.663 93.0923 51.8109C94.315 49.4352 94.3024 46.104 93.0545 43.6637C91.9201 41.443 89.9663 39.8549 87.6218 39.248C86.7647 39.0156 86.2353 38.9898 83.2983 39.0027C81.458 39.0027 79.8193 39.0543 79.6807 39.1189Z" fill="black"/>
</svg>
