<svg width="115" height="115" viewBox="0 0 115 115" fill="none" xmlns="http://www.w3.org/2000/svg">
<path d="M56.9001 0C27.7999 0 29.616 12.591 29.616 12.591L29.6518 25.6359H57.4195V29.5493H18.6157C18.6157 29.5493 0 27.4407 0 56.7399C0 86.0319 16.2515 84.9955 16.2515 84.9955H25.9516V71.4002C25.9516 71.4002 25.4286 55.1852 41.9452 55.1852H69.4837C69.4837 55.1852 84.9579 55.4354 84.9579 40.264V15.1785C84.9579 15.1785 87.3077 0 56.9001 0ZM41.587 8.77045C44.3488 8.77045 46.5839 11.0006 46.5839 13.7561C46.5839 16.5116 44.3488 18.7417 41.587 18.7417C40.9306 18.7427 40.2804 18.6144 39.6737 18.3642C39.067 18.1139 38.5158 17.7467 38.0516 17.2836C37.5874 16.8204 37.2194 16.2704 36.9686 15.6651C36.7178 15.0598 36.5892 14.4111 36.5901 13.7561C36.5901 11.0006 38.8253 8.77045 41.587 8.77045Z" fill="url(#paint0_linear_1307_73)"/>
<path d="M58.0999 115C87.2001 115 85.384 102.26 85.384 102.26L85.3482 89.0614H57.5805V85.1018H96.3808C96.3808 85.1018 115 87.2353 115 57.5938C115 27.9523 98.7485 29.0046 98.7485 29.0046H89.0484V42.7568C89.0484 42.7568 89.5714 59.1632 73.0548 59.1632H45.5163C45.5163 59.1632 30.0421 58.9101 30.0421 74.2606V99.6423C30.0421 99.6423 27.6923 115 58.0999 115ZM73.413 106.126C72.7565 106.127 72.1063 105.997 71.4996 105.744C70.893 105.491 70.3417 105.119 69.8775 104.651C69.4133 104.182 69.0453 103.626 68.7945 103.013C68.5437 102.401 68.4151 101.744 68.4161 101.081C68.4161 98.2971 70.6512 96.0406 73.413 96.0406C76.1747 96.0406 78.4099 98.2934 78.4099 101.081C78.4099 103.873 76.1747 106.126 73.413 106.126Z" fill="url(#paint1_linear_1307_73)"/>
<defs>
<linearGradient id="paint0_linear_1307_73" x1="11.0147" y1="9.9427" x2="67.5646" y2="66.81" gradientUnits="userSpaceOnUse">
<stop/>
<stop offset="1"/>
</linearGradient>
<linearGradient id="paint1_linear_1307_73" x1="46.2578" y1="46.4706" x2="107.683" y2="104.763" gradientUnits="userSpaceOnUse">
<stop/>
<stop offset="1"/>
</linearGradient>
</defs>
</svg>
