<svg width="62" height="93" viewBox="0 0 62 93" fill="none" xmlns="http://www.w3.org/2000/svg">
<path d="M27.9566 0.0851974C24.3144 0.430367 20.3905 1.57488 17.0843 3.23716C9.55448 7.05222 3.95935 13.6014 1.40702 21.6039C0.825712 23.4297 0.416976 25.3645 0.153569 27.5082C-0.0280909 28.9979 -0.0553399 32.4314 0.108154 33.9575C0.625886 38.9079 2.17 43.3498 4.88582 47.7189C5.19464 48.2185 6.00303 49.5901 6.67517 50.7619C9.49998 55.6851 19.9273 73.843 23.6876 80.374C24.2508 81.3459 25.259 83.1081 25.9311 84.2799C26.6033 85.4516 27.884 87.6771 28.7832 89.2304C29.6733 90.7836 30.5181 92.2642 30.6634 92.5186C30.8087 92.782 30.954 93 30.9995 93C31.0449 93 31.1902 92.782 31.3355 92.5186C31.4809 92.2642 32.3256 90.7836 33.2157 89.2304C34.1149 87.6771 35.3956 85.4516 36.0678 84.2799C36.7399 83.1081 37.7481 81.3459 38.3113 80.374C40.0734 77.3128 50.8367 58.5737 52.508 55.6669C56.1049 49.3903 56.5863 48.5728 57.3402 47.3102C59.3203 44.0038 60.3194 41.6239 61.155 38.2449C61.7636 35.7651 62.0088 33.6759 61.9998 30.8237C61.9907 25.8822 60.9461 21.4858 58.7299 17.0622C54.3155 8.25124 45.9592 2.04723 36.2676 0.403114C35.541 0.275948 34.4782 0.139694 33.906 0.0851974C32.698 -0.0328903 29.1556 -0.0238037 27.9566 0.0851974ZM32.916 11.7029C40.4912 12.466 46.9855 17.6708 49.3925 24.9103C50.5643 28.4438 50.6732 32.4042 49.7104 36.0285C48.0846 42.1053 43.3705 47.2011 37.4484 49.254C35.1776 50.0534 33.4791 50.3349 30.9995 50.3349C27.2754 50.3349 24.051 49.4448 20.9991 47.5645C13.9052 43.2135 10.4174 35.2382 12.0251 27.054C13.3239 20.4594 18.4377 14.7277 24.9048 12.6113C27.5752 11.7393 30.2365 11.4395 32.916 11.7029Z" fill="black"/>
</svg>
