<svg width="110" height="110" viewBox="0 0 110 110" fill="none" xmlns="http://www.w3.org/2000/svg">
<path d="M44.0152 0.807495C22.6832 5.47591 6.4686 21.2678 1.29372 42.4198C-0.43124 49.6242 -0.43124 60.5171 1.29372 67.6062C6.6986 89.3345 23.5457 105.299 45.5102 109.507C50.9726 110.544 64.4273 109.853 69.8322 108.296C87.5417 103.167 102.376 88.7006 107.666 71.3525C110.484 62.2462 110.771 50.431 108.414 41.1518C106.804 34.8697 101.686 24.7836 97.374 19.6541C89.3817 10.0291 77.8245 3.17052 65.3473 0.749855C60.0574 -0.287567 48.9026 -0.229935 44.0152 0.807495ZM58.9649 16.0231C59.8849 16.9452 60.6324 18.2132 60.6324 18.7896C60.6324 19.3659 61.4373 20.3457 62.3573 20.922C64.1973 21.9595 67.8772 26.5702 69.5447 29.8554C71.3846 33.4864 73.2821 39.9415 74.1446 45.1863C76.2145 57.693 74.0296 78.3263 70.6946 78.3263C69.2572 78.3263 69.1422 77.0007 70.0621 73.3697C74.4895 56.7709 71.0971 34.7544 62.7023 25.5328L60.2299 22.7663L58.6199 24.0343C54.825 27.0313 49.7076 24.6683 49.7076 19.827C49.7076 14.8704 55.4575 12.5074 58.9649 16.0231ZM44.2452 31.6421C45.2227 32.0455 45.6827 32.5643 45.5677 33.2559C45.3952 34.1204 44.5902 34.2357 38.4954 34.2357C32.2855 34.2357 31.308 34.3509 28.7781 35.6765C24.6957 37.7514 23.5457 39.5381 23.6032 43.9183C23.6032 46.339 24.0632 48.4715 24.9832 50.5463C25.9607 52.9093 26.1332 53.7739 25.6157 54.2926C23.6607 56.2522 20.4408 49.7971 20.3833 43.8607C20.3833 37.809 23.0857 34.0628 29.0081 31.9879C31.998 31.0081 41.8878 30.7199 44.2452 31.6421ZM80.6994 31.9879C84.1493 32.9677 87.6567 35.9071 89.0942 38.9617C91.3367 43.6301 88.6917 52.967 83.4593 59.0186C81.7344 61.0358 81.3894 61.2088 80.5269 60.5171C79.2619 59.4797 79.3194 59.2492 81.3894 56.6556C82.3669 55.3876 83.8043 53.1975 84.5518 51.699C89.3242 42.2469 86.5068 35.9647 76.7895 34.3509C72.4196 33.6017 71.8446 33.2559 72.3046 31.9303C72.7646 30.7776 76.732 30.7776 80.6994 31.9879ZM65.8072 32.5643C66.9572 33.8899 65.6922 34.7544 60.6324 36.2529C43.2103 41.3824 25.5007 56.598 23.4882 68.0673C23.2007 69.7963 23.3157 70.2574 24.0057 70.2574C25.4432 70.2574 28.3181 73.0239 28.7206 74.8682C29.4681 78.3839 25.6157 82.2455 22.1082 81.4962C20.0383 81.0351 17.5083 78.1534 17.5083 76.2514C17.5083 74.6377 19.0033 71.4101 19.7508 71.4101C20.0383 71.4101 20.3833 70.0269 20.4983 68.2978C21.5333 55.5029 40.5653 38.8465 60.9199 32.7372C65.2323 31.4692 64.9448 31.4692 65.8072 32.5643ZM57.9299 54.8113C58.4474 55.4453 58.9074 56.4251 58.9074 57.0014C58.9074 58.327 57.2399 60.2866 55.6875 60.69C53.905 61.2088 51.4326 59.0763 51.4326 57.0014C51.4326 55.9064 51.9501 54.9266 52.985 54.1773C54.71 52.7941 56.32 53.0246 57.9299 54.8113ZM34.298 62.592C42.1753 69.7963 52.8125 75.7327 62.7023 78.3839C68.0497 79.8248 76.5595 80.113 79.6644 79.0179C81.4469 78.3839 81.6769 78.0957 81.4469 76.8854C80.8719 73.6002 83.8043 70.2574 87.3118 70.2574C89.2092 70.2574 92.0266 72.7357 92.4291 74.6953C93.1766 78.6145 89.1517 82.5913 85.6443 81.3809C84.4943 81.0351 83.2293 81.1504 81.1019 81.8996C70.8671 85.4154 52.3526 80.2859 38.5529 70.0269C33.148 65.9924 28.4331 61.7275 28.4331 60.8053C28.4331 60.1713 29.5256 58.7305 29.9856 58.7305C30.1006 58.7305 32.0555 60.4595 34.298 62.592ZM42.9803 81.4386C46.8327 89.5074 52.0651 93.5419 57.1249 92.1586C59.8274 91.467 62.8748 88.9887 64.6573 86.0493C65.9222 84.0321 67.7622 83.4558 68.2797 84.8967C68.7397 85.9917 65.5772 90.6601 63.2773 92.4468C58.7349 95.9049 54.25 96.4812 49.7651 94.1759C46.1427 92.3892 43.2103 88.9311 40.4503 83.3405C38.2654 78.7297 38.0929 77.1736 39.9328 77.1736C40.6228 77.1736 41.6003 78.4992 42.9803 81.4386Z" fill="black"/>
<path d="M53.9023 17.8652C51.9256 19.7642 53.4372 22.584 56.1115 21.8934C58.03 21.4331 58.6114 19.4765 57.2742 18.0378C56.0534 16.7142 55.1232 16.6567 53.9023 17.8652Z" fill="black"/>
<path d="M21.293 74.6496C20.5372 76.2606 21.293 77.8197 22.9935 77.9756C24.9459 78.1835 26.2686 77.0402 25.9536 75.3772C25.8277 74.4417 25.3238 74.1299 23.6863 74.026C22.3637 73.922 21.5449 74.1299 21.293 74.6496Z" fill="black"/>
<path d="M84.3784 74.25C83.2958 76 84.6671 78 86.8322 78C89.1417 78 90.4408 76.5 89.8634 74.5625C89.5026 73.3125 88.9252 73 87.2652 73C85.894 73 84.8836 73.4375 84.3784 74.25Z" fill="black"/>
</svg>
