<svg width="120" height="121" viewBox="0 0 120 121" fill="none" xmlns="http://www.w3.org/2000/svg">
<g clip-path="url(#clip0_122_796)">
<g clip-path="url(#clip1_122_796)">
<path d="M89.0659 15.0801C91.8392 16.1467 95.4659 16.8934 95.1459 16.3601C94.6659 15.6134 92.8526 15.0801 89.8659 14.6534L87.1992 14.3334L89.0659 15.0801Z" fill="black"/>
<path d="M70.1332 20.0936C68.3732 20.3602 66.1332 21.3736 66.1332 21.8536C66.1332 22.4936 59.7866 36.7336 58.6666 38.6002C58.1332 39.4536 57.5466 41.0002 57.3332 42.0136C57.1199 42.9736 56.4799 44.8402 55.8932 46.1202C55.3599 47.4536 54.9332 48.9469 55.0399 49.4269C55.2532 50.4402 57.5999 45.7469 57.5999 44.2536C57.5999 43.7736 58.0799 42.3869 58.7199 41.2669C60.5332 37.7469 66.6666 23.9336 66.6666 23.3469C66.6666 23.0802 67.4666 22.4936 68.4266 22.1202C70.6132 21.2669 83.8399 21.0002 85.4932 21.8002L86.6666 22.3869L85.4932 21.3736C83.8399 19.9336 80.4266 19.5069 75.7332 20.2002C73.5999 20.5202 71.6799 20.5736 71.5199 20.3069C71.3599 20.0936 70.7199 19.9869 70.1332 20.0936Z" fill="black"/>
<path d="M87.519 23.2403C87.5723 24.2536 87.679 24.4136 87.839 23.7736C87.999 23.1336 88.3723 22.9203 88.9056 23.0803C89.599 23.347 89.6523 23.2936 89.0656 22.6003C88.0523 21.3736 87.4656 21.6403 87.519 23.2403Z" fill="black"/>
<path d="M101.118 25.7999C100.532 29.4266 99.7317 32.6266 98.8784 34.3866C98.185 35.8799 92.0517 41.4266 86.1317 46.0132C84.8517 47.0266 84.3717 47.7199 84.6917 48.0399C85.8117 49.1599 97.9184 38.6532 99.5717 35.1866C100.745 32.7332 102.185 25.5866 101.705 24.3066C101.598 23.9866 101.332 24.6266 101.118 25.7999Z" fill="black"/>
<path d="M47.465 27.0269C45.2784 28.1469 42.185 29.9069 40.585 30.9736C38.3984 32.4669 37.3317 32.8936 36.265 32.6269C35.1984 32.4669 34.6117 32.6269 34.0784 33.3736C33.6517 33.9603 32.905 34.5469 32.425 34.7603C31.8917 34.9203 31.465 35.4536 31.465 35.9336C31.465 36.3603 31.1984 36.7336 30.8784 36.7336C30.6117 36.7336 30.505 37.0003 30.665 37.2669C30.8784 37.5869 32.0517 36.8936 33.4917 35.6669C35.4117 33.9603 36.2117 33.5336 37.225 33.8003C38.185 34.0136 39.305 33.6403 41.3317 32.2536C42.8784 31.2403 45.7584 29.5869 47.8384 28.5736C51.5717 26.6536 53.6517 25.0003 52.2117 25.0003C51.785 25.0003 49.6517 25.9069 47.465 27.0269Z" fill="black"/>
<path d="M68.2662 56.4667C65.9195 56.7867 59.1995 59.0267 58.6662 59.6667C58.3995 59.9867 53.3862 61.1067 50.0795 61.64L48.1595 61.9067L41.5462 75.5067C34.0262 90.9733 34.3995 90.0667 35.0929 90.0667C35.4129 90.0667 38.6129 84.04 42.1862 76.7333C47.8395 65.16 48.9062 63.3467 50.0795 63.08C54.0262 62.28 56.7462 61.48 61.5995 59.7733C67.9995 57.48 74.0262 56.8933 76.7462 58.3333C77.6529 58.76 78.3995 58.9733 78.3995 58.7067C78.3995 58.0667 74.7729 56.5733 72.5329 56.36C71.5195 56.2 69.5995 56.3067 68.2662 56.4667Z" fill="black"/>
<path d="M91.3056 58.9202C91.2523 59.8269 90.4523 62.1202 89.4923 63.9869C87.4656 68.0402 81.0123 74.7602 75.7323 78.3336C73.8123 79.6136 69.8123 82.5469 66.7723 84.7869C63.7323 87.0802 60.5856 89.1069 59.7323 89.2669C58.9323 89.4269 57.8656 90.0136 57.3323 90.6002C56.479 91.5602 56.5323 91.5602 58.7723 91.0802C61.2256 90.5469 61.8656 90.1202 73.3856 81.8536C85.8656 72.8936 92.1056 65.3202 91.5723 59.6136C91.4656 57.9602 91.359 57.7469 91.3056 58.9202Z" fill="black"/>
<path d="M57.9722 85.2134C53.9189 87.5601 50.8255 89.5868 51.0922 89.7468C51.3055 89.8534 52.2122 89.5334 53.1189 88.9468C53.9722 88.3601 56.7455 86.8134 59.2522 85.4801C61.8122 84.1468 64.3189 82.6001 64.7989 82.0668C65.3322 81.4801 65.6522 81.0001 65.5455 81.0001C65.4389 81.0534 62.0255 82.9201 57.9722 85.2134Z" fill="black"/>
<path d="M40.4254 92.3601C39.3054 92.8401 39.1454 93.1068 39.6788 93.6401C40.4788 94.3335 41.2788 93.9601 41.7588 92.5735C41.9188 92.0935 42.0254 91.6668 41.9721 91.6668C41.9188 91.7201 41.2254 91.9868 40.4254 92.3601Z" fill="black"/>
<path d="M54.7192 92.3067C54.2392 92.5734 52.3726 93.1067 50.5059 93.5334C47.4659 94.2267 38.2926 97.7467 34.2392 99.8801C33.2792 100.36 32.3192 100.627 32.0526 100.52C30.7726 99.7201 28.3192 101.48 26.0792 104.787C23.3059 108.893 21.8126 111.507 22.1326 111.827C22.4526 112.2 24.7992 109.32 27.0392 105.747L29.0659 102.493L34.1859 100.84C37.0126 99.9334 41.5459 98.2801 44.3192 97.1067C47.0926 95.9334 50.3992 94.8134 51.7326 94.6534C53.0659 94.4401 54.9326 93.8534 55.9459 93.3201C57.4926 92.4667 57.5992 92.3067 56.6926 92.0934C56.1059 91.9334 55.1992 92.0401 54.7192 92.3067Z" fill="black"/>
<path d="M35.7318 95.4535C35.0384 95.7735 33.8118 95.9335 33.0651 95.8268C31.3051 95.6668 30.3984 96.2535 30.3984 97.6401C30.3984 98.7068 30.4518 98.7068 31.3584 97.9068C31.8918 97.3735 32.9584 97.0001 33.7051 97.0001C35.0918 97.0001 38.9318 95.6135 38.9318 95.1335C38.9318 94.7068 37.1718 94.8668 35.7318 95.4535Z" fill="black"/>
<path d="M25.385 98.0132C24.8516 98.5998 24.105 98.9198 23.6783 98.7598C23.2516 98.5998 22.9316 98.7065 22.9316 99.0265C22.9316 99.2932 23.5183 99.6665 24.265 99.8265C25.225 99.9865 25.8116 99.7732 26.185 99.0265C27.0383 97.4798 26.505 96.7865 25.385 98.0132Z" fill="black"/>
<path d="M20.3726 101.853C18.6126 102.493 18.8793 103.613 20.6926 103.187C21.4926 102.973 22.5593 102.76 23.0926 102.707C23.5726 102.653 23.9993 102.493 23.9993 102.28C23.9993 101.693 21.5993 101.427 20.3726 101.853Z" fill="black"/>
<path d="M72.5342 10.2265C72.3742 10.3865 71.3609 10.6532 70.2409 10.8132C66.6675 11.3998 57.4409 13.9598 54.4009 15.2398C53.9742 15.3998 53.4942 15.6132 53.3342 15.6665C49.8142 16.7332 48.3209 17.3732 46.8809 18.6532C45.8675 19.5065 44.9075 20.1998 44.6409 20.1998C43.8942 20.1998 40.0009 22.8665 40.0009 23.3998C40.0009 23.7198 40.3742 23.9332 40.9075 23.9332C41.7075 23.9332 41.6542 24.0398 40.8009 24.9998C40.3209 25.5332 38.7209 26.8132 37.2809 27.7732C35.8409 28.7332 34.6675 29.7999 34.6675 30.1732C34.6675 30.5465 34.2942 30.7065 33.7609 30.4932C33.1209 30.2265 32.9609 30.3865 33.1742 30.9732C33.3875 31.4532 33.2275 32.0932 32.9075 32.4132C32.1609 33.1599 30.7742 33.2132 31.2009 32.4665C31.7875 31.5598 31.2009 31.8798 29.3342 33.5332C28.3742 34.3865 27.7875 35.1332 28.1075 35.1332C28.4275 35.1332 28.9609 34.7598 29.3342 34.3332C29.7075 33.9065 30.1875 33.6932 30.5075 33.8532C30.7742 34.0132 30.7209 34.4932 30.3475 34.9198C29.2275 36.3065 30.4542 35.6665 32.6942 33.7465C34.3475 32.3598 35.3075 31.9332 36.2675 32.1465C37.2275 32.3065 38.6142 31.7198 41.0142 30.2265C44.8542 27.8265 51.6275 24.4665 52.6409 24.4665C53.6009 24.4665 53.4942 25.1599 52.3742 26.3865C51.8409 26.9198 51.5209 27.7732 51.6275 28.2532C51.7342 28.7332 50.9875 31.1332 50.0275 33.5865C49.0675 36.0398 48.2675 38.1732 48.2675 38.3332C48.2142 38.4932 47.8942 39.2932 47.4675 40.1999C47.0942 41.0532 46.5075 42.4932 46.1342 43.3998C45.7609 44.2532 44.9609 46.0665 44.3209 47.3998C41.8675 52.7865 40.5342 55.8798 39.4675 58.5998C38.4009 61.3199 37.8142 62.5465 33.8142 71.1332C30.9875 77.2132 23.6809 91.7199 21.9209 94.8665C21.0142 96.4665 20.0009 98.3865 19.7342 99.1332C19.4142 99.8265 18.8809 100.627 18.5075 100.84C17.3342 101.533 18.7209 102.013 20.2142 101.427C22.0809 100.733 24.5342 101.107 24.5342 102.12C24.5342 102.493 23.7875 104.307 22.8809 106.067C21.9742 107.88 21.3342 109.48 21.5475 109.64C21.9742 110.067 24.2675 107.24 26.2409 103.88C28.0009 100.84 28.0009 100.84 32.6409 99.4532C35.2009 98.7065 39.8409 96.9999 42.9342 95.6665C45.9742 94.3332 49.0142 93.2665 49.6009 93.2665C50.1342 93.2665 52.0009 92.7332 53.7075 92.0932C56.1609 91.1865 56.5875 90.8665 55.7342 90.5998C54.7742 90.2265 54.8809 90.1199 56.2675 89.7999C60.2142 88.8932 61.5475 88.1465 66.7742 84.2532C69.7609 82.0132 73.7609 79.1332 75.6275 77.8532C82.8275 72.9999 88.0009 67.1865 90.1342 61.4799C91.5742 57.6399 91.1475 56.1465 87.4142 51.7198C85.6542 49.6932 84.2675 47.7732 84.2675 47.4532C84.2675 47.1865 85.0142 46.3865 85.8675 45.6932C92.7475 40.4132 97.7075 35.7732 98.6142 33.8532C100.054 30.8665 101.014 25.1599 100.588 22.2265C99.8942 17.4799 92.8009 12.1998 85.2809 10.9198C82.5609 10.4398 72.8542 9.90652 72.5342 10.2265ZM93.8675 15.2932C95.0942 15.8798 95.7875 16.6265 95.8942 17.4265C96.1075 18.6532 96.0542 18.6532 94.4542 17.7999C93.5475 17.3732 92.6942 16.9998 92.5342 16.9465C92.3742 16.9465 91.2009 16.5199 89.8142 15.9332C88.4809 15.3465 87.1475 14.8665 86.9342 14.8665C86.6675 14.8665 86.2942 14.5998 86.0809 14.2798C85.5475 13.3732 91.5209 14.1732 93.8675 15.2932ZM85.3342 20.6265C86.0809 21.1065 87.0409 21.4265 87.5209 21.3732C88.8542 21.1599 91.3075 24.3598 90.8809 25.7465C90.4009 27.2932 89.6009 28.1999 88.7475 28.1999C88.3209 28.1999 88.0009 28.4665 88.0009 28.7865C88.0009 29.7465 83.0942 35.7732 82.0809 36.0398C81.5475 36.1999 80.9609 36.7865 80.8009 37.3198C80.5875 37.8532 80.3209 38.3332 80.1075 38.3332C79.8942 38.3332 79.0409 39.0265 78.1342 39.8265C75.8409 41.9065 71.5742 44.5199 69.0675 45.2665C67.1475 45.9065 65.9209 46.3865 60.5342 48.6798C54.5075 51.2932 53.1209 50.5998 55.4675 46.1732C56.0542 45.1065 56.5342 43.7732 56.5342 43.2398C56.5342 42.7598 57.4409 40.4132 58.5609 38.0665C59.6809 35.7198 61.9209 30.8665 63.5209 27.2398C66.1342 21.3198 66.5609 20.6798 68.1609 20.1465C69.1209 19.8265 70.7209 19.7198 71.6275 19.8798C72.5875 20.0398 74.6675 19.9332 76.2675 19.7198C79.9475 19.1332 83.5742 19.5065 85.3342 20.6265ZM96.4275 22.5998C96.8009 23.3465 97.0675 24.2532 97.0675 24.6265C97.0142 25.5332 94.9342 22.9198 94.9342 22.0132C94.9342 20.7865 95.7875 21.1599 96.4275 22.5998ZM54.4009 32.0932C54.4009 32.8399 53.3342 34.0665 52.6942 34.0665C52.4809 34.0665 52.5875 33.4799 52.9075 32.7332C53.5475 31.2932 54.4009 30.9198 54.4009 32.0932ZM51.2009 39.1332C51.2009 39.5598 50.9875 39.9332 50.6675 39.9332C50.4009 39.9332 50.1342 39.5598 50.1342 39.1332C50.1342 38.7065 50.4009 38.3332 50.6675 38.3332C50.9875 38.3332 51.2009 38.7065 51.2009 39.1332ZM49.6542 42.2265C48.8009 43.0798 48.2675 42.2265 49.1209 41.2132C49.6009 40.6265 49.9209 40.5732 50.0275 40.9998C50.1342 41.3198 49.9742 41.9065 49.6542 42.2265ZM46.9342 48.5732C46.9342 49.5865 46.8275 49.6399 46.4009 48.9998C45.7075 47.9865 45.7075 47.3998 46.4009 47.3998C46.7209 47.3998 46.9342 47.9332 46.9342 48.5732ZM83.6809 48.9465C84.0542 49.2132 84.2142 49.6932 84.0542 50.0132C83.6275 50.7065 81.6009 49.8532 81.6009 48.9998C81.6009 48.3598 82.6675 48.3065 83.6809 48.9465ZM54.9342 52.7332C54.9342 52.9998 54.5609 53.2665 54.1342 53.2665C53.7075 53.2665 53.3342 52.9998 53.3342 52.7332C53.3342 52.4132 53.7075 52.1998 54.1342 52.1998C54.5609 52.1998 54.9342 52.4132 54.9342 52.7332ZM78.1875 55.0798C79.3609 55.9865 78.7742 56.9465 77.4942 56.1465C76.4809 55.5065 75.9475 54.3332 76.6409 54.3332C76.9075 54.3332 77.6009 54.6532 78.1875 55.0798ZM76.6409 57.0532C78.6142 58.0132 78.9342 58.3865 78.8275 59.6132C78.6142 61.1065 75.7342 67.1332 75.1475 67.1332C74.9875 67.1332 74.3475 67.5598 73.7075 68.0398C73.1209 68.5732 71.9475 69.4799 71.1475 70.0665C69.6542 71.1865 66.6142 73.5865 66.1342 74.0665C65.5475 74.6532 62.5609 76.6265 60.9609 77.4265C60.0542 77.9065 58.9875 78.5998 58.5609 78.9732C57.4942 79.9865 56.0009 80.7865 47.4675 84.9998C38.8809 89.2665 34.8275 90.9198 34.2942 90.3865C33.8142 89.9065 47.8409 61.7999 48.6409 61.5865C49.0142 61.4799 50.7742 61.0532 52.5342 60.6798C55.5742 60.0398 65.5475 56.7332 66.0809 56.1998C66.1875 56.0398 68.1075 55.9332 70.3475 55.9332C73.3342 55.9332 74.9342 56.1998 76.6409 57.0532ZM35.0942 82.1732L34.4009 83.3998L34.2409 82.1732C34.0275 80.6798 35.3609 78.6532 35.6275 80.0932C35.7342 80.5732 35.4675 81.4798 35.0942 82.1732ZM64.3742 82.8132C63.6275 83.4532 62.0809 84.4132 60.9609 84.9998C59.8409 85.5865 57.2809 87.0265 55.2009 88.2532C53.1742 89.4798 50.8809 90.6532 50.1342 90.8665C49.3875 91.0798 47.2542 91.9865 45.3875 92.8398C37.5475 96.5732 31.3075 99.0265 30.6142 98.7598C29.7075 98.4398 29.6542 96.8932 30.5075 96.0398C30.8809 95.6665 32.0009 95.3998 33.0142 95.3998C35.6275 95.3998 40.1075 94.0132 38.6675 93.6932C37.8675 93.4799 38.2409 93.1065 40.5342 92.0399C43.5742 90.5465 45.1209 90.2265 44.5342 91.1332C43.7875 92.3065 53.0675 87.8265 60.8009 83.2398C63.4675 81.6398 65.4409 80.7865 65.5475 81.1598C65.6542 81.4798 65.1209 82.2265 64.3742 82.8132ZM34.1342 84.0932C34.1342 84.7865 33.4942 85.2665 32.9609 84.9465C32.4275 84.6265 32.9075 83.6665 33.6542 83.6665C33.9209 83.6665 34.1342 83.8799 34.1342 84.0932ZM50.1342 87.9332C50.1342 88.5732 45.2809 90.7065 44.8542 90.2799C44.6942 90.0665 44.8009 89.8532 45.0675 89.7465C45.3875 89.6399 46.4542 89.1065 47.4675 88.5198C49.7075 87.3465 50.1342 87.2398 50.1342 87.9332ZM34.1342 93.2665C34.1342 93.5332 33.6542 93.7998 33.0142 93.7998C32.4275 93.7998 32.1075 93.5332 32.2675 93.2665C32.4275 92.9465 32.9609 92.7332 33.3875 92.7332C33.8142 92.7332 34.1342 92.9465 34.1342 93.2665ZM26.9342 98.1732C26.4009 99.8798 25.2809 100.627 23.6809 100.307C22.1875 100.04 22.0809 98.3332 23.5742 98.3332C24.1075 98.3332 24.8009 98.0132 25.1742 97.6398C26.2942 96.5198 27.3075 96.8398 26.9342 98.1732Z" fill="black"/>
</g>
</g>
<defs>
<clipPath id="clip0_122_796">
<rect width="120" height="120" fill="white" transform="translate(0 0.569336)"/>
</clipPath>
<clipPath id="clip1_122_796">
<rect width="120" height="120" fill="white" transform="translate(0 0.569336)"/>
</clipPath>
</defs>
</svg>
