<svg width="110" height="110" viewBox="0 0 110 110" fill="none" xmlns="http://www.w3.org/2000/svg">
<path d="M91.6667 0H18.3333C8.21792 0.0275 0.0275 8.21792 0 18.3333V91.6667C0 101.75 8.25 110 18.3333 110H91.6667C101.75 110 110 101.75 110 91.6667V18.3333C110 8.25 101.75 0 91.6667 0ZM81.6429 77.2521C80.7263 79.4613 79.2733 81.4092 77.4125 82.9079C75.4875 84.4663 73.0492 85.7496 70.0471 86.6663C67.0496 87.5967 63.4837 88.0642 59.3542 88.0642H29.8742V23.8975H61.05C66.8158 23.8975 71.4358 25.1946 74.8917 27.8392C78.375 30.4975 80.1075 34.4575 80.1075 39.8017C80.1075 43.0329 79.3192 45.8058 77.7333 48.0975C76.1567 50.3754 73.8833 52.1583 70.95 53.3958V53.6067C74.8642 54.4317 77.8938 56.2879 79.8875 59.1754C81.8813 62.0629 82.9033 65.7113 82.9033 70.1158C82.9033 72.5817 82.4267 74.9283 81.5283 77.1192L81.6429 77.2429V77.2521ZM68.9196 61.4396C67.0404 59.7208 64.4004 58.8821 60.9904 58.8821H41.1813V78.9021H61.0454C64.4371 78.9021 67.0954 78.0221 68.9746 76.2438C70.8538 74.4792 71.8163 71.9629 71.8163 68.7271C71.7842 65.5646 70.8538 63.1171 68.9746 61.4396H68.8967H68.9196ZM66.1696 48.5008C67.9846 46.9608 68.8738 44.7562 68.8738 41.8825C68.8738 38.6558 68.0717 36.3642 66.4446 35.0533C64.8313 33.7471 62.5029 33.0688 59.4412 33.0688H41.1079V50.7742H59.4412C62.1133 50.7742 64.3913 49.995 66.1513 48.5008H66.1696Z" fill="black"/>
</svg>
