<svg width="120" height="120" viewBox="0 0 120 120" fill="none" xmlns="http://www.w3.org/2000/svg">
<g clip-path="url(#clip0_122_633)">
<path d="M50.1495 73.6312C46.4422 70.142 44.2614 65.3443 44.2614 59.8924C44.2614 54.4405 46.4422 49.6428 49.9314 46.1536C52.9845 43.1005 52.9845 38.3028 49.9314 35.2498C46.8783 32.1967 42.0807 32.1967 39.0276 35.2498C32.9215 41.574 28.9961 50.297 28.9961 59.8924C28.9961 69.4877 32.9215 78.2108 39.2457 84.535C42.2987 87.5881 47.0964 87.5881 50.1495 84.535C52.9845 81.4819 52.9845 76.6843 50.1495 73.6312Z" fill="black"/>
<path d="M50.1487 46.1534C53.6379 42.4461 58.4356 40.2653 63.8875 40.2653C69.3394 40.2653 74.1371 42.4461 77.6263 45.9353C80.6794 48.9884 85.477 48.9884 88.5301 45.9353C91.5832 42.8823 91.5832 38.0846 88.5301 35.0315C82.2059 28.9254 73.4829 25 63.8875 25C54.2921 25 45.5691 28.9254 39.2449 35.2496C36.1918 38.3027 36.1918 43.1003 39.2449 46.1534C42.2979 48.9884 47.0956 48.9884 50.1487 46.1534Z" fill="black"/>
<path d="M77.6263 73.6311C74.1371 77.3384 69.3394 79.5192 63.8875 79.5192C58.4356 79.5192 53.6379 77.3384 50.1487 73.8492C47.0956 70.7961 42.2979 70.7961 39.2449 73.8492C36.1918 76.9023 36.1918 81.6999 39.2449 84.753C45.5691 90.8591 54.2921 94.7845 63.8875 94.7845C73.4829 94.7845 82.2059 90.8591 88.5301 84.5349C91.5832 81.4819 91.5832 76.6842 88.5301 73.6311C85.477 70.7961 80.6794 70.7961 77.6263 73.6311Z" fill="black"/>
<path d="M44.6971 48.3342C48.9125 48.3342 52.3298 44.9169 52.3298 40.7015C52.3298 36.4861 48.9125 33.0688 44.6971 33.0688C40.4817 33.0688 37.0645 36.4861 37.0645 40.7015C37.0645 44.9169 40.4817 48.3342 44.6971 48.3342Z" fill="black"/>
<path d="M44.6971 86.7155C48.9125 86.7155 52.3298 83.2983 52.3298 79.0829C52.3298 74.8675 48.9125 71.4502 44.6971 71.4502C40.4817 71.4502 37.0645 74.8675 37.0645 79.0829C37.0645 83.2983 40.4817 86.7155 44.6971 86.7155Z" fill="black"/>
</g>
<defs>
<clipPath id="clip0_122_633">
<rect width="120" height="120" fill="white"/>
</clipPath>
</defs>
</svg>
