<svg width="120" height="120" viewBox="0 0 120 120" fill="none" xmlns="http://www.w3.org/2000/svg">
<path d="M14.8208 35.8801C13.9208 36.9001 13.8008 39.7801 13.8008 64.6801C13.8008 91.6201 13.8608 92.4601 15.0008 93.6001C15.7808 94.3801 16.9808 94.8001 18.6008 94.8001H21.0008V101.46C21.0008 105.12 21.3008 108.6 21.6008 109.26C22.2008 110.28 22.9208 110.4 29.7008 110.4C36.4808 110.4 37.2008 110.28 37.8008 109.26C38.1008 108.6 38.4008 105.12 38.4008 101.46V94.8001H44.1608C48.5408 94.8001 49.8608 94.9801 49.6208 95.5201C49.5008 95.9401 48.9008 98.4001 48.3008 100.92L47.2208 105.54L44.1608 105.72L41.1008 105.9V108V110.1H55.4408C68.4608 110.1 69.8408 109.98 70.4408 109.02C71.5208 107.34 70.1408 105.96 67.1408 105.6L64.5008 105.3L63.4808 101.1C61.8608 94.2601 61.3808 94.8001 69.3008 94.8001H76.2008V101.28C76.2008 110.82 75.4808 110.4 92.2208 110.4H105.541L106.741 108.84C107.941 107.28 108.001 106.56 108.001 86.4001C108.001 66.2401 107.941 65.5201 106.741 63.9601C105.661 62.5801 105.061 62.4001 102.001 62.4001H98.4608L98.2808 49.8601C98.1008 38.5201 97.9808 37.2001 96.9608 36.0601C95.8208 34.8001 95.7008 34.8001 55.8008 34.8001C17.8208 34.8001 15.7208 34.8601 14.8208 35.8801ZM93.0008 51.0001V62.4001H85.8008C75.6608 62.4001 76.2008 61.5601 76.2008 77.1001V89.4001H57.3008H38.4008V87.6601C38.4008 84.7201 36.6608 84.0001 29.7008 84.0001C22.7408 84.0001 21.0008 84.7201 21.0008 87.6601C21.0008 88.9801 20.7008 89.4001 19.8008 89.4001C18.6008 89.4001 18.6008 88.9801 18.6008 64.5001V39.6001H55.8008H93.0008V51.0001ZM105.001 87.0001V103.2H92.1008H79.2008V87.0001V70.8001H92.1008H105.001V87.0001ZM35.4008 96.3001V105.6H29.7008H24.0008V96.3001V87.0001H29.7008H35.4008V96.3001ZM93.2408 106.5C93.4208 107.04 93.1808 107.58 92.6408 107.82C91.5008 108.24 90.3008 107.16 90.8408 106.26C91.4408 105.3 92.8208 105.48 93.2408 106.5Z" fill="black"/>
</svg>
