<svg width="92" height="103" viewBox="0 0 92 103" fill="none" xmlns="http://www.w3.org/2000/svg">
<path d="M91.5559 0L82.9712 92.9854L45.7773 103L8.5829 92.9854L0 0H91.5559ZM74.2572 18.9071H45.7439H16.7254L18.1132 30.136H45.7439H47.2959L45.7439 30.782L19.123 41.8694L20.0059 52.8453L45.7439 52.9287L59.5387 52.9724L58.6556 67.6074L45.7437 71.2426V71.2311L45.6378 71.2606L33.1681 68.1127L32.4115 59.0281H32.3701H20.8039H20.7631L22.2771 76.5658L45.7441 83.5055V83.493L45.7864 83.5055L69.1276 76.6922L72.1553 41.8694H45.7441H45.679L45.7441 41.8411L73.1228 30.136L74.2572 18.9071Z" fill="black"/>
</svg>
