<svg width="120" height="120" viewBox="0 0 120 120" fill="none" xmlns="http://www.w3.org/2000/svg">
<g clip-path="url(#clip0_122_678)">
<g clip-path="url(#clip1_122_678)">
<path d="M60.0013 25.1763H25.4062V94.8104H60.0013C77.3032 94.8104 94.5954 79.2213 94.5954 59.9982C94.5954 40.775 77.3032 25.1763 60.0013 25.1763ZM60.0013 75.8141C51.2636 75.8107 44.183 68.7247 44.1863 59.987C44.1895 51.2493 51.2753 44.1686 60.013 44.1717C68.7507 44.1748 75.8315 51.2605 75.8286 59.9982C75.8286 64.1949 74.161 68.2196 71.1925 71.186C68.2239 74.1524 64.198 75.8173 60.0013 75.8141Z" fill="url(#paint0_linear_122_678)"/>
</g>
</g>
<defs>
<linearGradient id="paint0_linear_122_678" x1="25.4062" y1="3506.84" x2="6944.33" y2="3506.84" gradientUnits="userSpaceOnUse">
<stop/>
<stop offset="1"/>
</linearGradient>
<clipPath id="clip0_122_678">
<rect width="120" height="120" fill="white"/>
</clipPath>
<clipPath id="clip1_122_678">
<rect width="70" height="70" fill="white" transform="translate(25 25)"/>
</clipPath>
</defs>
</svg>
