<svg width="120" height="121" viewBox="0 0 120 121" fill="none" xmlns="http://www.w3.org/2000/svg">
<g clip-path="url(#clip0_122_754)">
<path d="M55.9433 18.2023C37.1309 20.1135 22.1035 33.7918 18.6183 52.192C17.7939 56.4641 17.7939 63.5094 18.6183 67.7816C21.8412 84.7202 35.1448 98.0238 52.0834 101.247C61.1524 102.97 70.9708 101.472 79.3652 97.1619C92.4064 90.4164 100.576 77.7499 101.813 62.3102L102 59.7994L100.426 60.8487C98.3649 62.2353 97.1283 62.7225 94.0178 63.2846L91.4696 63.7717L90.6076 66.0952C89.296 69.6928 87.4972 72.4284 84.2369 75.7637C76.4796 83.7084 65.0497 88.0555 52.1959 88.0555C43.6141 88.018 38.1428 86.3316 33.7582 82.3218C29.0738 78.0497 26.1508 69.6178 26.638 61.9729L26.7504 60.1742L55.3812 60.0992C75.093 60.0243 84.1245 59.8744 84.4243 59.5746C84.6866 59.3122 84.6491 58.7126 84.1994 57.5134C83.2251 54.8902 83.375 50.9928 84.4992 48.5569C85.0239 47.4327 85.7734 46.0836 86.2231 45.5589C86.9726 44.6595 86.9726 44.6595 88.3217 45.2591C89.9331 46.0461 91.3946 48.1447 92.294 51.0678L92.9685 53.2413L96.2663 53.5036C98.1026 53.616 100.051 53.9158 100.576 54.1032L101.55 54.478L101.026 51.6674C99.1894 41.9988 93.1934 32.4427 85.1738 26.4842C76.7794 20.2259 65.9491 17.153 55.9433 18.2023ZM68.3101 37.8766V41.4367H64.3752H60.4403V37.8766V34.3165H64.3752H68.3101V37.8766ZM49.5726 46.6832V50.0559H45.6377H41.7029V46.6832V43.3104H45.6377H49.5726V46.6832ZM58.9413 46.6832V50.0559H55.0065H51.0716V46.6832V43.3104H55.0065H58.9413V46.6832ZM68.3101 46.6832V50.0559H64.3752H60.4403V46.6832V43.3104H64.3752H68.3101V46.6832ZM40.1289 55.3774L40.0165 58.8625L36.1941 58.975L32.3342 59.0874V55.4898V51.9297H36.269H40.2414L40.1289 55.3774ZM49.5726 55.4898V59.0499H45.6377H41.7029V55.4898V51.9297H45.6377H49.5726V55.4898ZM58.9413 55.4898V59.0499H55.0065H51.0716V55.4898V51.9297H55.0065H58.9413V55.4898ZM68.3101 55.4898V59.0499H64.3752H60.4403V55.4898V51.9297H64.3752H68.3101V55.4898ZM77.6788 55.4898V59.0874L73.8563 58.975L69.9964 58.8625L69.884 55.3774L69.7716 51.9297H73.7439H77.6788V55.4898Z" fill="black"/>
</g>
<defs>
<clipPath id="clip0_122_754">
<rect width="120" height="120" fill="white" transform="translate(0 0.379883)"/>
</clipPath>
</defs>
</svg>
