<svg width="120" height="121" viewBox="0 0 120 121" fill="none" xmlns="http://www.w3.org/2000/svg">
<g clip-path="url(#clip0_122_808)">
<g clip-path="url(#clip1_122_808)">
<path d="M-8.54559 11.7466C-8.86559 12.1733 -9.07892 13.08 -8.97225 13.7733C-8.81225 15 -8.70559 15 -1.34559 15.16L6.17441 15.32L10.0144 29.56C21.3211 71.16 29.1077 99.32 29.4811 99.9066C29.7477 100.333 31.1344 100.6 33.1077 100.6H36.3077L35.4011 102.36C34.8677 103.373 34.4944 105.293 34.4944 107.107C34.4944 117.613 47.9877 121.667 54.0144 113.027C55.9877 110.253 56.4677 106.52 55.2411 103.587C54.7611 102.467 54.3877 101.347 54.3877 101.08C54.3877 100.813 60.2544 100.6 67.4544 100.6C74.6544 100.6 80.5211 100.707 80.5211 100.76C80.5211 100.867 80.1477 101.72 79.6677 102.68C79.0277 103.907 78.8677 105.4 79.0277 107.8C79.1877 110.627 79.5077 111.587 80.8411 113.187C83.7744 116.867 84.9477 117.4 89.5877 117.4C93.4277 117.4 93.9077 117.293 95.8277 115.747C99.7744 112.6 101.268 107.267 99.4544 102.893C99.0277 101.88 98.6544 100.92 98.6544 100.813C98.6544 100.707 99.9344 100.6 101.481 100.6C103.028 100.6 104.574 100.333 104.948 99.96C105.908 99 105.694 97.5066 104.574 96.8666C103.881 96.5466 91.4544 96.3333 68.0411 96.3333C48.5211 96.3333 32.5211 96.1733 32.5211 95.9066C32.5211 95.6933 31.9344 93.4533 31.2411 90.84L30.0144 86.2H59.4011C81.5344 86.2 89.0011 86.04 89.4811 85.56C90.6011 84.44 105.694 45.7733 105.481 44.4933C105.321 43.32 105.108 43.2666 99.1344 43.1066L92.9477 42.9466L92.0411 38.7333C89.4277 26.52 80.5211 16.9733 68.5211 13.3466C64.1477 12.0666 55.7744 12.0666 51.5077 13.3466C45.3211 15.2133 41.5344 17.4 37.0544 21.9333C32.0411 26.8933 29.3744 31.7466 28.0411 38.3066C27.5611 40.5466 27.1877 42.5733 27.1877 42.7333C27.1877 42.8933 25.1611 43 22.7077 43C18.8677 43 18.1744 42.84 17.9077 42.04C17.7477 41.56 15.8277 34.5733 13.6411 26.52C11.4011 18.4666 9.32108 11.6933 8.94775 11.4266C8.57441 11.2133 4.62775 11 0.20108 11C-6.19892 11 -8.01225 11.16 -8.54559 11.7466ZM57.5877 24.0666V30.7333H53.0011C47.7211 30.7333 47.8811 31.1066 50.7077 24.92C52.1477 21.7733 55.8277 17.4 57.0544 17.4C57.3744 17.4 57.5877 20.1733 57.5877 24.0666ZM65.2144 19C67.0811 20.6 70.4944 26.5733 71.1344 29.24L71.4544 30.7333H66.9211H62.3877V24.0666C62.3877 20.12 62.6011 17.4 62.9211 17.4C63.1877 17.4 64.2544 18.0933 65.2144 19ZM46.9744 22.04C45.6411 24.7066 44.6277 27.4266 43.9344 30.04C43.7211 30.84 35.7211 31.0533 35.7211 30.2533C35.7211 28.1733 45.8011 19 48.0944 19C48.3077 19 47.8277 20.3866 46.9744 22.04ZM79.0277 24.28C80.8944 25.9866 82.8144 28.1733 83.3477 29.08L84.3077 30.7333H80.0411H75.8277L75.4544 28.9733C75.2411 28.0666 74.2811 25.5066 73.2677 23.32C72.2544 21.1333 71.4544 19.2666 71.4544 19.16C71.4544 18.4666 76.2544 21.6666 79.0277 24.28ZM42.6544 36.5466C42.6544 37.3466 42.4944 39.16 42.3344 40.5466L41.9611 43H36.8944H31.8277L32.1477 40.44C32.3077 39.0533 32.6811 37.2933 33.0011 36.44C33.5344 35 33.6411 35 38.1211 35H42.6544V36.5466ZM57.5877 39V43.0533L52.1477 42.8933L46.6544 42.7333L46.8144 39.8C47.1344 34.7866 46.8677 35 52.5744 35H57.5877V39ZM72.7344 36.6533C72.8944 37.56 73.0544 39.3733 73.0544 40.7066V43.0533L67.6144 42.8933L62.1211 42.7333L61.9611 38.84L61.8011 35H67.0811H72.4144L72.7344 36.6533ZM87.1877 37.7733C88.7344 43 88.7344 43 82.9211 43C79.2944 43 77.7477 42.7866 77.5877 42.3066C77.4811 41.9866 77.3211 40.1733 77.2144 38.3066L77.0011 35H81.6411H86.3344L87.1877 37.7733ZM27.4544 49.24C29.3744 60.8133 36.2011 69.9866 46.4944 74.68C51.2944 76.92 54.8144 77.6666 60.1477 77.6666C69.1611 77.6666 76.2011 74.6266 82.9211 67.8533C85.9077 64.8133 87.7211 62.4666 88.8944 60.0133C90.6544 56.3333 92.2544 51 92.2544 48.6533C92.2544 47.2666 92.3077 47.2666 96.2011 47.2666H100.094L93.2144 64.6L86.2811 81.9333L57.4277 81.8266L28.5744 81.6666L24.2544 65.6666C21.8544 56.8666 19.7211 49.1333 19.5077 48.44C19.1344 47.32 19.1877 47.2666 23.1344 47.2666H27.1344L27.4544 49.24ZM42.1211 48.1733C42.1211 48.7066 42.2811 50.4133 42.4944 51.96L42.8144 54.7866L38.1211 54.6266L33.4277 54.4666L32.7344 52.0666C31.2944 47.2666 31.2944 47.2666 37.0544 47.2666C41.5344 47.2666 42.1211 47.3733 42.1211 48.1733ZM57.5877 51V54.7333H52.5211C46.8677 54.7333 47.3477 55.16 46.6544 49.7733L46.3344 47.2666H51.9344H57.5877V51ZM73.2677 50.3066C72.7877 55 73.1611 54.7333 67.4544 54.7333H62.3877V51V47.2666H67.9877H73.5877L73.2677 50.3066ZM87.9877 48.2266C87.9877 48.76 87.6144 50.4666 87.1877 51.96L86.3344 54.7333H81.5344C77.3211 54.7333 76.7344 54.6266 77.0011 53.88C77.1611 53.4 77.3211 51.7466 77.3211 50.1466V47.2666H82.6544C87.4544 47.2666 87.9877 47.3733 87.9877 48.2266ZM45.0544 62.8933C45.7477 64.8666 46.8144 67.32 47.4011 68.3866C48.0411 69.4 48.5211 70.36 48.5211 70.52C48.5211 71 45.0544 69.0266 42.4944 67.0533C40.1477 65.2933 35.7211 60.2266 35.7211 59.32C35.7211 59.1066 37.5344 59 39.7211 59.1066L43.7744 59.2666L45.0544 62.8933ZM57.5877 65.6666C57.5877 69.6133 57.3744 72.3333 57.0544 72.3333C55.7744 72.3333 52.6277 68.6533 50.9744 65.24C47.8277 58.68 47.7211 59 53.0011 59H57.5877V65.6666ZM71.2411 60.3866C70.0677 64.92 64.9477 72.3333 62.9211 72.3333C62.6011 72.3333 62.3877 69.72 62.3877 65.6666V59H66.9744H71.5611L71.2411 60.3866ZM83.3477 60.6C81.9611 62.9466 76.8944 67.7466 74.0144 69.4C72.5744 70.2 71.4544 70.68 71.4544 70.52C71.4544 70.36 72.1477 68.8666 73.0011 67.16C73.9077 65.4533 74.8677 62.9466 75.2411 61.5066L75.9344 59H80.1477H84.3077L83.3477 60.6ZM48.4144 101.987C51.3477 104.013 52.0411 108.547 49.8544 111.213C46.1744 115.533 39.6677 113.88 38.6011 108.333C38.1744 106.093 39.6144 102.947 41.5344 101.933C43.4011 100.92 46.9211 100.92 48.4144 101.987ZM92.2544 101.933C94.4411 103.053 95.6677 105.56 95.2944 108.227C94.7611 112.28 90.5477 114.787 86.7611 113.24C84.5744 112.28 82.6544 109.613 82.6544 107.373C82.6544 102.627 87.8811 99.64 92.2544 101.933Z" fill="black"/>
</g>
</g>
<defs>
<clipPath id="clip0_122_808">
<rect width="120" height="120" fill="white" transform="translate(0 0.75)"/>
</clipPath>
<clipPath id="clip1_122_808">
<rect width="120" height="120" fill="white" transform="translate(0 0.75)"/>
</clipPath>
</defs>
</svg>
