<svg width="183" height="120" viewBox="0 0 183 120" fill="none" xmlns="http://www.w3.org/2000/svg">
<path d="M94.6445 0.889519C94.0719 1.38764 93.4278 2.31274 93.213 2.95319C92.6763 4.55431 76 90.0543 76 91.1217C76 92.1891 77.1452 94.1105 78.1114 94.6086C78.6124 94.8933 83.5866 94.9644 93.6067 94.9288L108.386 94.8221L108.637 92.4738C109.997 78.7397 121.019 66.7135 134.761 63.9026C138.232 63.191 144.781 63.191 148.073 63.867C155.838 65.5037 162.853 69.9513 167.612 76.2135C171.298 81.088 173.767 87.1367 174.304 92.5805L174.519 95H177.525C180.495 95 180.602 94.9644 181.783 93.7903L183 92.5805V76.7472C183 62.1948 182.928 60.736 182.32 58.7434C180.03 51.4139 173.696 47.3221 164.642 47.3221C161.851 47.3221 160.347 46.7172 159.596 45.2584C159.345 44.7247 155.946 35.5805 152.045 24.9419C148.18 14.3034 144.709 4.73222 144.315 3.70038C143.922 2.66854 143.099 1.38764 142.526 0.889519L141.417 0H118.585H95.7538L94.6445 0.889519ZM137.337 10.4963C137.623 10.7809 137.945 11.3146 138.053 11.6704C138.16 11.9906 139.592 16.9363 141.274 22.6648C142.956 28.3577 144.351 33.2678 144.351 33.588C144.351 33.9082 144.029 34.4775 143.635 34.8689C142.92 35.5805 142.455 35.5805 120.732 35.5805C99.0104 35.5805 98.5452 35.5805 97.8294 34.8689C97.4358 34.4775 97.1137 33.8371 97.1137 33.4101C97.1137 33.0187 97.9368 27.8596 98.903 21.9532C100.156 14.6236 100.907 11.03 101.301 10.603C101.837 9.99813 103.054 9.96255 119.337 9.96255C134.403 9.96255 136.872 10.0337 137.337 10.4963Z" fill="black"/>
<path d="M40.2677 16.7057C36.6711 19.0086 35.9306 23.5029 38.6104 26.8457C40.3382 28.9629 40.4793 29 56.2058 29C70.4513 29 70.5924 28.9629 71.9675 28.1457C73.6953 27.1429 75 24.6914 75 22.5371C75 20.3086 73.6953 17.8571 72.0028 16.8543C70.5924 16.0371 70.4513 16 55.959 16C42.3129 16 41.255 16.0371 40.2677 16.7057Z" fill="black"/>
<path d="M21.4919 41.6315C17.0466 43.8972 16.7956 50.2114 21.0259 53.1457L22.2447 54H43.3958C64.045 54 64.5469 54 65.8375 53.22C69.3149 51.2143 70.0677 46.46 67.379 43.1543C65.5865 40.9629 66.0167 41 43.3958 41C25.041 41 22.5315 41.0743 21.4919 41.6315Z" fill="black"/>
<path d="M3.32501 66.6884C1.14396 67.7029 0.178572 69.2971 0.0355523 72.1593C-0.0717126 74.1521 0.0355523 74.6955 0.750651 75.7825C2.03783 77.7027 3.61105 78.6085 6.14965 78.8621C7.36531 78.9708 19.6293 79.0433 33.3949 78.9708C60.6759 78.8621 59.4245 78.9346 61.3195 76.7969C62.5709 75.4202 63 74.297 63 72.268C63 69.8043 61.6771 67.7029 59.5675 66.6884C58.1373 66.0362 56.8501 66 31.4284 66C6.22116 66 4.71945 66.0362 3.32501 66.6884Z" fill="black"/>
<path d="M139.771 72.0233C135.275 72.378 131.939 73.4777 128.168 75.89C121.46 80.1114 117.471 86.887 117.036 94.8333C116.565 103.205 120.735 111.329 127.878 115.976C134.948 120.588 144.412 121.297 151.918 117.785C158.734 114.592 163.484 108.988 165.37 101.928C166.204 98.9128 166.204 93.2724 165.406 90.2216C162.723 80.0405 153.731 72.6973 143.215 72.0588C142.019 71.9878 140.46 71.9878 139.771 72.0233ZM146.152 85.5745C151.338 87.8094 154.275 93.911 152.679 99.1257C150.685 105.688 143.179 109.165 136.943 106.362C129.799 103.17 127.696 94.585 132.628 88.6962C133.897 87.1708 136.834 85.3616 138.828 84.865C140.641 84.4038 144.231 84.7586 146.152 85.5745Z" fill="black"/>
</svg>
