<svg width="80" height="71" viewBox="0 0 80 71" fill="none" xmlns="http://www.w3.org/2000/svg">
<path d="M73.9662 1.90044C71.8328 3.00044 68.6328 4.3671 66.8662 4.96711L63.6328 6.0671L65.5662 6.6671C66.6328 7.00044 67.6328 7.3671 67.7995 7.53377C68.1328 7.83377 64.0662 12.4004 59.3328 17.1004C47.2662 29.0338 31.5995 38.5338 15.1662 43.9338C12.5995 44.7671 9.69951 45.6338 8.76617 45.8671C6.09951 46.5004 6.89951 46.6004 10.0328 46.0004C31.4328 41.9671 53.2662 30.4671 68.9995 14.9671C70.9328 13.0671 72.6662 11.5004 72.8328 11.5004C73.0328 11.5004 73.7328 12.4338 74.4328 13.5671L75.6662 15.6671V13.8338C75.6662 11.5004 76.4662 6.26711 77.3328 2.76711C77.6995 1.26711 77.9662 0.0337715 77.9328 0.00043869C77.8662 -0.0328941 76.0995 0.833771 73.9662 1.90044Z" fill="black"/>
<path d="M72.334 42.0008V66.1675H75.834H79.334V42.0008V17.8341H75.834H72.334V42.0008Z" fill="black"/>
<path d="M60.334 47.0008V66.1675H63.834H67.334V47.0008V27.8341H63.834H60.334V47.0008Z" fill="black"/>
<path d="M48.1672 36.5674C48.0672 36.8007 48.0339 43.534 48.0672 51.5007L48.1672 66.0007L51.6005 66.1007L55.0005 66.2007V51.1674V36.1674H51.6672C49.3005 36.1674 48.2672 36.3007 48.1672 36.5674Z" fill="black"/>
<path d="M37 53.8341V66.1675H40.3333H43.6667V53.8341V41.5008H40.3333H37V53.8341Z" fill="black"/>
<path d="M25 56.1675V66.1675H28.5H32V56.1675V46.1675H28.5H25V56.1675Z" fill="black"/>
<path d="M12.666 58.0008V66.1675H15.9993H19.3327V58.0008V49.8341H15.9993H12.666V58.0008Z" fill="black"/>
<path d="M0.0666667 59.234L0.166667 66.0007L3.6 66.1007L7 66.2007V59.334V52.5007H3.5H0L0.0666667 59.234Z" fill="black"/>
<path d="M0.333984 69.834V70.834H40.1673H80.0006V69.834V68.834H40.1673H0.333984V69.834Z" fill="black"/>
</svg>
