<svg width="120" height="121" viewBox="0 0 120 121" fill="none" xmlns="http://www.w3.org/2000/svg">
<g clip-path="url(#clip0_122_778)">
<g clip-path="url(#clip1_122_778)">
<path d="M30 61V91H60H90V61V31H60H30V61ZM51.4933 49.3733C52.9067 50.0133 53.7867 51.24 53.68 52.3867C53.6267 53.1067 53.4667 53.2667 52.9333 53.32C52.4267 53.3733 52.1067 53.16 51.52 52.3333C50.64 51.0267 50.24 50.84 49.2 51.2667C45.84 52.6533 41.4933 62.1733 43.1467 64.4667C43.76 65.2667 44.88 64.76 46.8267 62.7867C48.16 61.4 48.72 60.6 49.1467 59.4C50.0533 56.92 50.3467 56.4667 51.0667 56.4667C52.1333 56.4667 52.08 57.9867 50.96 61.24C50.4533 62.7067 49.6533 65.16 49.2 66.6267C48.3733 69.3733 47.92 70.12 47.2 69.8267C46.64 69.6133 46.6933 68.3067 47.3333 66.2C47.6267 65.24 47.8667 64.4133 47.8667 64.36C47.8667 64.3067 47.3333 64.76 46.6933 65.3467C44.6133 67.2667 42.8267 67.7733 41.4933 66.84C37.8667 64.28 42.4 52.1733 48 49.5067C49.6 48.7333 50.08 48.7333 51.4933 49.3733ZM68.88 51.16C68.9333 51.4533 68.0533 53.9067 66.9333 56.5733C63.4667 64.92 63.3867 65.2667 64.9867 64.44C66.2933 63.7733 68.6133 61.4267 68.8 60.6267C69.04 59.48 69.9467 58.2 70.5067 58.2C71.04 58.2 71.44 58.8667 71.1733 59.2933C70.9333 59.6933 71.52 59.56 71.8933 59.1067C72.3467 58.5467 74.1067 57.6667 74.7467 57.6667C75.4933 57.6667 76.6667 58.68 76.6667 59.2933C76.6667 60.0667 75.9733 61.32 74.5067 63.16C73.2267 64.76 73.0667 65.3733 74.0267 64.84C74.32 64.7067 75.5733 63.6667 76.8267 62.5733C78.1067 61.48 79.2533 60.6267 79.44 60.68C79.6 60.7333 79.76 61.08 79.8133 61.4533C79.8667 61.9867 79.5467 62.44 78.2133 63.6667C75.0133 66.6533 73.2267 67.56 71.76 67C70.3733 66.4933 70.5067 65.2933 72.2133 63.1867C74.4533 60.4667 74.6933 59.8267 73.3867 60.1733C71.6533 60.6 69.6267 63.8 67.3333 69.7467C66.48 71.9067 66.0533 72.7067 65.5733 72.92C65.12 73.1333 64.8533 73.1333 64.5333 72.8667C63.9467 72.3867 64.0267 71.9067 65.0933 69.5333C65.6 68.36 66.2667 66.8933 66.5333 66.28L67.04 65.16L65.84 66.0933C64.32 67.24 62.7467 67.4267 62.08 66.5467C61.7867 66.1733 61.6533 66.1733 60.5067 66.68C58.9067 67.3467 58.16 67.1333 58.0533 65.96C58 65.5067 57.8667 65.1333 57.7067 65.1333C57.5733 65.1333 57.4667 65.24 57.4667 65.3733C57.4667 65.8 55.8933 66.7867 54.88 67C53.68 67.2933 52.7467 66.9467 52.3467 66.0667C51.9733 65.2133 52.5333 63.08 53.92 60.04C54.88 57.9067 55.5467 57.32 56.2667 57.9333C56.8267 58.4133 56.7733 58.76 55.7333 60.8133C54.8 62.6267 54.4 64.5733 54.9333 64.76C55.4133 64.9467 56.9067 63.8267 57.6 62.76C58 62.1733 58.64 60.8933 59.04 59.9067C59.8667 57.88 60.3733 57.3733 61.04 57.9067C61.6533 58.4133 61.5733 58.8933 60.5333 61.4C59.2 64.6533 59.3067 65.3467 61.04 64.5733C61.6 64.3067 62.1333 63.16 64.2933 57.6933C65.7067 54.0933 66.9867 50.9733 67.1467 50.7867C67.5733 50.2533 68.7733 50.4933 68.88 51.16Z" fill="black"/>
<path d="M48.0009 49.5865C46.4809 50.4132 45.4142 51.3732 44.2676 52.9998C39.3342 59.9065 39.0942 68.2798 43.8409 66.9998C44.3742 66.8665 45.5476 66.1465 46.4809 65.3998C47.3876 64.6798 48.1342 64.0932 48.1342 64.1465C48.1342 64.1732 47.8409 65.1598 47.4676 66.3332C46.6942 68.7865 46.6676 69.2132 47.1476 69.6398C47.7876 70.1732 48.3209 69.1598 49.6009 64.9998C50.2942 62.7865 51.0942 60.1998 51.3876 59.2398C52.0276 57.2398 51.9209 56.5998 50.9609 56.5998C50.3742 56.5998 50.2142 56.8132 49.6809 58.4932C48.9609 60.7065 47.2809 62.9732 45.3609 64.2532C43.8942 65.2665 43.8676 65.2665 43.1742 64.7598C42.7742 64.4398 42.6676 64.0665 42.6942 62.8132C42.7476 59.7465 44.8542 55.1065 47.3876 52.5198C48.7742 51.1065 48.9876 50.9732 49.9209 51.0532C50.7476 51.1065 51.0409 51.3198 51.6809 52.2532C52.5342 53.5598 53.0676 53.6932 53.5209 52.7598C53.7609 52.2265 53.7076 51.9332 53.2809 51.2132C52.1876 49.3198 49.8409 48.5998 48.0009 49.5865Z" fill="#ECECEC"/>
<path d="M67.5471 50.7334C67.1737 50.9734 62.2671 62.7867 62.2671 63.48C62.2671 63.9867 60.6137 65.16 60.0271 65.08C59.2271 64.9734 59.3871 63.7734 60.5337 60.9734C61.4937 58.68 61.5204 57.9334 60.6404 57.9334C60.2671 57.9334 59.8404 58.5734 58.9871 60.3867C57.7604 63 56.5604 64.4934 55.4137 64.76C54.0537 65.1067 54.0804 63.96 55.5737 60.7334C56.1337 59.56 56.5337 58.44 56.4537 58.2534C56.4004 58.0934 56.0804 57.9334 55.7071 57.9334C55.2271 57.9334 54.9337 58.2267 54.4271 59.1867C53.4404 61.16 52.4004 64.28 52.4004 65.24C52.4004 67.5867 55.5204 67.56 57.4937 65.16L58.2671 64.2L58.1071 65.0267C57.8937 66.0934 58.3737 67 59.1471 67C59.4671 67 60.2137 66.7067 60.8271 66.36L61.9204 65.7467L62.1604 66.3067C62.5604 67.24 64.3204 67.0267 65.9471 65.8534L67.3071 64.8934L66.8004 66.0134C66.5337 66.6267 65.8671 68.0934 65.3604 69.2667C64.1871 71.88 64.1071 72.8667 65.0671 72.8667C65.8937 72.8667 66.2671 72.28 67.3071 69.4534C69.2004 64.36 71.1737 61.1067 72.9871 60.1734C73.7604 59.7734 74.5337 59.8267 74.5337 60.2534C74.5337 60.3867 73.8137 61.3734 72.9337 62.4667C71.0137 64.8667 70.6937 65.6667 71.2271 66.44C71.9471 67.4534 74.1604 67 75.9471 65.5067C78.2671 63.5867 79.6004 62.12 79.6004 61.5067C79.6004 61.16 79.4671 60.8667 79.3071 60.8667C79.1737 60.8667 78.0004 61.7734 76.7204 62.8667C74.5871 64.7334 73.3871 65.4267 73.0404 65.0534C72.9604 64.9734 73.4937 64.1734 74.2404 63.2667C76.4004 60.68 76.9071 59.2667 75.9737 58.36C75.1471 57.5067 73.7071 57.8534 71.8404 59.2934L70.8804 60.04L71.0137 59.3734C71.1471 58.6267 70.6937 58.1467 70.1071 58.3867C69.9204 58.4667 69.4937 59.1867 69.2004 60.0134C68.5871 61.6667 67.8404 62.5734 65.9737 63.96C64.5337 65.0267 63.8671 65.1334 63.8671 64.28C63.8671 63.7467 65.2537 60.12 67.7871 54.12C68.7737 51.8 68.9337 51.1867 68.6671 50.8667C68.2937 50.4134 68.1604 50.3867 67.5471 50.7334Z" fill="#ECECEC"/>
</g>
</g>
<defs>
<clipPath id="clip0_122_778">
<rect width="120" height="120" fill="white" transform="translate(0 0.569336)"/>
</clipPath>
<clipPath id="clip1_122_778">
<rect width="60" height="60" fill="white" transform="translate(30 31)"/>
</clipPath>
</defs>
</svg>
