<svg width="74" height="52" viewBox="0 0 74 52" fill="none" xmlns="http://www.w3.org/2000/svg">
<path d="M27.0723 0.357222C25.8896 0.601808 23.984 1.15213 22.8669 1.54958C20.6327 2.37506 15.9016 5.1878 14.6531 6.41073C13.766 7.26678 13.7988 8.36742 14.6531 8.88717C15.113 9.13176 15.4744 9.00946 16.4601 8.21456C21.6512 4.11774 26.5795 2.34449 32.6906 2.34449C36.6332 2.34449 39.5574 2.95595 43.1057 4.48462C44.5842 5.15723 46.0298 5.61583 46.2927 5.52411C47.0484 5.24895 47.2455 4.20946 46.6541 3.59799C45.9313 2.86423 42.2186 1.27442 39.7216 0.632381C36.9946 -0.0708046 29.865 -0.223671 27.0723 0.357222Z" fill="black"/>
<path d="M27.9375 6.65431C23.914 7.69412 19 10.9141 19 12.4571C19 13.2621 19.5607 14 20.1873 14C20.3852 14 21.3086 13.3962 22.1661 12.6248C28.4982 7.25807 37.6996 7.3587 44.0317 12.8596C45.4169 14.0671 46.0105 14.2348 46.6371 13.5975C47.3627 12.8596 47.0329 12.0546 45.3509 10.5452C40.8327 6.52015 34.0718 5.01076 27.9375 6.65431Z" fill="black"/>
<path d="M49.4442 7.31754C48.2218 8.16433 49.7498 9.43451 51.2777 8.85234C52.5765 8.37603 52.0035 7 50.5138 7C50.17 7 49.7116 7.13231 49.4442 7.31754Z" fill="black"/>
<path d="M3.19753 12.4306C1.85109 12.9938 0.746311 14.3521 0.262972 16.0086C0.0558272 16.8699 -0.0477454 20.7792 0.021303 26.8419C0.124876 36.0519 0.1594 36.3501 0.918932 37.5428C2.61062 40.16 6.5809 40.8226 8.96307 38.8679C10.931 37.3109 11 36.8139 11 25.848C11 16.3067 10.9655 15.8098 10.275 14.6171C8.92855 12.3312 5.78685 11.3705 3.19753 12.4306ZM7.37496 15.4454L8.23806 16.2405V25.9806C8.23806 34.793 8.16902 35.82 7.65115 36.4495C6.64995 37.5759 5.09636 37.6753 3.88801 36.7145L2.88681 35.8863L2.78324 26.6432C2.71419 21.5743 2.78324 17.1019 2.88681 16.6712C3.40468 14.6503 5.85589 13.9546 7.37496 15.4454Z" fill="black"/>
<path d="M55.5955 12.4627C55.0764 12.694 54.2653 13.3219 53.8111 13.8176C53.1298 14.5446 53 15.0404 53 16.6266C53 18.2129 53.1298 18.7086 53.8111 19.4357C54.8169 20.5593 56.3742 21.2533 57.8667 21.2533H59.0022V28.9863C59.0022 36.4551 59.0346 36.7194 59.7484 37.81C61.6951 40.7843 65.7182 40.7182 67.3404 37.6778C67.8271 36.7855 67.9244 35.5297 68.0217 28.9863L68.1191 21.3524L69.7737 21.1541C71.7528 20.8897 72.7586 20.2949 73.4724 18.8739C74.6404 16.5936 73.7968 13.6854 71.6555 12.5949C70.6822 12.0661 69.5466 12 63.5444 12C58.4506 12.033 56.3093 12.1322 55.5955 12.4627ZM70.9742 15.503C71.8177 16.5936 71.8177 16.6927 71.0391 17.6511C70.5199 18.312 70.0333 18.4773 68.0217 18.6095L65.6533 18.7747L65.4911 27.4662C65.3289 36.1246 65.3289 36.1907 64.5502 36.8186C63.6417 37.5787 63.2524 37.6117 62.3115 36.9177C61.5978 36.422 61.5978 36.3229 61.5978 27.8958C61.5978 21.749 61.5004 19.3035 61.2084 19.006C60.9813 18.7747 59.9431 18.6095 58.7751 18.6095C56.5689 18.6095 55.4333 17.9485 55.4333 16.6266C55.4333 16.2631 55.7253 15.6683 56.0822 15.3047C56.6987 14.6768 57.1529 14.6438 63.512 14.6438H70.3253L70.9742 15.503Z" fill="black"/>
<path d="M29.5344 13.4227C27.061 14.1054 25.4346 15.0271 23.9099 16.4949C17.5061 22.7757 19.2002 33.1528 27.2981 37.1808C28.6873 37.8635 29.4327 38 32.4822 38C35.6671 38 36.2431 37.8976 37.9372 37.0784C40.3768 35.8495 42.7147 33.5283 43.8667 31.1047C45.0526 28.647 45.3575 24.8238 44.5443 22.0589C42.7147 15.6415 35.7349 11.6477 29.5344 13.4227ZM35.2605 16.1876C37.5984 16.8703 40.2412 19.055 41.3594 21.2396C42.3758 23.2195 42.5453 26.6671 41.7998 28.9883C40.9867 31.3778 38.3777 34.0745 36.0737 34.8596C30.7203 36.7029 25.2652 34.1769 23.3 28.9542C21.3687 23.8339 24.1809 18.1333 29.5344 16.2901C31.7367 15.5049 32.7871 15.5049 35.2605 16.1876Z" fill="black"/>
<path d="M31.6099 20.1087C29.2377 20.6374 27.4585 22.3998 27.0748 24.6909C26.9004 25.8188 27.005 26.4533 27.6678 27.7574C28.7144 29.9428 29.9354 30.7535 32.203 30.965C33.7379 31.0707 34.2612 30.965 35.238 30.26C37.7846 28.4976 38.587 26.1713 37.5753 23.4572C36.6334 21.0251 34.0868 19.58 31.6099 20.1087ZM34.5403 23.845C35.5171 25.0786 35.4473 26.277 34.4007 27.3345C33.0053 28.7796 31.0517 28.3919 30.0749 26.559C28.7144 23.9154 32.7262 21.5186 34.5403 23.845Z" fill="black"/>
<path d="M19.2312 37.2343C19.0991 37.3354 19 37.8071 19 38.2114C19 40.0983 24.6148 43.6363 29.2387 44.6134C34.8865 45.8264 41.1619 44.1417 45.6867 40.1657C47.173 38.8853 47.4042 37.8745 46.3473 37.2343C45.6867 36.7963 44.9271 37.1669 42.6151 39.0201C39.4444 41.6146 34.4902 42.8613 30.2956 42.0863C27.4882 41.5809 24.3175 40.0983 22.2368 38.3125C20.7835 37.0995 19.7266 36.6952 19.2312 37.2343Z" fill="black"/>
<path d="M14.1859 42.2715C13.8447 42.7695 14.0022 44.6085 14.4222 44.8383C15.5246 45.4513 16.3646 44.2254 15.8396 42.7695C15.5771 42.0416 14.5534 41.7351 14.1859 42.2715Z" fill="black"/>
<path d="M48.2444 43.5448C45.8628 45.6123 42.7534 47.3069 39.4455 48.3915C37.3946 49.0355 36.27 49.171 32.9952 49.171C28.3311 49.1372 25.9825 48.5949 22.0461 46.5613C19.036 45.0361 18.1759 45.0022 18.0105 46.3579C17.8782 47.4764 18.9698 48.3237 22.5423 49.8489C27.8018 52.1198 34.3845 52.6281 39.6109 51.2046C42.5218 50.3912 47.2521 47.917 49.5014 46.0529C51.8831 44.0532 52.3131 43.4431 51.8169 42.6297C51.1554 41.579 50.2622 41.8162 48.2444 43.5448Z" fill="black"/>
</svg>
