<svg width="112" height="112" viewBox="0 0 112 112" fill="none" xmlns="http://www.w3.org/2000/svg">
<path fill-rule="evenodd" clip-rule="evenodd" d="M85.8368 103.22C76.0648 103.22 69.748 98.5612 66.668 92.4684L75.236 87.5055C77.4928 91.1903 80.4216 93.8957 85.6128 93.8957C89.9696 93.8957 92.7527 91.7158 92.7527 88.7086C92.7527 84.1838 86.716 82.4158 82.4544 80.5902C74.8608 77.359 69.8207 73.299 69.8207 64.7254C69.8207 56.835 75.8352 50.8211 85.2376 50.8211C91.924 50.8211 96.74 53.1503 100.195 59.2375L92.0023 64.5012C90.1991 61.27 88.2448 59.9922 85.2376 59.9922C82.152 59.9922 80.1977 61.9476 80.1977 64.5012C80.1977 67.6596 82.1521 68.937 86.6657 70.8914C96.1241 74.9458 103.281 78.131 103.281 88.5582C103.281 98.0334 95.8384 103.22 85.8368 103.22ZM61.6 87.3551C61.6 98.2583 54.8855 104.021 45.5615 104.021C37.1391 104.021 32.0936 100.8 29.6128 95.2H29.5289H29.4895H29.4672L38.0295 89.2145C39.6815 92.1432 41.1712 94.2211 44.7776 94.2211C48.2384 94.2211 50.4 92.4686 50.4 87.2102V50.4H61.6V87.3551ZM0 112H112V0H0V112Z" fill="black"/>
</svg>
