<svg width="120" height="121" viewBox="0 0 120 121" fill="none" xmlns="http://www.w3.org/2000/svg">
<g clip-path="url(#clip0_122_760)">
<path d="M57.9667 20.2075C57.1724 20.5251 52.354 22.802 37.7398 29.7914C32.8684 32.1212 29.6914 33.9744 29.1619 34.7687C28.6853 35.4571 28.1029 37.3103 27.7852 38.8458C27.5204 40.3814 27.1498 41.811 27.0439 42.0229C26.885 42.2346 26.6203 43.2407 26.4614 44.2467C26.3026 45.2528 25.9319 46.8942 25.6672 47.9003C25.4024 48.9063 24.9788 50.8125 24.6611 52.1363C24.3434 53.46 23.6551 56.5841 23.0197 59.1257C21.643 65.109 21.643 67.7036 23.1256 69.7686C23.761 70.7217 24.4493 71.5689 24.6082 71.7278C24.767 71.8866 25.879 73.1574 26.9909 74.64C28.1558 76.0697 29.2148 77.3934 29.3737 77.5523C29.5325 77.7111 32.4448 81.3117 35.8336 85.5477C39.2753 89.8367 42.4523 93.4373 42.9289 93.6491C43.3525 93.8079 51.0832 93.9668 60.0317 93.9668C73.534 93.9668 76.4462 93.8079 77.3993 93.1725C79.0937 91.9547 97.6262 68.7626 97.9439 67.3859C98.2087 66.2739 97.5733 62.7263 95.2435 52.6658C94.8199 50.7596 94.2374 48.2709 93.9727 47.106C92.7019 41.6522 91.1663 35.4041 90.9016 34.7157C90.6898 34.0803 80.947 29.156 66.2269 22.2196C61.9909 20.2604 59.3963 19.625 57.9667 20.2075ZM61.4084 30.4268C61.5673 31.0092 61.5673 32.4918 61.4084 33.7626C60.9848 36.4101 61.9379 37.8398 64.0559 37.8398C65.9621 37.8398 70.9394 40.2225 72.8986 42.0229C73.8517 42.923 75.0166 43.6643 75.4402 43.6643C75.9167 43.6643 77.2405 42.7112 78.3524 41.5463C79.4644 40.3814 80.8411 39.4283 81.3176 39.4283C83.1179 39.4283 83.1709 42.7641 81.3706 43.3466C80.894 43.5054 79.7821 44.2467 78.9349 44.9351L77.3464 46.1529L78.8819 49.5417C79.9409 51.9774 80.4704 54.0425 80.6293 56.9018C80.7352 59.0727 81.1058 61.1907 81.3706 61.5084C81.6883 61.8791 82.8532 62.1968 84.0181 62.1968C86.6126 62.1968 88.1482 62.991 88.1482 64.3677C88.1482 65.9033 86.7715 66.168 83.8063 65.2149C82.3766 64.7384 80.894 64.4736 80.5234 64.6325C80.1527 64.7913 79.3055 66.0621 78.6701 67.4388C77.3464 70.404 74.1164 74.3223 72.0514 75.3813C70.304 76.3344 70.304 77.0228 72.1043 80.1468C73.5869 82.9002 73.481 84.4358 71.7866 84.4358C70.9924 84.4358 70.304 83.5886 69.245 81.3647C67.8683 78.5583 67.6565 78.3465 66.1739 78.5054C65.3267 78.6113 62.4674 78.7172 59.8199 78.7172C57.2254 78.7172 54.3661 78.6113 53.4659 78.5054C52.0892 78.3465 51.7715 78.6113 50.9243 80.4645C49.3888 83.9063 49.177 84.171 47.8532 84.171C46.0529 84.171 45.947 82.6355 47.5885 80.1998C48.3298 79.0349 48.9652 77.7641 48.9652 77.3405C48.9652 76.9698 47.4826 75.1166 45.6293 73.2633C43.7761 71.4101 41.764 68.7626 41.0756 67.3859C40.4402 66.0621 39.593 64.7913 39.2224 64.6854C38.7988 64.5266 37.475 64.7384 36.2572 65.162C33.4508 66.168 31.8094 65.9562 31.5976 64.6325C31.2799 63.2028 32.8684 62.1968 35.5159 62.1968C36.7337 62.1968 37.9516 61.8791 38.2163 61.5084C38.534 61.1907 38.9047 59.0198 39.1165 56.7429C39.3283 53.9895 39.8578 51.6597 40.7579 49.8065C41.4992 48.2709 42.0817 46.7354 42.0817 46.4177C42.0817 46.1529 40.8638 45.041 39.3812 43.929C36.6278 41.9699 36.2572 40.8579 37.9516 39.799C38.6399 39.3224 39.2753 39.6401 41.2345 41.4404C42.5582 42.6582 43.882 43.6643 44.1997 43.6643C44.4644 43.6643 45.8411 42.8171 47.2178 41.7581C49.9712 39.6401 53.7307 37.8398 55.3721 37.8398C57.8608 37.8398 58.4962 36.9396 58.4432 33.6567C58.3903 31.9623 58.5491 30.2679 58.708 29.9502C59.3434 28.9971 61.0378 29.3148 61.4084 30.4268Z" fill="black"/>
<path d="M52.9362 43.4528C48.6472 45.6237 48.3825 46.1003 50.5005 47.7947C53.9422 50.4951 56.272 51.66 56.6956 50.9717C56.9074 50.601 57.2251 48.483 57.4369 46.2062C57.7017 42.3408 57.6487 42.0761 56.6427 42.0761C56.0602 42.0761 54.4188 42.7115 52.9362 43.4528Z" fill="black"/>
<path d="M62.4677 46.4175C62.6795 48.8532 63.1031 50.9712 63.4208 51.183C63.8444 51.4477 68.3981 48.6943 71.1515 46.4704C71.8399 45.9409 64.5857 42.0756 62.9443 42.0756C62.15 42.0756 62.0971 42.5521 62.4677 46.4175Z" fill="black"/>
<path d="M44.6244 52.2952C43.6713 54.5191 43.3007 59.5493 44.0949 59.5493C44.3067 59.5493 46.2129 59.0198 48.3309 58.4374C51.1902 57.5372 52.1433 57.0607 52.1433 56.3723C52.1433 55.631 46.4777 50.0183 45.7364 50.0183C45.6305 50.0183 45.101 51.0244 44.6244 52.2952Z" fill="black"/>
<path d="M70.4636 52.8777C68.6103 54.5721 67.4454 56.0547 67.6043 56.4783C67.922 57.1666 71.5755 58.5963 74.8584 59.2846L76.6058 59.6553L76.2351 56.8489C75.8115 53.8837 74.5407 50.0184 73.9053 50.0184C73.7465 50.0713 72.158 51.3421 70.4636 52.8777Z" fill="black"/>
<path d="M57.8601 56.7431C56.1657 58.6493 58.9191 61.8792 61.0901 60.5025C62.5197 59.6024 62.8374 57.908 61.8314 56.796C60.7194 55.5782 58.9191 55.5782 57.8601 56.7431Z" fill="black"/>
<path d="M48.0113 63.3618C44.9402 63.8384 44.7284 63.9972 45.0461 65.0033C45.6815 67.1213 50.1822 72.3104 50.7647 71.675C51.506 70.9337 54.1005 63.9972 53.8887 63.4148C53.571 62.6205 52.8297 62.6205 48.0113 63.3618Z" fill="black"/>
<path d="M65.9082 63.8914C65.9082 64.5797 66.4907 66.433 67.232 67.9156C67.9733 69.4511 68.5557 70.8808 68.5557 71.1985C68.5557 72.6281 71.3621 70.5101 73.3212 67.5979C75.8099 63.8384 75.9687 63.9443 68.4498 62.9383C66.0141 62.6206 65.9082 62.6735 65.9082 63.8914Z" fill="black"/>
<path d="M58.9187 66.8033C58.4951 67.3328 57.3832 69.1331 56.483 70.8275L54.8945 73.8457L56.2712 74.2163C58.1245 74.6929 61.5662 74.6929 63.4195 74.2163L64.9021 73.7927L62.7841 70.0333C61.6721 67.9153 60.5072 66.115 60.2425 66.062C59.9777 65.9561 59.3953 66.2738 58.9187 66.8033Z" fill="black"/>
</g>
<defs>
<clipPath id="clip0_122_760">
<rect width="120" height="120" fill="white" transform="translate(0 0.379883)"/>
</clipPath>
</defs>
</svg>
