<svg width="46" height="49" viewBox="0 0 46 49" fill="none" xmlns="http://www.w3.org/2000/svg">
<path d="M21.5632 0.234964C21.4295 0.335665 21.3293 0.872726 21.3293 1.37622C21.3293 2.14825 21.1288 2.34965 20.0929 2.68531C19.3912 2.92028 18.4556 3.32308 18.0546 3.59161C17.3195 4.02797 17.1858 4.02797 16.4507 3.32308L15.6153 2.55105L14.5795 3.62518L13.5102 4.66573L14.2787 5.50489C14.8468 6.10909 14.9804 6.47832 14.7465 6.78042C14.5461 7.01538 14.1451 7.92168 13.8109 8.7944C13.3097 10.1706 13.1092 10.372 12.1736 10.4727C11.2046 10.5734 11.1377 10.6741 11.0375 11.9832C10.9373 13.3259 10.9707 13.393 12.0065 13.4937C12.608 13.5608 13.1761 13.8294 13.3097 14.0979C13.4434 14.3664 13.8778 15.3399 14.2787 16.2462L15.0139 17.8909L14.2453 18.6965L13.5102 19.5021L14.5126 20.5091L15.5151 21.5161L16.4507 20.7776C17.3195 20.0727 17.4531 20.0727 18.2885 20.5427C18.7563 20.8448 19.6251 21.1804 20.2266 21.3147C21.1622 21.5161 21.2958 21.6839 21.3961 22.758C21.4963 23.9664 21.5297 24 22.8329 24C24.1027 24 24.1695 23.9329 24.3366 22.8923C24.5037 21.8853 24.7042 21.6839 26.6088 20.9119L28.7473 20.0727L29.5493 20.8448L30.3847 21.6168L31.4205 20.5427L32.4898 19.5021L31.7213 18.6629L30.9193 17.8238L31.6544 16.2126C32.7905 13.6951 32.8574 13.5944 33.9935 13.4937C35.0293 13.393 35.0627 13.3259 34.9625 11.9832C34.8623 10.6741 34.7954 10.5734 33.7261 10.4056C32.8574 10.2713 32.5232 10.0364 32.3561 9.3986C32.2225 8.92867 31.8549 8.05594 31.5542 7.41818C30.9861 6.34406 30.9861 6.27692 31.7213 5.50489L32.4898 4.66573L31.4205 3.62518L30.3847 2.55105L29.5493 3.32308C28.7808 4.06154 28.6805 4.06154 27.7783 3.55804C27.2771 3.28951 26.2746 2.81958 25.6064 2.55105C24.5371 2.11469 24.3366 1.87972 24.3366 1.04056C24.3366 0.0671329 24.2698 0 23.0668 0C22.3651 0 21.6634 0.100698 21.5632 0.234964ZM27.2103 5.23636C32.4898 8.49231 32.1222 16.2797 26.542 19.2C24.6373 20.2406 21.3627 20.2406 19.458 19.2C13.5436 16.1119 13.5436 7.65315 19.458 4.8C21.8973 3.65874 24.9381 3.79301 27.2103 5.23636Z" fill="black"/>
<path d="M19.8038 6.63333C18.2748 7.46667 16.8577 9.16667 16.3729 10.7333L16 12H17.6036H19.1698L19.3563 10.3667C19.4682 9.46667 19.8784 8.13333 20.2886 7.36667C20.6988 6.6 21.0345 6 20.9972 6C20.9972 6 20.4378 6.3 19.8038 6.63333Z" fill="black"/>
<path d="M21.2571 6.83333C20.7429 7.73333 20 10.4333 20 11.4C20 11.8667 20.2286 12 21 12H22V9C22 7.33333 21.9429 6 21.8571 6C21.8 6 21.5143 6.36667 21.2571 6.83333Z" fill="black"/>
<path d="M24 8.87356V12H25H26L25.8056 10.5227C25.5833 8.83921 24.75 6.36554 24.3056 6.02198C24.0833 5.85019 24 6.67475 24 8.87356Z" fill="black"/>
<path d="M25.7353 7.34078C26.1029 8.07821 26.5441 9.45251 26.6544 10.3575L26.875 12H28.4191H30L29.6324 10.6927C29.1912 9.18436 27.5 7.17318 26.0294 6.46927L25 6L25.7353 7.34078Z" fill="black"/>
<path d="M16.0837 13.895C16.4021 15.3867 17.8667 17.6409 18.9811 18.337L20 19L19.3632 17.1768C19.0448 16.1492 18.7582 14.8232 18.7582 14.1602C18.7582 13 18.7582 13 17.3254 13C15.9245 13 15.8926 13.0331 16.0837 13.895Z" fill="black"/>
<path d="M20 13.7077C20 14.8769 20.8286 17.4923 21.4286 18.2923L21.9714 19L22 15.9846V13H21C20.1429 13 20 13.0923 20 13.7077Z" fill="black"/>
<path d="M24 15.9846V19L24.5479 18.2308C25.1233 17.4308 25.5342 16.0769 25.8082 14.1385L26 13H24.9863H24V15.9846Z" fill="black"/>
<path d="M27.1993 14.1911C27.1993 14.8377 26.9083 16.1649 26.5527 17.1519C26.197 18.1048 25.9707 18.9555 26.0031 18.9896C26.0354 19.0576 26.5527 18.7854 27.1346 18.377C28.2339 17.6623 29.5594 15.5183 29.915 13.9189C30.109 13.034 30.0767 13 28.6542 13C27.1993 13 27.1993 13 27.1993 14.1911Z" fill="black"/>
<path d="M3.5325 13.6447C3.87798 14.1876 3.84343 14.4251 3.39431 14.9341C3.08338 15.2734 2.42698 16.3592 1.94331 17.3093C-0.64777 22.3991 -0.64777 29.0836 1.94331 34.1055C2.91065 35.9717 3.6016 36.4129 4.3962 35.6324C4.87987 35.1913 4.84532 34.9877 4.05072 33.6644C1.39055 29.0836 1.18326 23.417 3.46341 18.6666C4.87987 15.6467 5.32899 15.1716 6.33087 15.6127C7.12547 15.986 7.12547 15.9521 6.77999 14.493L6.39996 13H4.77622C3.22157 13 3.15248 13.0339 3.5325 13.6447Z" fill="black"/>
<path d="M41.517 14.4206C41.239 14.7118 41.4823 15.4235 42.351 17.0735C44.8878 21.8941 44.6098 27.7176 41.656 32.0529C40.5788 33.6706 40.1618 33.8971 39.4668 33.3471C38.9455 32.9588 38.9108 33.0235 39.1193 34.0265C39.2583 34.6088 39.3625 35.3206 39.3625 35.5471C39.3625 35.8706 39.8838 36 41.378 36C42.8723 35.9676 43.2198 35.9029 42.768 35.6441C41.934 35.1912 41.9688 35.0294 43.3936 32.7647C46.6601 27.7176 46.8686 21.2471 43.9496 15.6824C43.0808 14 42.2815 13.5794 41.517 14.4206Z" fill="black"/>
<path d="M27.2476 29.2395C27.1061 29.3436 27 33.1954 27 37.7412V46H28.4502C29.3698 46 30.2186 45.7571 30.7846 45.306C31.2797 44.9243 32.1286 44.612 32.6238 44.612C33.1543 44.612 33.9325 44.9243 34.3569 45.306C34.8521 45.7571 35.5949 46 36.5498 46H38L37.8939 42.9463L37.7878 39.9274L36.373 39.8232C35.5949 39.7538 34.6752 39.4415 34.3569 39.1639C33.119 38.0882 33.8617 36.2838 35.6656 35.8327C36.0547 35.7632 34.7106 35.6591 32.6592 35.6244C30.254 35.5897 28.7685 35.4509 28.4855 35.1733C28.2379 34.9304 28.0611 33.82 28.0611 32.5708C28.0611 30.107 28.4502 29.6906 30.7846 29.6906C31.7749 29.6906 31.9871 29.5865 31.5981 29.3436C30.9968 28.9619 27.6013 28.8578 27.2476 29.2395Z" fill="black"/>
<path d="M12 30.2698C12 30.4196 12.275 30.6294 12.5844 30.7194C13.4094 31.0191 23 31.109 23 30.8393C23 30.2398 21.2469 30 16.8469 30C14.1656 30 12 30.1199 12 30.2698Z" fill="black"/>
<path d="M10 35.6471C10 39.8608 10.0667 40.3794 10.7 41.1573C11.0667 41.611 11.5333 42 11.7 42C11.8667 42 12 39.8608 12 37.0408C12 32.6327 11.9333 31.9845 11.4 31.5307C10.1333 30.3962 10 30.7852 10 35.6471Z" fill="black"/>
<path d="M29 32.4999V33.9997H32.1834C35.6258 33.9997 35.5518 34.0664 33.8861 32.0666C33.0717 31.1 32.8126 31 30.9989 31H29V32.4999Z" fill="black"/>
<path d="M13.0814 32.4098C13.0133 32.6553 12.9793 35.145 13.0133 37.9153L13.1154 43H18.5577H24V37.5646V32.1293L18.6257 32.0241C14.4419 31.9539 13.2174 32.0241 13.0814 32.4098ZM22.0612 35.8814C22.1632 36.4425 21.8231 36.5126 18.7618 36.5126C16.1087 36.5126 15.3263 36.4074 15.3263 36.0568C15.3263 35.1801 15.7685 35.0749 18.8638 35.1801C21.4829 35.2853 21.9591 35.3905 22.0612 35.8814Z" fill="black"/>
<path d="M35.0599 37.5425C34.7765 38.3927 35.5204 39 36.8312 39C38.0357 39 38.3545 38.3522 37.5752 37.4616C37.0083 36.8138 35.2725 36.8543 35.0599 37.5425Z" fill="black"/>
<path d="M8.10153 43.5846C8.00135 43.8774 7.96796 44.4995 8.03475 44.9753C8.13492 45.7438 8.30189 45.817 10.4056 45.9268C12.2756 46 12.8099 45.8902 13.5445 45.2681C14.6465 44.3165 16.049 44.3165 16.817 45.2681C17.3513 45.9268 17.8522 46 21.7257 46H26V44.5361C26 43.0356 25.2988 42.4501 24.8646 43.6212C24.5975 44.4263 12.8099 44.4263 11.8415 43.6212C10.9733 42.8893 8.33528 42.8893 8.10153 43.5846Z" fill="black"/>
<path d="M14.4163 45.7768C13.8425 46.5683 13.8712 47.7952 14.4449 48.6658C14.8753 49.2595 16.2524 49.022 16.654 48.2701C17.1704 47.2807 17.113 46.6474 16.4532 45.7372C15.736 44.7478 15.1622 44.7478 14.4163 45.7768Z" fill="black"/>
<path d="M31.5416 45.4759C30.9496 46.0679 30.8017 47.9227 31.3048 48.5936C31.808 49.2645 33.1991 49.0671 33.643 48.2779C34.1758 47.2913 34.1166 46.6599 33.4359 45.7522C32.7551 44.8445 32.2815 44.7656 31.5416 45.4759Z" fill="black"/>
</svg>
