<svg width="113" height="113" viewBox="0 0 113 113" fill="none" xmlns="http://www.w3.org/2000/svg">
<path d="M32.9067 0.822479C31.7333 1.19581 30.24 2.10248 29.4933 2.79581C26.6667 5.46248 26.6667 5.30247 26.6667 28.0225V49.1958L24.96 48.8225C21.2267 48.0225 18.6667 45.0358 18.6667 41.4625C18.6667 39.0625 19.3067 37.6758 21.44 35.4358C23.1467 33.6225 23.04 32.0225 21.12 32.0225C18.4 32.0225 15.4667 36.9291 15.4667 41.4625C15.4667 46.8491 19.36 51.4358 24.4267 52.1291L26.6667 52.4491V58.2091C26.6667 63.6491 26.6133 64.0225 25.6 64.0225C24.8533 64.0225 24.4267 63.4358 24 61.7291C23.0933 58.2625 23.04 58.1558 21.9733 58.1558C21.44 58.1558 20.1067 57.6758 18.9333 57.0891C16.2667 55.7025 15.84 55.7558 13.44 57.3558L11.4667 58.6891L10.1867 57.4091L8.90667 56.0758L10.3467 53.8891L11.7867 51.7025L10.3467 48.1291C8.74667 44.1291 8.64 43.9691 5.81333 43.5425C3.84 43.2225 3.73333 43.1158 3.73333 41.3558C3.73333 39.7558 3.94667 39.4891 5.22667 39.1691C7.73333 38.6358 9.06667 37.9425 9.38667 36.9825C9.54667 36.4491 10.1867 34.9025 10.7733 33.5158L11.8933 31.0091L10.4533 28.7691L8.96 26.5825L10.1867 25.3025L11.36 24.0758L13.6533 25.4091L16 26.7958L19.3067 25.4625C23.1467 23.9158 23.7867 23.0091 24.32 18.4758L24.6933 15.3825L23.1467 15.5958C21.76 15.7558 21.5467 16.0225 21.12 18.3158C20.6933 20.6625 20.48 20.9825 18.4 21.9958L16.16 23.1158L14.08 21.6758C12.96 20.9291 11.6267 20.2891 11.2 20.2891C10.08 20.2891 5.33333 25.1425 5.33333 26.3158C5.33333 26.8491 5.97333 28.1825 6.72 29.3025L8.05333 31.3825L6.98667 33.5691C6.02667 35.4358 5.54667 35.8091 3.68 36.0758C0.64 36.5558 0 37.4091 0 41.0891C0 42.7958 0.16 44.5558 0.32 45.0358C0.48 45.4625 1.86667 46.1025 3.46667 46.4758C6.08 47.0625 6.34667 47.2758 7.14667 49.2491C8 51.3825 7.94667 51.4891 6.66667 53.4625C5.92 54.5825 5.33333 55.9158 5.33333 56.4491C5.33333 57.5158 10.08 62.4225 11.0933 62.4225C11.4667 62.4225 12.6933 61.7825 13.8667 61.0358C16 59.6491 16 59.5958 18.3467 60.5025C20.5333 61.3558 20.6933 61.5158 21.12 64.1825L21.6 66.9558L24.16 67.1158L26.6667 67.2758V86.4758C26.6667 107.489 26.6667 107.382 29.8667 110.049C30.7733 110.849 32.3733 111.702 33.4933 112.022C36.16 112.716 76.3733 112.716 79.04 112.022C80.16 111.702 81.76 110.849 82.6667 110.049C85.92 107.329 85.8667 107.649 85.8667 84.5558V63.3825L87.6267 63.7558C91.3067 64.5558 93.8667 67.5425 93.8667 71.1158C93.8667 73.5158 93.2267 74.9025 91.0933 77.1425C89.3867 78.9558 89.4933 80.5558 91.4133 80.5558C94.1333 80.5558 97.0667 75.6491 97.0667 71.1158C97.0667 65.7291 93.1733 61.1425 88.1067 60.4491L85.8667 60.1291V54.3691C85.8667 48.9291 85.92 48.5558 86.9333 48.5558C87.68 48.5558 88.1067 49.1425 88.5333 50.7958C89.44 54.3158 89.4933 54.4225 90.56 54.4225C91.0933 54.4225 92.4267 54.9025 93.6 55.4891C96.2667 56.8758 96.6933 56.8225 99.0933 55.2225L101.067 53.8891L102.347 55.1691L103.627 56.5025L102.187 58.6891L100.747 60.8758L102.187 64.4491C103.787 68.4491 103.893 68.6091 106.72 69.0358C108.693 69.3558 108.8 69.4625 108.8 71.2225C108.8 72.8225 108.587 73.0891 107.36 73.4091C104.8 73.9425 103.467 74.6358 103.147 75.5958C102.987 76.1291 102.347 77.6758 101.76 79.0625L100.64 81.5691L102.08 83.8091L103.573 85.9958L102.347 87.2758L101.173 88.5025L98.88 87.1691L96.5333 85.7825L93.2267 87.1158C89.3867 88.6625 88.7467 89.5691 88.2133 94.1025L87.84 97.1958L89.3867 96.9825C90.7733 96.8225 90.9867 96.5558 91.4133 94.2625C91.84 91.9158 92.0533 91.5958 94.1333 90.5825L96.3733 89.4625L98.4533 90.9025C99.5733 91.6491 100.907 92.2891 101.333 92.2891C102.453 92.2891 107.2 87.4358 107.2 86.2625C107.2 85.7291 106.56 84.3958 105.813 83.2758L104.48 81.1958L105.547 79.0625C106.453 77.2491 106.987 76.8758 108.8 76.5558C111.893 76.0225 112.533 75.1691 112.533 71.4891C112.533 69.7825 112.373 68.0225 112.213 67.5425C112.053 67.1158 110.667 66.4758 109.067 66.1025C106.453 65.5158 106.187 65.3025 105.387 63.3291C104.533 61.1958 104.587 61.0891 105.867 59.1158C106.613 57.9958 107.2 56.6625 107.2 56.1291C107.2 55.0625 102.453 50.1558 101.44 50.1558C101.067 50.1558 99.84 50.7958 98.6667 51.5425C96.5333 52.9291 96.5333 52.9825 94.1867 52.0758C92 51.2225 91.84 51.0625 91.4133 48.3958L90.9333 45.6225L88.4267 45.4625L85.8667 45.3025V26.1025C85.8667 5.08914 85.8667 5.19581 82.6667 2.52914C81.76 1.72914 80.16 0.875809 79.04 0.555809C75.84 -0.297523 35.4667 -0.13752 32.9067 0.822479ZM80.8533 5.56915L82.6667 7.38248V56.2891V105.196L80.8533 107.009L79.04 108.822H56.2667H33.4933L31.68 107.009L29.8667 105.196V56.2891V7.38248L31.68 5.56915L33.4933 3.75581H56.2667H79.04L80.8533 5.56915Z" fill="black"/>
<path d="M49.7062 8.12932C48.7995 9.03599 48.9062 10.5293 49.9195 10.9027C50.9862 11.3293 61.5462 11.3293 62.6129 10.9027C63.0929 10.7427 63.4662 10.156 63.4662 9.67599C63.4662 7.80932 62.3462 7.48932 56.2662 7.48932C52.3729 7.48932 50.1329 7.70266 49.7062 8.12932Z" fill="black"/>
<path d="M42.1339 51.0091C39.4139 53.6225 37.8672 55.5425 37.8672 56.2891C37.8672 57.6225 46.0272 65.8358 47.0405 65.5158C47.3605 65.4091 47.8939 64.8758 48.2139 64.3958C48.6939 63.6491 48.2139 62.9025 45.4405 60.1291C43.6272 58.3158 42.1339 56.5558 42.1339 56.2891C42.1339 56.0225 43.6272 54.2625 45.4405 52.4491C48.2139 49.6758 48.6939 48.9291 48.2139 48.1825C47.8939 47.7025 47.3605 47.1691 47.0405 47.0625C46.6672 46.9558 44.4805 48.7158 42.1339 51.0091Z" fill="black"/>
<path d="M57.2808 47.3824C56.6941 47.7024 52.8008 62.4757 52.8008 64.2357C52.8008 65.3024 54.4541 65.7824 55.3074 64.9291C55.9474 64.2891 59.7341 50.1557 59.7341 48.3424C59.7341 47.9157 59.3608 47.4357 58.8808 47.2757C57.8674 46.9024 58.0274 46.9024 57.2808 47.3824Z" fill="black"/>
<path d="M64.6394 47.5958C63.5728 48.6625 63.8928 49.2491 67.1994 52.5558C68.9594 54.3158 70.3994 55.9691 70.3994 56.2358C70.3994 56.5558 68.9061 58.3158 67.0928 60.1291C64.3194 62.9025 63.8394 63.6491 64.3194 64.3958C64.6394 64.8758 65.1728 65.4091 65.4928 65.5158C66.5061 65.8358 74.6661 57.6225 74.6661 56.2891C74.6661 55.1691 66.8261 46.9558 65.7594 46.9558C65.4928 46.9558 65.0128 47.2225 64.6394 47.5958Z" fill="black"/>
<path d="M94.0804 16.2894C93.547 17.6227 94.2937 18.796 95.5737 18.5827C96.4804 18.476 96.8537 17.996 96.9604 16.9294C97.1204 15.7027 96.9604 15.4894 95.7337 15.4894C94.987 15.4894 94.2404 15.8627 94.0804 16.2894Z" fill="black"/>
<path d="M94.0804 23.7557C93.547 25.089 94.2937 26.2623 95.5737 26.049C96.4804 25.9423 96.8537 25.4623 96.9604 24.3957C97.1204 23.169 96.9604 22.9557 95.7337 22.9557C94.987 22.9557 94.2404 23.329 94.0804 23.7557Z" fill="black"/>
<path d="M94.0804 31.2225C93.547 32.5558 94.2937 33.7291 95.5737 33.5158C96.4804 33.4091 96.8537 32.9291 96.9604 31.8625C97.1204 30.6358 96.9604 30.4225 95.7337 30.4225C94.987 30.4225 94.2404 30.7958 94.0804 31.2225Z" fill="black"/>
<path d="M16.1591 78.7958C15.1991 79.1691 15.3058 81.5691 16.2658 81.9425C17.2258 82.3158 18.6658 81.3025 18.6658 80.2358C18.6658 79.3825 17.0658 78.4758 16.1591 78.7958Z" fill="black"/>
<path d="M16.1591 86.2626C15.1991 86.6359 15.3058 89.0359 16.2658 89.4093C17.2258 89.7826 18.6658 88.7693 18.6658 87.7026C18.6658 86.8493 17.0658 85.9426 16.1591 86.2626Z" fill="black"/>
<path d="M16.1591 93.7289C15.1991 94.1023 15.3058 96.5023 16.2658 96.8756C17.2258 97.2489 18.6658 96.2356 18.6658 95.1689C18.6658 94.3156 17.0658 93.4089 16.1591 93.7289Z" fill="black"/>
</svg>
