<svg width="114" height="114" viewBox="0 0 114 114" fill="none" xmlns="http://www.w3.org/2000/svg">
<path fill-rule="evenodd" clip-rule="evenodd" d="M67.1503 0C66.3668 0.0109325 65.5902 0.148424 64.8508 0.407142C71.4353 4.731 63.6684 10.9929 67.297 16.2857C67.047 14.5054 67.3306 12.6911 68.1121 11.0716C68.8936 9.45212 70.1379 8.10007 71.6881 7.18607C72.8501 6.22114 73.5962 5.87507 73.3475 4.27907C72.9439 1.66521 69.4538 0 67.1503 0ZM76.5277 1.68557C75.6185 6.25779 74.4891 6.42472 71.1336 9.36836C69.8249 10.3987 68.9013 11.8388 68.5115 13.4568C68.1218 15.0749 68.2886 16.7769 68.985 18.2889C55.1227 12.9146 37.3546 9.66557 24.3282 18.9647C19.6436 22.3074 16.7855 27.1076 11.0082 29.0659C7.27355 30.3444 3.60414 29.9657 1.26387 33.6626C0.407965 34.7301 -0.0391488 36.0671 0.00269156 37.434C0.044532 38.8008 0.57259 40.1081 1.49218 41.1214C2.18937 41.8339 3.53075 42.2899 4.08524 43.0146C4.40733 43.4218 4.39918 43.8289 4.70496 44.3704C5.24537 45.6324 6.02636 46.7773 7.00446 47.7416C7.6038 48.2342 9.66275 48.7146 10.0134 49.2399C10.4537 49.8954 9.31212 52.497 10.2702 52.9041C10.9144 53.2014 12.8021 49.875 12.9856 49.5819C12.6105 52.1998 12.1172 56.8453 15.0649 52.9774C16.4634 51.1412 16.549 50.5346 18.9015 50.1274C20.407 49.8663 21.9286 49.7085 23.4557 49.6551C32.1795 49.3504 40.6881 52.3988 47.2282 58.1722C53.7682 63.9457 57.8415 72.0043 58.6087 80.6876C58.1683 78.6519 55.506 75.3947 53.0271 76.1683C51.9711 76.494 51.5797 78.3139 50.8866 79.3684C50.0103 80.7055 48.9305 81.8978 47.6861 82.9024C47.8967 80.9286 47.7977 78.9341 47.3925 76.9907C46.6505 80.0361 45.1623 85.0888 41.4154 84.2704C40.1672 84.0801 38.9977 83.5433 38.0404 82.7212C37.083 81.8991 36.3763 80.8248 36.001 79.6209C35.5158 76.5266 38.7898 72.8989 33.5262 72.6424C22.9664 72.1254 25.4086 87.6334 31.6425 91.6764C30.2098 91.8346 28.8123 92.2238 27.5043 92.8286C31.4642 95.1251 35.9262 96.4206 40.5019 96.6022C45.0776 96.7838 49.6284 95.8461 53.7584 93.8707C57.8884 91.8953 61.4725 88.942 64.1987 85.2678C66.9249 81.5935 68.7108 77.3097 69.4008 72.789C70.3082 76.9291 70.2873 81.2183 69.3397 85.3494C68.8331 87.5447 68.0752 89.6744 67.0809 91.6967C65.7332 94.4282 63.9423 96.9183 61.7807 99.066C60.5005 100.332 58.152 101.607 57.3448 102.897C62.2862 102.243 67.1147 100.917 71.6963 98.9561C66.9536 105.443 60.6374 110.62 53.341 114C61.1642 113.447 68.7265 110.959 75.346 106.759C81.9655 102.559 87.434 96.7794 91.2583 89.9419C90.0395 96.7802 87.3324 103.268 83.3283 108.947C88.7139 105.347 93.2959 100.673 96.7865 95.2203C100.277 89.7671 102.601 83.6522 103.612 77.2594C104.616 81.9391 104.903 86.7437 104.464 91.5094C108.888 85.3707 111.877 78.3191 113.21 70.8739C114.543 63.4288 114.186 55.7799 112.166 48.4907C110.621 42.8243 108.304 37.3966 105.28 32.3597C104.112 30.3971 102.834 28.5022 101.451 26.6841C100.909 25.9798 98.01 23.4026 98.01 22.6127C97.9856 22.6914 97.9652 22.6914 97.9489 22.6127C97.9489 35.8367 83.6789 44.3256 71.7289 40.7835C76.2728 40.4316 80.5676 38.5692 83.9273 35.4939C87.287 32.4186 89.5179 28.3078 90.2635 23.8179C90.9238 19.1074 89.9115 14.3148 87.4024 10.2719C84.8933 6.22907 81.0457 3.19117 76.5277 1.68557Z" fill="black"/>
</svg>
