<svg width="112" height="112" viewBox="0 0 112 112" fill="none" xmlns="http://www.w3.org/2000/svg">
<path d="M56 112C86.9279 112 112 86.9279 112 56C112 25.0721 86.9279 0 56 0C25.0721 0 0 25.0721 0 56C0 86.9279 25.0721 112 56 112Z" fill="black"/>
<path d="M50.0039 32H56.7157L54.8188 42.1086H60.8498C64.1574 42.1795 66.6212 42.9204 68.2428 44.3316C69.8964 45.7425 70.383 48.4248 69.7022 52.3762L66.4434 70H59.6341L62.7467 53.1699C63.0707 51.4055 62.9736 50.1532 62.4551 49.4123C61.9365 48.6715 60.8179 48.3011 59.0992 48.3011L53.7002 48.2482L49.7118 70H43L50.0039 32Z" fill="#D9D9D9"/>
<path fill-rule="evenodd" clip-rule="evenodd" d="M18.902 42H31.837C35.6335 42.0349 38.3849 43.2368 40.0904 45.6036C41.796 47.9709 42.3589 51.2035 41.7797 55.3024C41.5549 57.1756 41.0558 59.0123 40.2835 60.8145C39.5433 62.6163 38.5141 64.2413 37.1947 65.6902C35.5855 67.5273 33.8641 68.6931 32.0301 69.1883C30.1961 69.6832 28.2973 69.9302 26.3348 69.9302H20.543L18.7089 80H12L18.902 42ZM21.6531 63.9413L24.5394 48.0948H25.5143C25.8686 48.0948 26.2383 48.0767 26.6244 48.0419C29.1989 48.0066 31.338 48.2716 33.0438 48.8367C34.7811 49.4017 35.3603 51.5396 34.7811 55.2495C34.0738 59.6664 32.6894 62.2454 30.6304 62.9873C28.5714 63.6943 25.997 64.0296 22.908 63.9943H22.2323C22.0392 63.9943 21.8462 63.9762 21.6531 63.9413Z" fill="#D9D9D9"/>
<path fill-rule="evenodd" clip-rule="evenodd" d="M89.837 42H76.9019L70 80H76.7088L78.5432 69.9302H84.335C86.2974 69.9302 88.1961 69.6832 90.0301 69.1883C91.8644 68.6931 93.5855 67.5273 95.1947 65.6902C96.5141 64.2413 97.5432 62.6163 98.2834 60.8145C99.0557 59.0123 99.5549 57.1756 99.7797 55.3024C100.359 51.2035 99.7963 47.9709 98.0904 45.6036C96.3848 43.2368 93.6338 42.0349 89.837 42ZM82.5394 48.0948L79.6533 63.9413C79.8463 63.9762 80.0394 63.9943 80.2325 63.9943H80.908C83.9972 64.0296 86.5714 63.6943 88.6306 62.9873C90.6894 62.2454 92.0738 59.6664 92.7814 55.2495C93.3607 51.5396 92.7814 49.4017 91.0438 48.8367C89.3382 48.2716 87.199 48.0066 84.6244 48.0419C84.2383 48.0767 83.8688 48.0948 83.5143 48.0948H82.5394Z" fill="#D9D9D9"/>
</svg>
