<svg width="148" height="52" viewBox="0 0 148 52" fill="none" xmlns="http://www.w3.org/2000/svg">
<path d="M132.897 1.22566C138.413 1.22566 142.44 2.36378 145.329 3.67699L142.921 12.5631C140.951 11.6 137.493 10.2431 132.722 10.2431C127.951 10.2431 125.631 12.388 125.631 14.9268C125.631 18.0348 128.345 19.4355 134.648 21.7993C143.228 24.9948 147.299 29.4597 147.211 36.3322C147.211 44.5179 140.908 51.4341 127.557 51.4341C121.997 51.4341 116.526 49.9896 113.768 48.4575L116 39.3526C118.977 40.8409 123.529 42.373 128.213 42.373C133.291 42.373 135.961 40.3156 135.961 37.1201C135.961 34.056 133.685 32.3488 127.819 30.2477C120.815 27.7963 115.957 24.1631 114.731 18.6476V32.7865C114.731 46.619 108.077 51.4779 97.3966 51.4779C94.8577 51.4779 91.5747 51.0402 89.386 50.3398L90.6116 41.4537C92.1437 41.979 94.0698 42.3292 96.2584 42.3292C100.898 42.3292 103.788 40.2281 103.788 32.6552V2.01359H114.775V13.0008C116.219 6.1721 122.785 1.22566 132.897 1.22566ZM14.8831 1.6634C21.668 1.6634 26.5269 2.97661 29.7661 5.55926C32.5239 7.74795 34.4937 11.2499 34.8877 15.3646H54.936L58.3942 21.2303C59.401 23.025 60.364 24.8197 61.2832 26.4831H61.4146C62.3776 24.6008 63.253 22.8061 64.1723 21.0552L67.2802 15.3646H88.1603V50.7338H66.93L63.3844 44.3866C62.3776 42.6356 61.5021 40.8409 60.6266 39.0462H60.4078C59.5323 40.9284 58.613 42.6356 57.7376 44.3866L54.4108 50.7338H33.662V23.6378C32.9178 25.4763 31.8673 27.0959 30.4665 28.4092C26.7458 31.9548 21.1865 33.5307 14.6642 33.5307C13.2197 33.5307 11.9065 33.4431 10.8997 33.3118V50.69H0V2.6702C3.41435 2.10114 8.18569 1.6634 14.8831 1.6634ZM77.1731 18.3412L67.5866 32.2175L77.1731 47.3194V18.3412ZM44.6492 18.3412V47.2756L54.367 32.7428L44.6492 18.3412ZM15.4521 9.98041C13.2197 9.98041 11.6876 10.1993 10.8997 10.4181V24.7322C11.8189 24.951 13.0008 25.0386 14.5767 25.0386C20.4423 25.0386 24.0318 22.1057 24.0318 17.1155C24.0318 12.6506 20.9238 9.98041 15.4521 9.98041ZM39.1775 0C42.7232 0 44.9556 2.36378 44.9994 5.55926C44.9994 8.57965 42.7232 11.031 39.0899 11.031C35.6318 11.031 33.3118 8.57965 33.3994 5.55926C33.3118 2.36378 35.6318 0 39.1775 0ZM82.6886 0C86.2343 0 88.4667 2.36378 88.5105 5.55926C88.5105 8.57965 86.2343 11.031 82.601 11.031C79.1429 11.031 76.8229 8.57965 76.9104 5.55926C76.8229 2.36378 79.1429 0 82.6886 0Z" fill="black"/>
</svg>
