<svg width="120" height="121" viewBox="0 0 120 121" fill="none" xmlns="http://www.w3.org/2000/svg">
<g clip-path="url(#clip0_122_917)">
<path d="M53.6545 8.59898C53.3105 8.94302 52.9664 9.74578 52.9664 10.3192C52.9664 11.0646 52.5077 11.3513 51.1889 11.3513C47.9205 11.3513 47.2324 12.1541 47.2324 15.9385V19.3789H56.4068H65.5812V15.9385C65.5812 12.2687 64.8931 11.3513 61.9115 11.3513C60.9367 11.3513 60.2486 10.8926 59.7325 9.74578C59.1018 8.4843 58.5284 8.14026 56.6935 8.02559C55.3747 7.9109 54.0559 8.19761 53.6545 8.59898ZM58.127 9.9178C59.6179 11.7527 57.3816 14.5623 55.432 13.3009C53.4251 12.0394 54.1132 9.0577 56.4068 9.0577C56.9802 9.0577 57.7256 9.45909 58.127 9.9178Z" fill="black"/>
<path d="M34.7311 14.3328C33.7563 15.3075 33.7563 66.4548 34.7311 67.4296C35.1898 67.8883 38.5729 68.1177 46.0844 68.1177H56.807L56.5203 66.3975L56.2909 64.6773H46.8872H37.4834V40.8812V17.0851H41.2105H44.9376V15.3649V13.6447H40.1784C37.254 13.6447 35.1325 13.9314 34.7311 14.3328Z" fill="black"/>
<path d="M67.873 15.3652V17.0854H71.6001H75.3272V31.4204V45.7554H77.0474H78.7676V30.0442C78.7676 16.2826 78.653 14.2757 77.8502 13.989C77.3341 13.817 74.9259 13.645 72.4029 13.645H67.873V15.3652Z" fill="black"/>
<path d="M48.549 29.8144C45.6247 32.7388 45.51 32.7388 44.4205 31.764C41.8402 29.4131 40.2921 32.9681 42.815 35.3191C43.5604 36.0072 44.6499 36.5806 45.2806 36.5806C46.8862 36.5806 54.3977 28.897 53.939 27.7502C53.3083 26.0873 51.588 26.7754 48.549 29.8144Z" fill="black"/>
<path d="M57.7822 27.6931C56.9221 29.9294 57.8396 30.2734 64.319 30.2734C69.1929 30.2734 70.7411 30.1014 71.3145 29.4133C71.8879 28.7253 71.8879 28.3812 71.3145 27.6931C70.7411 27.0051 69.1929 26.833 64.319 26.833C59.3304 26.833 58.0116 27.0051 57.7822 27.6931Z" fill="black"/>
<path d="M57.9541 33.5415C57.7248 33.7136 57.5527 34.5163 57.5527 35.2617C57.5527 36.4659 57.7821 36.5806 60.7064 36.5806C64.0895 36.5806 65.2363 35.6631 63.8601 34.0003C63.1147 33.1402 58.6995 32.7961 57.9541 33.5415Z" fill="black"/>
<path d="M48.5509 48.1636C45.6839 50.9732 45.5118 51.0879 44.4797 50.1705C42.9315 48.737 41.498 48.909 41.498 50.5145C41.498 52.0053 44.193 54.9297 45.5692 54.9297C46.9453 54.9297 54.3422 47.1314 53.9408 46.0993C53.3101 44.4365 51.5899 45.1245 48.5509 48.1636Z" fill="black"/>
<path d="M57.7821 46.0421C57.5528 46.5008 57.6101 47.3036 57.7821 47.8196C58.5276 49.7692 72.1171 47.877 71.4291 45.8701C71.085 44.7806 58.1835 44.8953 57.7821 46.0421Z" fill="black"/>
<path d="M72.746 49.1383C65.1197 51.1452 59.7871 57.9686 59.7871 65.7669C59.7871 67.9458 60.0738 70.7554 60.4752 72.0169C61.622 75.8587 64.8904 79.6431 68.9615 81.7074C72.1152 83.3702 73.09 83.5996 77.1611 83.5996C80.9456 83.5996 82.2644 83.3129 84.8447 82.0514C88.5145 80.2739 91.6108 77.1202 93.2737 73.3357C95.0512 69.494 94.9939 62.4985 93.159 58.9434C90.0626 52.9227 84.6727 49.2529 78.3079 48.9089C76.1864 48.7942 73.7207 48.8516 72.746 49.1383ZM75.8997 53.5534C75.8997 55.7324 78.1359 55.4457 78.5946 53.2094C78.9387 51.2598 79.4547 51.2598 83.7552 53.3814C86.6796 54.7576 88.5718 56.7071 90.12 59.8035C92.1842 63.932 92.2416 64.5627 90.4067 64.7921C89.2599 64.9068 88.7438 65.3081 88.6291 66.2256C88.4571 67.2577 88.6865 67.5444 89.8333 67.5444C91.7255 67.5444 91.8975 67.8884 91.2094 70.2967C89.7759 75.228 85.3608 79.4711 80.6589 80.4459C79.0534 80.7326 78.824 80.6179 78.652 79.4711C78.5373 78.611 78.0212 78.095 77.2185 77.9803C76.129 77.8083 75.8997 78.0376 75.8997 79.2418C75.8997 80.0445 75.5556 80.7326 75.2116 80.7326C70.223 80.7326 63.9729 75.0559 62.9981 69.666C62.5968 67.6591 62.6541 67.5444 64.1449 67.5444C65.4064 67.5444 65.6358 67.315 65.4638 66.2256C65.3491 65.4228 64.833 64.9068 63.9156 64.7921C62.7688 64.6201 62.6541 64.3334 62.9408 62.7852C63.8582 58.2553 68.4455 53.4388 73.09 52.1773C75.4983 51.5465 75.8997 51.7186 75.8997 53.5534Z" fill="black"/>
<path d="M67.7022 57.3952C67.5302 57.8539 67.5875 58.542 67.8743 58.9433C68.505 59.9755 70.2825 59.1727 70.0532 57.9686C69.8238 56.7071 68.1036 56.3057 67.7022 57.3952Z" fill="black"/>
<path d="M84.1584 57.5098C83.929 58.0259 84.0437 58.714 84.3877 59.058C85.2478 59.9181 86.9107 59.1153 86.6813 57.9685C86.452 56.6497 84.6171 56.3057 84.1584 57.5098Z" fill="black"/>
<path d="M70.3383 60.4343C70.1663 61.0077 70.7971 62.0972 72.1159 63.4733C73.2627 64.6201 74.1801 65.9963 74.1801 66.5697C74.1801 67.0857 74.8109 67.9458 75.6136 68.4619C76.8178 69.2647 77.3912 69.322 78.538 68.7486C79.3407 68.4046 80.9462 68.1179 82.1504 68.1179C84.5587 68.1179 85.8775 67.0857 85.3041 65.5949C84.9027 64.6201 84.1573 64.3908 79.6274 63.8747C77.3912 63.588 76.359 63.0719 74.7535 61.5238C72.5746 59.4022 70.9117 58.9435 70.3383 60.4343Z" fill="black"/>
<path d="M67.5298 73.9091C67.0711 74.7118 68.734 76.3747 69.5367 75.916C70.6262 75.2279 70.2822 73.2783 69.078 73.2783C68.4473 73.2783 67.7592 73.565 67.5298 73.9091Z" fill="black"/>
<path d="M83.9297 74.3679C83.9297 75.6294 85.1338 76.2601 86.2233 75.5721C87.2554 74.9413 86.4526 73.2785 85.0765 73.2785C84.3311 73.2785 83.9297 73.6798 83.9297 74.3679Z" fill="black"/>
<path d="M57.9541 51.8907C57.7248 52.0627 57.5527 52.8655 57.5527 53.6109C57.5527 55.6178 59.9037 55.3884 61.4519 53.2095L62.7707 51.4893H60.5344C59.3303 51.4893 58.1261 51.6613 57.9541 51.8907Z" fill="black"/>
</g>
<defs>
<clipPath id="clip0_122_917">
<rect width="120" height="120" fill="white" transform="translate(0 0.0996094)"/>
</clipPath>
</defs>
</svg>
