<svg width="120" height="120" viewBox="0 0 120 120" fill="none" xmlns="http://www.w3.org/2000/svg">
<g clip-path="url(#clip0_122_653)">
<path d="M77.1524 57.9472V66.8112H74.2969V56.5591L77.1524 57.9472Z" fill="black"/>
<path d="M36.7383 65.165L38.8799 67.029L47.9026 62.3293L46.9706 60.0885L36.7383 65.165ZM74.2963 59.454L81.5541 55.6863L80.3247 53.5645L74.2963 56.5588V59.454Z" fill="black"/>
<path d="M53.8714 57.2531V66.8112H51.1349V53.188L53.8714 57.2531ZM36.7383 65.1653L38.8799 67.0293L43.0046 56.7177L41.676 53.188L36.7383 65.1653Z" fill="black"/>
<path d="M41.6758 53.188H44.4916L49.7069 66.8112H46.8118L41.6758 53.188ZM54.2877 53.188L60.2962 62.4883V66.8112L51.1347 53.188H54.2877ZM65.452 53.188H68.2877V66.8112H65.452V53.188ZM74.2962 55.6866H69.9336V53.188H80.1064L81.554 55.6866H77.1517H74.2962Z" fill="black"/>
<path d="M89.9428 61.6353V66.8109H87.127V61.6353" fill="black"/>
<path d="M91.8862 53.188L87.127 61.6356H89.9428L94.8805 53.188H91.8862Z" fill="black"/>
<path d="M87.1268 61.6356L82.209 53.188H85.3025L88.6141 58.9784L87.1268 61.6356Z" fill="black"/>
<path d="M26.1702 54.7744C26.1702 56.6583 27.3401 57.7886 29.6801 58.3835L32.1588 58.9585C34.3798 59.4741 35.7282 60.7433 35.7282 62.8056C35.7481 63.6979 35.4506 64.5704 34.9152 65.2843C34.9152 63.222 33.8444 62.1115 31.2863 61.4373L28.8472 60.8821C26.884 60.4458 25.377 59.3948 25.377 57.154C25.377 56.3013 25.6546 55.4486 26.1702 54.7744Z" fill="black"/>
<path d="M60.2969 61.7942V53.188H63.0334V66.8112H60.2969V61.7942Z" fill="black"/>
<path d="M33.3875 62.2898C34.4385 62.9641 34.9144 63.9159 34.9144 65.2842C34.0221 66.4145 32.4952 67.0292 30.6906 67.0292C27.6566 67.0292 25.4952 65.5221 25.0391 62.9244H27.9541C28.3308 64.1142 29.3223 64.6694 30.6708 64.6694C32.277 64.6893 33.3677 63.8168 33.3875 62.2898ZM26.1694 54.7544C27.0221 53.6439 28.4895 52.9697 30.2742 52.9697C33.3875 52.9697 35.1722 54.6156 35.6283 56.9159H32.8124C32.4952 56.0037 31.7218 55.2898 30.3138 55.2898C28.7869 55.3097 27.7558 56.1822 27.6963 57.5703C26.6744 57.0068 26.1297 55.9046 26.1694 54.7544Z" fill="black"/>
</g>
<defs>
<clipPath id="clip0_122_653">
<rect width="120" height="120" fill="white"/>
</clipPath>
</defs>
</svg>
