<svg width="120" height="120" viewBox="0 0 120 120" fill="none" xmlns="http://www.w3.org/2000/svg">
<g clip-path="url(#clip0_122_980)">
<path d="M0 60V120H60H120V60V7.62939e-06H60H0V60ZM57.5676 22.4595C58.7027 22.946 60.6486 23.7568 61.8649 24.2432C63.0811 24.7297 64.7838 26.1892 65.5135 27.5676C66.4865 29.2703 67.2973 29.8378 68.3513 29.5135C69.6486 29.1081 69.7297 30.8919 69.7297 59.9189C69.7297 88.7838 69.6486 90.8108 68.3513 90.8108C67.5405 90.8108 57.8919 89.2703 46.8649 87.4054C27.0811 84.0811 26.7568 84 26.7568 82.0541C26.7568 79.7027 31.5405 42.973 32.027 41.5946C32.1892 41.027 34.0541 40.1351 36.0811 39.5676C39.6486 38.5946 39.973 38.2703 42.4865 32.8378C45.4054 26.6757 48.7297 23.027 52.3784 21.973C53.6757 21.5676 54.8919 21.4054 55.1351 21.4054C55.3784 21.4865 56.4324 21.973 57.5676 22.4595ZM77.5946 34.0541C79.0541 34.0541 80.4324 34.3784 80.6757 34.8649C81.4865 36.1622 88.7027 85.8649 88.2162 86.4324C87.6486 86.9189 73.1351 90.7297 71.5946 90.8108C70.7838 90.8108 70.5405 84.1622 70.5405 60.2432V29.6757L72.8108 31.8649C74.2703 33.3243 75.973 34.0541 77.5946 34.0541ZM95.5135 38.3514C95.6757 39.8919 96.2432 40.5405 97.2973 40.5405C100.784 40.5405 99.8919 43.9459 96.3243 44.1892C95.1081 44.2703 94.3784 45 94.054 46.2973C93.7297 47.5135 93 48.2432 92.027 48.2432C90.7297 48.2432 90.4865 47.7568 90.6486 46.0541C90.8108 44.5135 90.5676 43.9459 89.8378 44.1892C88.2162 44.7568 86.4324 43.2973 87 41.8378C87.3243 41.1081 88.3784 40.5405 89.3513 40.5405C90.7297 40.5405 91.5405 39.8108 92.1892 38.027C93.3243 35.027 95.1892 35.2703 95.5135 38.3514Z" fill="black"/>
<path d="M50.2704 26.4326C47.838 28.4596 46.2164 31.0542 44.5948 35.1894C43.9461 37.0542 43.9461 37.0542 46.7029 36.2434C48.2434 35.7569 49.4596 34.865 49.4596 34.2975C49.4596 32.6758 51.811 28.2975 53.7569 26.1083C56.1894 23.4326 53.5948 23.6758 50.2704 26.4326Z" fill="black"/>
<path d="M55.7837 28.135C54.162 29.9999 52.4593 33.3242 52.9458 33.7296C53.108 33.8918 54.4053 33.8107 55.7837 33.5674C57.8918 33.162 58.3783 32.6755 58.3783 30.8918C58.3783 27.5674 57.3242 26.4323 55.7837 28.135Z" fill="black"/>
<path d="M61.297 28.7837C61.9457 31.7837 62.27 32.1081 63.3241 31.054C63.8916 30.4864 63.5673 29.6756 62.4322 28.2972L60.8105 26.3513L61.297 28.7837Z" fill="black"/>
<path d="M48.0814 45.3245C44.5138 47.0272 42.5679 49.2975 41.3517 53.4327C40.2165 57.4056 41.7571 61.0543 45.8111 64.4597C49.4598 67.4597 50.2706 69.4056 48.4868 71.1894C47.1895 72.4867 44.676 72.4056 42.0003 71.0272C40.0544 69.9732 39.8111 70.0543 39.4057 71.6759C38.4328 75.1624 38.9192 76.0543 42.1625 77.3516C50.7571 80.757 57.5679 76.7029 57.5679 68.0272C57.5679 64.6218 56.1084 62.6759 49.2165 57.0002C48.0003 56.0272 47.0274 54.8921 47.0274 54.4056C47.0274 52.4597 49.703 51.0813 53.4328 51.0813C57.1625 51.0813 57.4057 51.0002 57.8922 48.5678C58.1355 47.1894 58.3787 45.4867 58.3787 44.9191C58.3787 43.2164 52.1355 43.5408 48.0814 45.3245Z" fill="black"/>
<path d="M51.4062 23.0268C47.9197 24.5674 44.0278 29.5944 42.4062 34.5404C41.19 38.5133 40.9467 38.7566 36.8116 40.0539C34.3792 40.7836 32.4332 41.8377 32.4332 42.4052C32.3521 42.9728 31.1359 52.2971 29.6765 63.2431C28.217 74.189 27.244 83.189 27.5684 83.3512C27.8116 83.4322 37.217 85.135 48.4873 86.9998L68.9197 90.5674V60.3241C68.9197 34.6214 68.7575 30.0809 67.7846 30.4863C67.0548 30.7295 66.244 30.0809 65.5143 28.7025C64.9467 27.4052 63.4062 25.8647 62.0278 25.216C60.7305 24.5674 58.6224 23.5944 57.4062 22.9458C54.8116 21.6485 54.5684 21.6485 51.4062 23.0268ZM55.3792 23.9998C55.6224 24.3241 54.8116 25.8647 53.5954 27.4863C52.2981 29.1079 50.8386 31.7025 50.3521 33.3241C49.6224 35.6755 48.8116 36.4052 46.4602 37.135C44.8386 37.6214 43.2981 37.9458 43.1359 37.7836C42.4873 37.135 46.3792 29.5133 48.4873 27.2431C51.244 24.4052 54.244 22.9458 55.3792 23.9998ZM63.163 28.0539C65.2711 30.7295 65.2711 31.3782 63.163 32.0268C61.1359 32.6755 61.1359 32.7566 60.5684 28.9458C60.0008 25.3782 60.8927 25.135 63.163 28.0539ZM58.7035 28.0539C59.9197 31.135 59.19 33.0809 56.6765 33.9728C51.3251 35.8377 50.5954 34.7025 53.9197 29.7566C56.1089 26.5944 57.8927 25.9458 58.7035 28.0539ZM58.8657 44.1079C59.1089 44.7566 58.8657 46.7025 58.3792 48.5674C57.4873 51.8106 57.4873 51.8917 53.9197 51.7295C47.8386 51.4052 46.1359 54.8917 50.9197 57.7295C55.1359 60.2431 57.7305 63.7295 58.1359 67.4593C59.1089 76.9458 49.7035 82.216 40.4602 77.3512C38.1089 76.216 38.0278 75.8917 38.5143 73.135C39.244 68.9998 39.5684 68.7566 41.7575 70.216C44.2711 71.8377 48.163 71.4322 48.4873 69.4052C48.7305 68.4322 47.3521 66.6485 44.6765 64.135C40.7846 60.5674 40.5413 60.0809 40.5413 56.4323C40.5413 50.2701 43.3792 46.216 49.217 44.1079C53.3521 42.6485 58.2981 42.6485 58.8657 44.1079Z" fill="white"/>
<path d="M70.623 60.8108C70.623 83.2703 70.7852 90 71.596 90C72.0825 89.9189 76.0555 89.1081 80.2717 88.0541C85.623 86.7568 87.8933 85.7838 87.8122 85.0541C87.7312 84.4054 86.1906 73.8649 84.3257 61.6216C80.0285 32.3513 80.6771 34.8649 77.5149 34.8649C75.8933 34.8649 74.2717 34.2162 73.3798 33.2432C72.569 32.3513 71.596 31.6216 71.2717 31.6216C70.8663 31.6216 70.623 44.7568 70.623 60.8108Z" fill="white"/>
<path d="M92.8379 37.7028C92.5946 38.3514 92.2703 39.4055 92.1082 40.0541C91.8649 40.7028 90.8109 41.3514 89.5946 41.5136C86.919 41.8379 86.919 43.2973 89.5946 43.6217C91.2973 43.8649 91.5406 44.1892 91.1352 45.8919C90.8109 47.2703 90.973 47.8379 91.8649 47.8379C92.5136 47.8379 93.3244 46.946 93.5676 45.8919C93.8919 44.5136 94.7028 43.7838 96.2433 43.6217C99.0811 43.2973 99.7298 41.3514 96.973 41.3514C95.1892 41.3514 94.8649 41.0271 94.8649 38.919C94.8649 36.4055 93.4865 35.5946 92.8379 37.7028Z" fill="white"/>
</g>
<defs>
<clipPath id="clip0_122_980">
<rect width="120" height="120" fill="white"/>
</clipPath>
</defs>
</svg>
