<svg width="120" height="120" viewBox="0 0 120 120" fill="none" xmlns="http://www.w3.org/2000/svg">
<g clip-path="url(#clip0_122_694)">
<path d="M82.9597 38.7461C82.9116 38.3959 82.605 38.2023 82.3516 38.1811C82.0988 38.1598 76.7461 37.7632 76.7461 37.7632C76.7461 37.7632 73.0286 34.0726 72.6208 33.6642C72.2124 33.2558 71.4152 33.38 71.1058 33.4712C71.0599 33.4846 70.2935 33.7212 69.0253 34.1134C67.7833 30.5403 65.592 27.2564 61.7364 27.2564C61.6301 27.2564 61.5204 27.2608 61.4108 27.267C60.3143 25.8169 58.9559 25.187 57.7828 25.187C48.8016 25.187 44.5107 36.4144 43.1653 42.1201C39.6755 43.2015 37.1961 43.9701 36.8794 44.0697C34.9315 44.6806 34.8699 44.7422 34.6143 46.5777C34.4213 47.9673 29.3242 87.3853 29.3242 87.3853L69.0415 94.8269L90.5619 90.1713C90.5619 90.1713 83.0073 39.0963 82.9597 38.7461ZM66.83 34.7926C65.8326 35.1014 64.6986 35.4521 63.4695 35.8325C63.4706 35.5959 63.4717 35.3626 63.4717 35.1081C63.4717 32.8871 63.1635 31.0991 62.6689 29.6815C64.6555 29.931 65.9786 32.1912 66.83 34.7926ZM60.2046 30.1218C60.7568 31.5059 61.1159 33.4919 61.1159 36.1721C61.1159 36.3092 61.1148 36.4345 61.1137 36.5615C58.928 37.2384 56.5532 37.9735 54.1728 38.7109C55.5093 33.5528 58.0144 31.0617 60.2046 30.1218ZM57.5361 27.596C57.9238 27.596 58.3143 27.7274 58.688 27.9848C55.8097 29.3392 52.7244 32.7506 51.4214 39.5629C49.5171 40.1525 47.6559 40.7287 45.935 41.2619C47.4612 36.0658 51.0852 27.596 57.5361 27.596Z" fill="black"/>
<path d="M82.3509 38.1813C82.098 38.16 76.7453 37.7634 76.7453 37.7634C76.7453 37.7634 73.0278 34.0728 72.62 33.6644C72.4673 33.5122 72.2614 33.4344 72.046 33.4009L69.043 94.8266L90.5612 90.1715C90.5612 90.1715 83.0065 39.0965 82.959 38.7463C82.9109 38.3961 82.6043 38.2025 82.3509 38.1813Z" fill="black"/>
<path d="M61.7354 50.0717L59.082 57.9648C59.082 57.9648 56.757 56.724 53.9072 56.724C49.7293 56.724 49.519 59.3461 49.519 60.0068C49.519 63.6118 58.9164 64.9931 58.9164 73.4372C58.9164 80.0805 54.7027 84.3585 49.0211 84.3585C42.2032 84.3585 38.7168 80.1152 38.7168 80.1152L40.5422 74.0839C40.5422 74.0839 44.126 77.1608 47.1503 77.1608C49.1263 77.1608 49.9302 75.605 49.9302 74.4682C49.9302 69.7656 42.2206 69.5558 42.2206 61.8289C42.2206 55.3254 46.8885 49.0317 56.3111 49.0317C59.9419 49.0317 61.7354 50.0717 61.7354 50.0717Z" fill="white"/>
</g>
<defs>
<clipPath id="clip0_122_694">
<rect width="120" height="120" fill="white"/>
</clipPath>
</defs>
</svg>
