<svg width="120" height="121" viewBox="0 0 120 121" fill="none" xmlns="http://www.w3.org/2000/svg">
<g clip-path="url(#clip0_122_802)">
<g clip-path="url(#clip1_122_802)">
<g filter="url(#filter0_d_122_802)">
<path d="M84.0223 16.3953L82.1711 16.6993L81.989 18.2497C81.8979 19.1009 81.9283 20.9553 82.08 22.3841C82.2318 23.9953 82.2014 25.1201 82.0193 25.3329C81.6248 25.8801 80.684 25.8193 80.4715 25.2721C80.3805 25.0289 80.1074 24.8161 79.8646 24.8161C79.5915 24.8161 79.2576 24.5425 79.0755 24.2081C78.7114 23.5089 77.8313 23.6001 76.9512 24.3905C75.7372 25.5153 74.4929 26.3969 74.3412 26.2449C73.8253 25.7585 73.6735 23.4785 73.9467 21.0465C74.3109 17.6417 74.1895 17.2161 72.7631 17.1553C72.1561 17.1553 71.4278 17.1553 71.185 17.1857C70.9422 17.2161 69.5765 17.3073 68.1502 17.3681C66.7238 17.4593 64.6298 17.5809 63.4462 17.6721C62.2929 17.7329 59.9561 17.8849 58.287 17.9761C56.6178 18.0673 54.1596 18.2193 52.8243 18.3105C51.489 18.4017 49.577 18.5233 48.5755 18.5841C43.477 18.8881 40.1994 19.1009 38.5606 19.1921C37.5591 19.2833 35.6775 19.3745 34.4029 19.4353C31.6109 19.5569 30.1541 20.2257 29.6686 21.5937C29.4258 22.2321 29.3651 24.3297 29.4865 28.1601C29.6079 31.2609 29.7293 35.1521 29.7596 36.8241C29.8203 38.4961 29.9417 41.9009 30.0631 44.4241C30.1541 46.9169 30.3059 50.6865 30.3666 52.7841C30.4576 54.8817 30.579 58.2257 30.6701 60.2321C30.7308 62.2385 30.8825 66.1297 30.9735 68.8961C31.3377 79.1713 31.4288 81.5729 31.5502 84.0961C31.6412 85.5249 31.7019 86.8321 31.7322 87.0145C31.7322 87.5009 33.0069 88.8081 33.7049 89.0817C34.4029 89.3553 36.8004 89.5681 40.8367 89.7201C45.9352 89.9025 52.4298 90.1761 55.4039 90.3281C56.982 90.4193 59.8651 90.5409 61.777 90.6321C63.689 90.6929 66.9059 90.8449 68.9089 90.9361C73.188 91.1793 76.2835 91.3009 82.778 91.4833L87.5427 91.6353L88.4531 90.7841C88.9387 90.2977 89.2725 89.8417 89.1512 89.7505C89.0601 89.6593 89.1512 89.5681 89.3332 89.5681C89.6064 89.5681 89.6974 80.6609 89.6974 54.0001C89.6974 27.3393 89.6064 18.4321 89.3332 18.4321C89.1512 18.4321 89.0601 18.3409 89.1815 18.2497C89.485 17.9153 86.3591 15.7873 85.9646 16.0305C85.9342 16.0609 85.0541 16.2129 84.0223 16.3953ZM63.7497 28.9505C65.8437 29.1937 66.0865 29.2545 69.0303 30.6529C70.9118 31.5649 73.3094 33.5409 73.3094 34.2097C73.3094 34.3921 73.4611 34.5441 73.6128 34.5441C73.7949 34.5441 73.9163 34.7569 73.9163 35.0001C73.9163 35.2433 74.0681 35.4561 74.2502 35.4561C74.4019 35.4561 74.4626 35.5777 74.3716 35.7601C74.2805 35.9121 74.3412 36.0641 74.5536 36.0641C74.7661 36.0641 74.8268 36.1553 74.7357 36.2769C74.6143 36.3681 74.7357 36.7937 74.9785 37.1889C75.2517 37.5841 75.373 37.8881 75.3123 37.8881C75.2213 37.8881 75.3123 38.3441 75.4944 38.8609C75.889 40.1681 76.1318 42.0225 76.0711 43.3601C76.0407 44.3937 75.5551 44.9105 74.5233 45.0625C74.2805 45.1233 73.4611 45.2449 72.7024 45.3665C70.5173 45.7009 66.1168 45.5793 65.085 45.1841C64.2352 44.8193 64.1745 44.6977 64.2656 43.5425C64.3263 42.8129 64.1745 41.7185 63.8711 40.9281C63.4765 39.8337 63.1427 39.4689 62.2626 39.1345C60.8969 38.6177 59.4402 38.8913 58.3477 39.8641C57.68 40.5329 57.5283 40.8977 57.5283 42.1441C57.5283 43.1169 57.6497 43.6641 57.8924 43.6641C58.0745 43.6641 58.1352 43.7553 58.0442 43.8769C57.8014 44.0897 60.4114 46.7041 60.8666 46.7041C61.0183 46.7041 61.1701 46.8561 61.1701 47.0081C61.1701 47.1905 61.2611 47.2817 61.4128 47.2513C61.5342 47.1905 62.1716 47.4945 62.8392 47.8897C63.5069 48.3153 64.1442 48.6193 64.2959 48.5889C64.4173 48.5585 64.5084 48.6497 64.5084 48.8017C64.5084 48.9537 65.2671 49.3793 66.1775 49.7745C67.088 50.1393 67.8467 50.5649 67.8467 50.7169C67.8467 50.8385 68.0288 50.9601 68.2412 50.9601C68.484 50.9601 68.9089 51.2337 69.2123 51.5681C69.5158 51.9025 69.9407 52.1761 70.1228 52.1761C70.3352 52.1761 70.578 52.3889 70.6994 52.6321C70.7905 52.8753 71.0332 53.0881 71.276 53.0881C71.7009 53.0881 73.4611 54.7905 74.0377 55.7633C75.0392 57.4961 75.8586 59.0465 75.9193 59.3201C75.9497 59.4721 76.1318 60.2321 76.3442 60.9921C76.7691 62.5729 76.9512 65.7953 76.6173 66.4641C76.4959 66.7377 76.3442 67.3457 76.2835 67.8321C76.2228 68.3489 75.7979 69.4433 75.373 70.2641C74.5536 71.8449 72.0651 74.6721 71.5188 74.6721C71.3367 74.6721 71.185 74.7937 71.185 74.9761C71.185 75.1281 70.9725 75.2801 70.7298 75.2801C70.487 75.2801 70.2745 75.4321 70.2745 75.6449C70.2745 75.8273 70.1835 75.9185 70.0924 75.7969C69.9711 75.7057 69.4551 75.8273 68.9392 76.1009C68.4233 76.3745 67.7253 76.6481 67.4218 76.7089C67.088 76.7697 66.6934 76.9217 66.5114 77.0433C66.0561 77.4081 64.2959 77.5601 60.7148 77.5601C57.0427 77.5601 55.5556 77.4081 54.281 76.8913C53.7347 76.6785 53.2795 76.5569 53.2795 76.6481C53.2795 76.7697 53.0974 76.7393 52.9153 76.5873C52.5512 76.3745 52.3994 76.3137 51.8228 76.2225C51.6711 76.2225 51.1551 75.8577 50.6696 75.4321C50.184 75.0065 49.6681 74.6721 49.5163 74.6721C49.0611 74.6721 46.2691 71.6017 46.4512 71.2977C46.5725 71.1457 46.5119 71.0241 46.3298 71.0241C46.087 71.0241 45.7228 70.3249 45.5104 69.4129C45.48 69.2913 45.4193 69.1393 45.389 69.0481C45.3586 68.9569 45.2676 68.7441 45.2372 68.5921C45.2069 68.4097 45.1462 68.2577 45.0855 68.1969C44.9337 68.0145 44.7517 66.3425 44.5999 63.8497C44.4482 61.1745 44.4482 61.0833 45.1765 60.5969C46.0566 60.0193 46.1173 60.0193 50.3357 59.9889C54.4327 59.9889 55.0701 60.0497 56.1019 60.5665C56.8303 60.9617 56.9213 61.2049 56.982 62.6033C56.982 63.4545 57.0427 64.3057 57.073 64.4881C57.1337 64.6401 57.1641 65.0353 57.1944 65.3089C57.1944 65.5825 57.6193 66.2209 58.1352 66.7073C58.8939 67.4977 59.2278 67.6193 60.6845 67.6193C61.8681 67.6193 62.5661 67.4369 62.991 67.0721C63.3248 66.7985 63.5069 66.4641 63.3855 66.3425C63.2944 66.2513 63.3551 66.1601 63.5069 66.1601C64.1138 66.1601 63.8711 63.3633 63.2034 62.3601C61.9288 60.4753 60.0775 59.0161 56.9213 57.4353C56.3447 57.1313 55.677 56.7057 55.4646 56.4929C55.2521 56.3105 54.8576 56.1281 54.6148 56.1281C54.372 56.1281 54.19 55.9761 54.19 55.7937C54.19 55.6417 54.0686 55.5505 53.9472 55.6417C53.7954 55.7329 53.4009 55.5201 53.0367 55.2161C52.6725 54.8817 52.2477 54.6081 52.0656 54.6081C51.9138 54.6081 51.7621 54.4561 51.7621 54.3041C51.7621 54.1217 51.5193 53.8785 51.2462 53.7873C50.5482 53.5137 47.2099 50.2001 47.2099 49.7745C47.2099 49.5921 47.1188 49.4401 46.9974 49.4401C46.785 49.4401 45.6014 47.1905 45.5104 46.6433C45.48 46.5217 45.4193 46.3697 45.389 46.3089C45.0551 46.0049 44.9337 40.3505 45.2372 39.1041C45.3283 38.6785 45.48 38.1313 45.5407 37.8881C45.6014 37.6449 45.6621 37.3713 45.6924 37.2801C45.7228 37.1889 45.7531 37.0369 45.7228 36.8849C45.7228 36.7633 45.8442 36.6721 46.0263 36.6721C46.178 36.6721 46.2387 36.5201 46.1477 36.3681C46.0566 36.1857 46.1173 36.0641 46.2994 36.0641C46.4815 36.0641 46.5422 35.9121 46.4512 35.7601C46.3601 35.5777 46.4208 35.4561 46.5725 35.4561C46.7546 35.4561 46.9064 35.2433 46.9064 35.0001C46.9064 34.7569 47.0581 34.5441 47.2099 34.5441C47.392 34.5441 47.5133 34.3617 47.5133 34.1793C47.5133 33.8145 49.577 31.8081 49.9412 31.8081C50.0322 31.8081 50.4268 31.5345 50.791 31.2001C51.1551 30.8353 51.4586 30.6225 51.4586 30.7137C51.4586 30.8049 52.0352 30.6225 52.7636 30.3185C55.5253 29.1329 55.2521 29.1937 57.8318 28.9201C58.7422 28.8289 59.5616 28.6769 59.6526 28.5857C59.7437 28.4945 60.5024 28.4945 61.3218 28.6465C62.1716 28.7681 63.2641 28.8897 63.7497 28.9505Z" fill="black"/>
</g>
<path d="M29.0303 19.101C29.0303 20.8338 29.1214 22.0194 29.2124 21.7762C29.4249 21.1682 30.5478 19.9522 31.2154 19.6178C31.6403 19.3746 74.31 16.517 74.3706 16.6994C74.3706 16.7298 74.31 18.7362 74.2189 21.1378C74.0975 24.3602 74.1582 25.5458 74.4313 25.637C74.6134 25.7282 75.5239 25.2114 76.4343 24.5426C77.3144 23.8434 78.1338 23.2962 78.2249 23.2962C78.3159 23.2962 78.9836 23.7826 79.7119 24.3602C81.897 26.093 81.897 26.0626 81.7453 20.8642C81.6239 16.8818 81.6542 16.3042 82.0791 16.213C82.3522 16.1218 70.5164 16.061 55.7975 16.0306L29 16.0002L29.0303 19.101Z" fill="#ECECEC"/>
<path d="M88.1187 16.6079C88.6649 16.9423 89.3023 17.6719 89.545 18.2191L89.9699 19.1919L90.0003 17.5807V15.9999H88.5739H87.1172L88.1187 16.6079Z" fill="#ECECEC"/>
<path d="M29.0607 60.2928L29 92L55.494 91.9696C85.1746 91.9088 85.3871 91.9696 51.0025 90.5104C42.8388 90.1456 35.5249 89.7808 34.7965 89.6896C33.8254 89.568 33.1577 89.2336 32.4597 88.5344C31.2761 87.3488 31.3065 87.6224 30.6692 70.264C30.1532 55.9152 29.6677 42.6 29.3338 34.24C29.1821 30.744 29.091 40.5936 29.0607 60.2928Z" fill="#ECECEC"/>
<path d="M55.1604 29.6798C49.5156 31.1694 46.1773 34.787 45.3882 40.2894C44.8419 44.2414 45.8131 47.8286 48.3016 50.8382C49.637 52.5102 52.6414 54.6686 56.8902 57.0702C62.1708 60.0494 64.2041 62.147 64.2041 64.6094C64.2041 66.707 62.8385 67.9838 60.6534 67.9838C58.0738 67.9838 56.9206 66.6158 56.6474 63.2414C56.4653 60.931 56.435 60.8702 55.5549 60.627C54.2196 60.2318 46.6021 60.2622 45.631 60.6574C44.8116 60.9614 44.7812 61.0526 44.7812 63.1806C44.7812 67.619 46.1166 71.1454 48.6962 73.547C51.731 76.4046 55.7066 77.5598 61.6245 77.3166C67.4514 77.1038 71.6091 75.3102 74.0673 71.9358C75.8882 69.443 76.4345 67.467 76.2827 63.7278C76.1917 60.9006 76.0703 60.2926 75.2206 58.499C73.521 54.851 70.6076 52.3886 63.931 48.8318C60.4713 47.0078 58.1345 45.0926 57.5275 43.6638C57.0419 42.5086 57.2847 40.4718 58.0131 39.6814C58.6808 38.9214 60.532 38.435 61.7459 38.6782C63.5668 39.043 64.4469 40.563 64.8718 44.2718C64.9325 44.8494 65.2056 45.0622 66.025 45.2446C67.239 45.5486 72.1554 45.275 74.3101 44.819L75.7365 44.515V42.9038C75.7365 37.9182 73.2783 33.267 69.4847 31.0478C66.1768 29.1022 59.6822 28.4942 55.1604 29.6798Z" fill="#ECECEC"/>
<path d="M89.4844 89.872C89.3023 90.3584 88.6953 91.0272 88.149 91.3616L87.1172 92H88.5739H90.0003V90.48C90.0003 89.6288 89.9699 88.96 89.9092 88.96C89.8789 88.96 89.6664 89.3552 89.4844 89.872Z" fill="#ECECEC"/>
</g>
</g>
<defs>
<filter id="filter0_d_122_802" x="25.4258" y="16.0112" width="68.2715" height="83.624" filterUnits="userSpaceOnUse" color-interpolation-filters="sRGB">
<feFlood flood-opacity="0" result="BackgroundImageFix"/>
<feColorMatrix in="SourceAlpha" type="matrix" values="0 0 0 0 0 0 0 0 0 0 0 0 0 0 0 0 0 0 127 0" result="hardAlpha"/>
<feOffset dy="4"/>
<feGaussianBlur stdDeviation="2"/>
<feComposite in2="hardAlpha" operator="out"/>
<feColorMatrix type="matrix" values="0 0 0 0 0 0 0 0 0 0 0 0 0 0 0 0 0 0 0.25 0"/>
<feBlend mode="normal" in2="BackgroundImageFix" result="effect1_dropShadow_122_802"/>
<feBlend mode="normal" in="SourceGraphic" in2="effect1_dropShadow_122_802" result="shape"/>
</filter>
<clipPath id="clip0_122_802">
<rect width="120" height="120" fill="white" transform="translate(0 0.569336)"/>
</clipPath>
<clipPath id="clip1_122_802">
<rect width="61" height="76" fill="white" transform="translate(29 16)"/>
</clipPath>
</defs>
</svg>
