<svg width="120" height="120" viewBox="0 0 120 120" fill="none" xmlns="http://www.w3.org/2000/svg">
<g clip-path="url(#clip0_122_644)">
<g clip-path="url(#clip1_122_644)">
<path d="M39.6904 33.1283C38.6504 34.198 27.2979 45.4079 20.1348 52.4562C17.3662 55.1818 17 55.5921 17 56.0024C17 56.3101 17.1025 56.5152 17.2783 56.6178C17.4688 56.7204 21.4678 56.7644 29.2168 56.7644H40.8623L40.9062 69.0733L40.9502 81.3822L41.4336 81.8511L41.9023 82.3347L54.3535 82.3786L66.8047 82.4079V93.9695C66.8047 104.974 66.8193 105.531 67.0684 105.751C67.2148 105.897 67.5078 106 67.6982 106C68.0791 106 68.2842 105.795 82.4785 91.7861C86.1406 88.1667 89.7881 84.5766 90.5791 83.8147L92 82.4226V57.5996V32.7913L91.5898 32.3956L91.1797 32H65.9844H40.7891L39.6904 33.1283Z" fill="black"/>
</g>
</g>
<defs>
<clipPath id="clip0_122_644">
<rect width="120" height="120" fill="white"/>
</clipPath>
<clipPath id="clip1_122_644">
<rect width="75" height="74" fill="white" transform="translate(17 32)"/>
</clipPath>
</defs>
</svg>
