<svg width="113" height="114" viewBox="0 0 113 114" fill="none" xmlns="http://www.w3.org/2000/svg">
<path d="M48.9245 0.457405C41.2243 1.41364 32.4673 4.68494 25.5724 9.16412C21.2442 11.9322 14.2486 18.5251 10.8767 23.0546C2.92486 33.6235 -1.20202 48.7218 0.307814 62.26C1.71699 75.3452 6.64912 86.0147 15.5571 95.3254C20.8919 100.912 25.0691 104.032 31.3098 107.102C66.5896 124.465 108.06 101.868 112.64 62.7633C114.3 48.4702 110.173 33.7241 101.265 22.048C98.2458 18.1225 91.8038 12.1335 87.5763 9.3151C76.4035 1.86658 62.664 -1.25374 48.9245 0.457405ZM87.5259 22.0984C90.0927 23.4069 91.4515 25.3194 91.4515 27.6848C91.4515 31.9123 86.4691 34.2274 83.55 31.3084C82.1912 29.9495 82.1912 28.8423 83.4494 25.6717C84.0533 24.2625 84.0533 23.9605 83.3991 23.5579C81.1343 22.0984 76.2525 24.0108 74.0884 27.0808C73.3335 28.188 72.176 30.5031 71.572 32.2646C70.4648 35.2843 67.7974 46.759 67.7974 48.4702C67.7974 50.131 76.4538 49.0238 78.165 47.1616C78.9702 46.2557 78.9702 46.1048 78.1146 44.1923C77.2591 42.3302 77.2591 42.1289 78.0643 40.921C80.1278 37.8007 83.7514 38.3039 84.6573 41.8772C85.0096 43.4374 84.9089 44.142 84.154 45.6015C82.1409 49.3257 75.5983 52.0938 69.9615 51.6408C67.5458 51.4395 67.2438 51.4898 67.0425 52.4461C66.8915 53.05 66.3379 55.969 65.7843 59.039C62.8653 75.0936 57.9332 85.5114 50.1827 92.0037C42.5329 98.3954 32.417 99.2509 29.045 93.7652C27.4848 91.2488 27.7365 88.8331 29.7496 86.5683C31.2594 84.9075 31.7627 84.7062 33.8261 84.7062C35.7889 84.7062 36.3929 84.9578 37.3994 86.1154C39.0602 88.0278 39.0099 90.6449 37.3491 92.1044C34.0275 94.9731 37.7014 96.2313 41.627 93.5639C46.5591 90.2423 49.3775 83.5487 52.3971 67.796C53.4037 62.7129 54.8129 56.0697 55.5678 52.9997L56.8763 47.5139L53.6553 44.5949C48.4212 39.8138 43.5897 38.1026 40.2178 39.8641C38.255 40.8707 37.6007 42.0785 37.6007 44.6452C37.6007 46.4067 38.0034 47.1113 40.872 50.3323C44.8479 54.7611 46.6597 58.1834 46.6597 61.1528C46.6597 65.33 44.0427 69.2556 39.8655 71.5203C36.8961 73.1308 29.347 73.0805 25.673 71.4197C19.6337 68.7019 16.6644 62.109 19.986 58.7874C21.1939 57.5795 23.8612 57.4788 25.3711 58.5357C26.9816 59.6429 27.3339 62.411 26.277 64.7764C25.1194 67.3431 25.4214 68.4 27.5352 69.5072C31.0078 71.319 35.8393 69.7085 36.7955 66.4372C37.4498 64.0215 36.7955 62.5116 33.5745 59.039C31.964 57.3279 30.1522 54.9121 29.5483 53.7546C26.2266 47.2623 28.9947 40.1157 35.9902 37.0457C37.7517 36.2405 39.0602 36.0895 42.0799 36.2405C46.8107 36.4418 50.082 37.9516 54.6115 41.9779L57.7319 44.7962L58.5371 42.8335C61.4561 35.5359 65.4824 29.2449 69.4583 25.7723C74.9943 21.0415 82.3422 19.5317 87.5259 22.0984Z" fill="black"/>
</svg>
