<svg width="112" height="112" viewBox="0 0 112 112" fill="none" xmlns="http://www.w3.org/2000/svg">
<path d="M0 56V112H112V0H0V56ZM90.251 51.534C93.0965 52.2445 95.263 53.522 97.2685 55.58C98.2905 56.672 99.82 58.6775 99.9495 59.171C99.9845 59.318 95.1195 62.58 92.1655 64.4035C92.057 64.477 91.6195 64.022 91.1435 63.308C89.705 61.2115 88.1895 60.3015 85.876 60.137C82.4845 59.9165 80.297 61.6875 80.3145 64.659C80.297 65.387 80.4615 66.1185 80.787 66.7555C81.536 68.306 82.9395 69.2335 87.276 71.113C95.298 74.557 98.7245 76.8355 100.856 80.0625C103.243 83.671 103.771 89.432 102.169 93.7335C100.383 98.3815 95.97 101.552 89.7715 102.592C87.857 102.938 83.3 102.882 81.2385 102.501C76.7375 101.7 72.471 99.4735 69.846 96.558C68.8065 95.4275 66.801 92.456 66.9305 92.2565C66.9865 92.183 67.4415 91.8925 67.9525 91.5985C68.4635 91.3045 70.3395 90.2125 72.1105 89.1905L75.3375 87.3145L76.013 88.3155C76.9615 89.754 79.0195 91.7245 80.262 92.379C83.8355 94.276 88.739 94.003 91.1645 91.833C92.148 91.014 92.6975 89.754 92.624 88.48C92.624 87.185 92.4595 86.604 91.784 85.6345C90.909 84.3955 89.1415 83.3385 84.091 81.151C78.3125 78.652 75.8135 77.1225 73.556 74.662C72.135 73.038 71.078 71.127 70.476 69.0655C70.056 67.48 69.9475 63.504 70.2765 61.9185C71.463 56.322 75.691 52.4405 81.76 51.2925C83.7305 50.911 88.3225 51.0545 90.2545 51.5305L90.251 51.534ZM63.966 56.2205L64.001 60.795H49.4165V102.231H39.0985V60.795H24.535V56.3115C24.535 53.8125 24.591 51.737 24.661 51.681C24.717 51.6075 33.5755 51.5725 44.331 51.59L63.91 51.646L63.966 56.2205Z" fill="black"/>
</svg>
