<svg width="120" height="121" viewBox="0 0 120 121" fill="none" xmlns="http://www.w3.org/2000/svg">
<g clip-path="url(#clip0_122_772)">
<g clip-path="url(#clip1_122_772)">
<path d="M50.9126 43.3443L42.7559 47.8445L50.561 52.3448C54.8855 54.841 58.6474 56.9857 58.9638 57.1966C59.3857 57.4427 61.4249 56.4232 67.5776 52.8722C72.0076 50.3408 75.7344 48.1258 75.875 48.0203C76.1211 47.7742 60.0537 38.8088 59.4209 38.844C59.2451 38.844 55.4128 40.8832 50.9126 43.3443Z" fill="black"/>
<path d="M41.6309 59.3764L41.5254 68.3418L49.7876 72.9123L58.0498 77.4478L58.1553 68.9394C58.1904 64.2634 58.1553 60.2553 58.085 60.0444C57.9795 59.728 51.6861 56.0012 43.213 51.2197L41.7363 50.3759L41.6309 59.3764Z" fill="black"/>
<path d="M69.0532 55.0876L61.0371 59.7285V68.6235V77.4834L62.9005 76.4638C63.8849 75.8661 67.5766 73.8269 71.0572 71.9284L77.3857 68.4126L77.4912 59.412C77.5264 54.4547 77.456 50.4115 77.3154 50.4467C77.1396 50.4467 73.448 52.521 69.0532 55.0876Z" fill="black"/>
<path d="M52.556 28.0238C49.7433 29.606 43.5906 33.1218 38.9146 35.7587L30.3359 40.6105L33.6408 42.5442C35.4339 43.599 37.6137 44.8647 38.4927 45.3569L40.0748 46.2358L49.0402 41.3137L58.0055 36.3564L58.111 30.731C58.1462 27.6019 58.0758 25.0705 57.9352 25.0705C57.7594 25.1057 55.3686 26.4066 52.556 28.0238Z" fill="black"/>
<path d="M61.0645 30.7662L61.1699 36.497L70.065 41.3488L78.9249 46.2358L83.7064 43.4935C87.5035 41.3137 88.3825 40.6808 87.9957 40.3644C87.609 40.0128 69.3618 29.606 62.8224 26.0198L60.959 25.0002L61.0645 30.7662Z" fill="black"/>
<path d="M29 58.9634V74.9956L30.336 74.2924C31.0392 73.9409 33.219 72.6752 35.1527 71.5501L38.6685 69.5109L38.774 59.1041L38.8443 48.6972L34.7308 46.3064C32.4455 45.0056 30.2305 43.7047 29.8086 43.4235L29 42.9312V58.9634Z" fill="black"/>
<path d="M85.2542 45.7087L80.5078 48.4511L80.4023 58.9986L80.332 69.5461L83.3908 71.304C85.0784 72.2533 87.1879 73.4838 88.1372 74.0463L89.8248 74.9956L89.8951 58.9986C89.9654 50.209 90.0006 43.0016 90.0006 43.0016C90.0006 43.0016 87.8559 44.2321 85.2542 45.7087Z" fill="black"/>
<path d="M36.1377 74.0458C33.3953 75.6279 31.2507 77.0343 31.3913 77.1749C31.7077 77.4913 57.7952 92.2227 58.0061 92.2227C58.1116 92.2227 58.1468 89.5858 58.1116 86.3512L58.0061 80.5149L52.205 77.2804C49.0056 75.5225 45.2085 73.4481 43.767 72.6395L41.095 71.198L36.1377 74.0458Z" fill="black"/>
<path d="M74.3543 73.097C72.5261 74.1166 68.7641 76.191 66.0218 77.7028L60.9941 80.4451V86.3517V92.2583L61.8028 91.8364C62.2247 91.5903 66.0569 89.4456 70.3111 87.0197C74.5652 84.6289 80.1554 81.4647 82.722 80.0232C85.2534 78.5817 87.4332 77.2809 87.5387 77.1402C87.6441 76.9293 78.8546 71.6204 77.8701 71.304C77.7647 71.2688 76.1825 72.0774 74.3543 73.097Z" fill="black"/>
</g>
</g>
<defs>
<clipPath id="clip0_122_772">
<rect width="120" height="120" fill="white" transform="translate(0 0.379883)"/>
</clipPath>
<clipPath id="clip1_122_772">
<rect width="70" height="70" fill="white" transform="translate(25 25.3799)"/>
</clipPath>
</defs>
</svg>
