<svg width="120" height="121" viewBox="0 0 120 121" fill="none" xmlns="http://www.w3.org/2000/svg">
<g clip-path="url(#clip0_122_790)">
<path d="M55.2347 29.0443C55.1828 29.0962 54.7155 29.1741 54.2221 29.226C53.7288 29.278 53.2095 29.3818 53.0538 29.4857C52.9239 29.5636 52.2489 29.7453 51.5738 29.8232C50.8987 29.9271 50.2756 30.1088 50.1977 30.2646C50.0939 30.3944 49.9381 30.4464 49.8083 30.3685C49.6784 30.2906 49.237 30.3944 48.8216 30.6021C48.4062 30.8099 47.9908 30.9397 47.9129 30.8358C47.809 30.7579 47.4196 30.9137 47.0301 31.1733C46.6406 31.433 46.1733 31.6667 46.0435 31.6926C45.3424 31.7965 42.9018 32.9649 42.7201 33.2764C42.5903 33.4582 42.4085 33.562 42.2527 33.4841C42.1229 33.3803 42.019 33.4322 42.019 33.562C42.019 33.6919 41.7075 33.9255 41.318 34.1073C40.3314 34.5487 38.5658 35.743 38.3062 36.1325C38.2023 36.3142 37.9946 36.47 37.8648 36.47C37.5013 36.47 36.7743 37.0931 34.3337 39.5857C31.244 42.7273 31.1141 42.8572 31.1141 43.0649C31.1141 43.1428 30.9064 43.4284 30.6728 43.688C30.1015 44.2852 29.1668 45.5834 29.1409 45.7911C29.1409 45.869 28.8553 46.4142 28.4918 46.9854C28.1542 47.5567 27.8946 48.1019 27.9465 48.2058C27.9725 48.3356 27.8946 48.4135 27.7648 48.4135C27.635 48.4135 27.4273 48.6731 27.3234 48.9847C27.2195 49.3222 26.8301 50.2829 26.4147 51.1397C25.7136 52.7235 25.0645 54.6968 25.0645 55.4238C25.0645 55.6315 24.9607 55.969 24.8049 56.1508C24.6751 56.3325 24.6231 56.5402 24.701 56.6441C24.8049 56.722 24.727 57.0335 24.5712 57.3451C24.0779 58.2798 24 59.2924 24 65.0305C24 70.2752 24.0779 71.9109 24.4414 72.4562C24.5193 72.586 24.6491 73.1312 24.727 73.6765C24.8049 74.2217 25.2463 75.6757 25.6877 76.922C26.1291 78.1683 26.5445 79.3886 26.6224 79.6482C26.7003 79.8819 26.8301 80.0896 26.9339 80.0896C27.0378 80.0896 27.1157 80.3492 27.1416 80.6608C27.1676 80.9464 27.3494 81.3099 27.5311 81.4138C27.7129 81.5436 27.7648 81.6474 27.635 81.6474C27.5051 81.6474 27.583 81.8292 27.7648 82.0629C28.1802 82.5562 28.6476 83.3611 29.0111 84.1919C29.1668 84.5035 29.5823 85.0747 29.9458 85.4382C30.3093 85.8017 30.5949 86.2171 30.5949 86.3989C30.5949 86.5806 30.8026 86.9181 31.0622 87.1518C31.2959 87.3595 31.7892 87.9567 32.1527 88.4241C33.3471 90.0598 37.2417 93.6948 38.2802 94.1621C38.6178 94.3179 38.9034 94.5775 38.9034 94.7073C38.9034 94.8631 38.9812 94.8891 39.0591 94.8112C39.163 94.7073 39.4226 94.8372 39.6563 95.0968C40.1496 95.6421 41.4998 96.5248 41.4998 96.3171C41.4998 96.2392 41.7594 96.395 42.071 96.6806C42.3566 96.9662 42.7201 97.148 42.8499 97.0701C42.9537 96.9922 43.0576 97.0701 43.0576 97.1999C43.0576 97.3557 43.2134 97.4855 43.3951 97.4855C43.5509 97.4855 44.3558 97.823 45.1347 98.2385C46.6666 99.0433 50.0939 100.186 51.7296 100.445C52.2748 100.549 52.8201 100.653 52.9239 100.731C54.0144 101.406 65.854 101.406 66.9186 100.731C67.0224 100.679 67.5157 100.549 68.009 100.471C69.1774 100.264 70.917 99.7963 71.2286 99.6146C71.3844 99.5107 71.7219 99.4068 71.9815 99.3809C72.2671 99.3289 72.6306 99.1732 72.8384 99.0174C73.0201 98.8616 73.1759 98.8097 73.1759 98.8876C73.1759 98.9914 73.851 98.7058 74.6818 98.2644C75.4867 97.849 76.3175 97.4855 76.4993 97.4855C76.6551 97.4855 76.8109 97.3557 76.8109 97.1999C76.8109 97.0701 76.9147 96.9922 77.0186 97.0701C77.1484 97.148 77.5119 96.9662 77.7975 96.6806C78.1091 96.395 78.3687 96.2392 78.3687 96.3171C78.3687 96.5248 79.7708 95.5901 80.0044 95.2266C80.1083 95.0449 80.3939 94.8891 80.5756 94.8891C80.7833 94.8891 80.9651 94.7593 80.9651 94.5775C80.9651 94.4217 81.043 94.3439 81.1209 94.4477C81.1988 94.5256 81.4844 94.3958 81.77 94.1621C82.0296 93.9025 82.6787 93.3572 83.198 92.9418C84.9376 91.5138 86.9368 89.5924 86.9368 89.3328C86.9368 89.203 87.2744 88.7616 87.7157 88.3462C88.1571 87.9567 88.4947 87.4893 88.4947 87.3595C88.4947 87.2037 88.6764 87.022 88.8841 86.9441C89.0918 86.8402 89.2736 86.6325 89.2736 86.4248C89.2736 86.2431 89.5073 85.8536 89.8188 85.568C90.1304 85.2824 90.5199 84.7891 90.6756 84.4516C91.2728 83.3351 91.7402 82.5562 92.1037 82.0888C92.3114 81.8552 92.3633 81.6474 92.2335 81.6474C92.1037 81.6474 92.1556 81.5436 92.3373 81.4138C92.5191 81.3099 92.7008 80.9464 92.7268 80.6608C92.7528 80.3492 92.8307 80.0896 92.9345 80.0896C93.0384 80.0896 93.1682 79.8819 93.2461 79.6482C93.324 79.3886 93.6096 78.5577 93.8952 77.8048C94.1808 77.0778 94.3625 76.4546 94.3106 76.4546C94.2327 76.4546 94.3625 76.1171 94.5703 75.7017C94.8039 75.2862 94.8818 74.8968 94.8039 74.8189C94.726 74.715 94.778 74.4814 94.9337 74.2996C95.1155 74.0919 95.1674 73.8842 95.1155 73.8063C95.0376 73.7284 95.0895 73.3389 95.2713 72.9235C95.7906 71.5215 95.8685 70.6127 95.8685 65.0305C95.8425 59.2405 95.7646 58.2279 95.2972 57.3191C95.1415 57.0335 95.0636 56.722 95.1415 56.6441C95.2194 56.5662 95.1934 56.3585 95.0895 56.1767C94.9857 55.995 94.8559 55.5536 94.8299 55.216C94.778 54.8526 94.6741 54.3852 94.5703 54.1515C94.3366 53.6582 94.3625 53.7101 94.1029 52.6196C93.999 52.1783 93.7913 51.7888 93.6615 51.7888C93.5317 51.7888 93.4278 51.5811 93.4278 51.3214C93.4278 51.0618 93.324 50.7502 93.1942 50.5944C93.0643 50.4646 92.8307 49.9194 92.6489 49.3741C92.4931 48.8549 92.2335 48.4135 92.1037 48.4135C91.9738 48.4135 91.896 48.3356 91.9219 48.2058C91.9738 48.1019 91.7142 47.5567 91.3767 46.9854C91.0132 46.4142 90.7535 45.869 90.7795 45.7911C90.8055 45.6872 90.4679 45.2718 90.0525 44.8304C89.663 44.389 89.3774 43.9996 89.4294 43.9217C89.4813 43.8698 89.0659 43.3245 88.4947 42.7273C87.9235 42.1561 87.4561 41.5849 87.4561 41.507C87.4561 41.2214 82.2893 36.3402 81.9777 36.3402C81.8998 36.3402 81.6402 36.1325 81.4065 35.8988C81.1468 35.6651 80.7314 35.3795 80.4458 35.3016C80.1602 35.2237 79.9265 35.016 79.9265 34.8862C79.9265 34.7304 79.589 34.4967 79.1476 34.3669C78.7322 34.2111 78.3687 33.9775 78.3687 33.8217C78.3687 33.6919 78.2648 33.6659 78.1091 33.7438C77.9792 33.8217 77.8494 33.7698 77.8494 33.614C77.8494 33.4582 77.7456 33.3803 77.6157 33.4841C77.4599 33.562 77.2782 33.4582 77.1484 33.2764C76.9666 32.9649 74.526 31.7965 73.825 31.6926C73.6952 31.6667 73.2278 31.433 72.8384 31.1733C72.4489 30.9137 72.0594 30.7579 71.9556 30.8358C71.8777 30.9397 71.4623 30.8099 71.0468 30.6021C70.6314 30.3944 70.19 30.2906 70.0602 30.3685C69.9304 30.4464 69.7746 30.3944 69.6707 30.2646C69.5928 30.1088 68.9697 29.9271 68.2946 29.8232C67.6196 29.7453 66.9705 29.5895 66.8147 29.5117C66.6849 29.4078 66.3733 29.3039 66.1656 29.252C65.5944 29.0962 55.3905 28.9145 55.2347 29.0443ZM64.0885 41.0916C64.452 41.3512 65.0751 42.1821 65.4646 42.9091C66.0877 44.0515 66.3214 44.2592 66.9445 44.2592C68.736 44.2592 69.4371 45.0901 70.216 48.1798C70.5535 49.452 70.6054 50.5944 70.5016 53.3207C70.3458 57.3191 69.8006 59.3184 68.035 62.4081L67.0224 64.1477L67.9311 65.2901C69.6707 67.5749 70.7872 70.5089 71.0209 73.3909C71.0988 74.5073 71.2545 75.4161 71.3324 75.4161C71.4103 75.4161 71.8517 75.1824 72.2671 74.8968C73.9288 73.7544 77.2782 72.3263 78.862 72.0407C81.3026 71.5994 82.8345 72.0407 83.8471 73.3909C84.9376 74.9228 85.0415 75.9613 84.2885 77.4413C83.6134 78.7654 82.8864 79.2328 80.5237 79.9598C79.7708 80.1675 78.4466 80.7906 77.5898 81.3359C74.4222 83.2572 71.9815 84.5294 70.19 85.1785C69.2034 85.542 67.6715 86.1652 66.8147 86.5806C65.153 87.3855 63.0239 87.723 57.182 88.1384C53.6769 88.3721 52.4306 88.2163 50.8728 87.4115C49.99 86.9441 49.7044 86.9181 49.0293 87.1518C48.1725 87.4374 46.2512 87.3076 44.5895 86.8402C42.9797 86.3989 41.7594 84.9449 41.7594 83.5428C41.7594 83.1274 41.4738 82.4004 41.1363 81.9071C40.2795 80.6348 39.864 78.5318 39.9938 76.4287C40.1237 74.8968 40.2795 74.4294 41.344 72.7158C42.3825 71.0281 42.5903 70.4829 42.798 68.7433C43.2394 64.9526 43.9144 63.3947 46.407 60.4089L47.5753 59.0328L47.0561 57.6826C46.1214 55.1122 46.5887 51.633 48.0687 50.0232C48.3802 49.6857 49.1851 49.1145 49.8602 48.777C50.5352 48.4394 51.1843 47.998 51.2882 47.7903C51.9113 46.7518 55.4944 45.0381 57.1041 45.0381C57.5975 45.0381 57.8311 44.8824 57.961 44.441C58.0389 44.1294 58.4543 43.2986 58.8957 42.6235C60.2198 40.5204 62.4268 39.8973 64.0885 41.0916Z" fill="black"/>
<path d="M61.31 43.5577C60.8946 44.051 60.2715 45.0896 59.9599 45.8945L59.3627 47.3744H58.0126C56.3769 47.3744 54.5594 48.1793 52.8717 49.6593C52.1966 50.2305 51.236 50.8536 50.7427 51.0354C48.5876 51.8143 48.2241 55.5531 50.0936 58.2014C50.509 58.7986 50.8465 59.3698 50.8206 59.4996C50.8206 59.6035 50.1974 60.2266 49.4445 60.8757C47.6789 62.3557 46.0691 64.7703 45.5499 66.5878C45.3162 67.3927 45.0825 68.9506 45.0306 70.041C44.9527 71.5729 44.8229 72.1961 44.4334 72.6374C42.6159 74.7405 42.4082 75.1819 42.4082 77.3629C42.4342 79.0765 42.538 79.6218 43.0313 80.4007C43.6025 81.3354 43.8362 81.4912 44.5632 81.4133C44.9786 81.3614 44.9527 81.5431 44.4594 82.2961C43.7324 83.4385 44.1478 84.1655 45.8095 84.6588C48.4838 85.4377 50.0157 84.6069 50.5869 82.0884C51.0802 80.0372 51.1581 79.9853 52.0149 80.868L52.7419 81.647L52.0928 82.1662C51.7293 82.4519 51.3398 82.9711 51.2619 83.3087C50.7686 85.2819 52.69 86.1907 56.5067 85.8012C57.7529 85.6714 60.0897 85.4377 61.6995 85.3079C63.9064 85.1002 64.8671 84.8925 65.7239 84.4251C66.3211 84.0876 67.6972 83.5164 68.7617 83.1269C70.8129 82.3999 73.4872 81.0238 76.2653 79.2842C77.174 78.713 78.8357 77.9341 79.9522 77.5706C82.1332 76.8955 82.5226 76.4282 82.1332 75.156C81.5879 73.4683 77.4077 74.2991 73.8766 76.7657C72.8121 77.5187 70.1897 78.5313 69.281 78.5313H68.5021L68.6578 76.1166C68.7617 74.6107 68.7098 73.1827 68.528 72.248C68.0607 70.067 66.6846 67.4446 65.1527 65.8608L63.8285 64.4588L65.0488 62.6153C67.3337 59.1881 68.0347 57.0071 68.1905 52.9827C68.2424 50.8536 68.1645 49.7372 67.827 48.4909C67.5933 47.5822 67.2817 46.7773 67.1779 46.6994C67.0481 46.6474 66.5288 46.7513 66.0095 46.985C65.4902 47.1927 65.0488 47.3744 65.0229 47.3744C64.971 47.3744 64.5036 46.4397 63.9584 45.2973C62.738 42.6749 62.3226 42.4153 61.31 43.5577Z" fill="black"/>
</g>
<defs>
<clipPath id="clip0_122_790">
<rect width="120" height="120" fill="white" transform="translate(0 0.569336)"/>
</clipPath>
</defs>
</svg>
