<svg width="120" height="121" viewBox="0 0 120 121" fill="none" xmlns="http://www.w3.org/2000/svg">
<g clip-path="url(#clip0_1307_67)">
<g clip-path="url(#clip1_1307_67)">
<path d="M55.6658 11.5066C53.2124 12.4132 52.6791 16.4132 54.8658 17.8532L56.1991 18.7066V28.2532V37.7999H50.8658H45.5324V33.2666C45.5324 29.6399 45.6924 28.7332 46.3324 28.7332C46.7591 28.7332 47.4524 28.0399 47.9324 27.1866C49.8524 23.4532 45.2658 19.9332 42.3324 22.8666C40.8391 24.3599 40.9458 26.8132 42.5991 28.0932C43.8258 29.0532 43.9324 29.4799 43.9324 33.4266V37.6399L40.9991 37.9599C36.3058 38.4399 34.4391 40.3066 33.9591 44.9999L33.6391 47.9332H29.4258C25.4791 47.9332 25.0524 47.8266 24.0924 46.5999C22.8124 44.9466 20.3591 44.8399 18.8658 46.3332C15.9324 49.2666 19.4524 53.8532 23.1858 51.9332C24.0391 51.4532 24.7324 50.7599 24.7324 50.3332C24.7324 49.6932 25.6391 49.5332 29.2658 49.5332H33.7991V54.8666V60.1999H24.2524H14.7058L13.8524 58.8666C12.8391 57.3199 10.1724 57.0532 8.46578 58.2799C7.07911 59.2932 7.07911 62.7066 8.46578 63.7199C10.1724 64.9466 12.8391 64.6799 13.8524 63.1332L14.7058 61.7999H24.2524H33.7991V67.1332V72.4666H29.2658C25.6391 72.4666 24.7324 72.3066 24.7324 71.6666C24.7324 71.2399 24.0391 70.5466 23.1858 70.0666C19.4524 68.1466 15.9324 72.7332 18.8658 75.6666C20.3591 77.1599 22.8124 77.0532 24.0924 75.3999C25.0524 74.1732 25.4791 74.0666 29.4258 74.0666H33.6391L33.9591 76.9999C34.4391 81.6932 36.3058 83.5599 40.9991 84.0399L43.9324 84.3599V88.5732C43.9324 92.5199 43.8258 92.9466 42.5991 93.9066C40.9458 95.1866 40.8391 97.6399 42.3324 99.1332C45.2658 102.067 49.8524 98.5466 47.9324 94.8132C47.4524 93.9599 46.7591 93.2666 46.3324 93.2666C45.6924 93.2666 45.5324 92.3599 45.5324 88.7332V84.1999H50.8658H56.1991V93.7466V103.293L54.8658 104.147C53.3191 105.16 53.0524 107.827 54.2791 109.533C55.2924 110.92 58.7058 110.92 59.7191 109.533C60.9458 107.827 60.6791 105.16 59.1324 104.147L57.7991 103.293V93.7466V84.1999H63.1324H68.4658V88.7332C68.4658 92.3599 68.3058 93.2666 67.6658 93.2666C67.2391 93.2666 66.5458 93.9599 66.0658 94.8132C64.1458 98.5466 68.7324 102.067 71.6658 99.1332C73.1591 97.6399 73.0524 95.1866 71.3991 93.9066C70.1724 92.9466 70.0658 92.5199 70.0658 88.5732V84.3599L72.9991 84.0399C77.6924 83.5599 79.5591 81.6932 80.0391 76.9999L80.3591 74.0666H84.5724C88.5191 74.0666 88.9458 74.1732 89.9058 75.3999C91.1858 77.0532 93.6391 77.1599 95.1324 75.6666C98.0658 72.7332 94.5458 68.1466 90.8124 70.0666C89.9591 70.5466 89.2658 71.2399 89.2658 71.6666C89.2658 72.3066 88.3591 72.4666 84.7324 72.4666H80.1991V67.1332V61.7999H89.7458H99.2924L100.146 63.1332C101.159 64.6799 103.826 64.9466 105.532 63.7199C106.919 62.7066 106.919 59.2932 105.532 58.2799C103.826 57.0532 101.159 57.3199 100.146 58.8666L99.2924 60.1999H89.7458H80.1991V54.8666V49.5332H84.7324C88.3591 49.5332 89.2658 49.6932 89.2658 50.3332C89.2658 50.7599 89.9591 51.4532 90.8124 51.9332C94.5458 53.8532 98.0658 49.2666 95.1324 46.3332C93.6391 44.8399 91.1858 44.9466 89.9058 46.5999C88.9458 47.8266 88.5191 47.9332 84.5724 47.9332H80.3591L80.0391 44.9999C79.8791 43.3999 79.3991 41.5866 78.9724 40.9466C77.6391 39.0799 76.0391 38.2799 72.9991 37.9599L70.0658 37.6399V33.4266C70.0658 29.4799 70.1724 29.0532 71.3991 28.0932C73.0524 26.8132 73.1591 24.3599 71.6658 22.8666C68.7324 19.9332 64.1458 23.4532 66.0658 27.1866C66.5458 28.0399 67.2391 28.7332 67.6658 28.7332C68.3058 28.7332 68.4658 29.6399 68.4658 33.2666V37.7999H63.1324H57.7991V28.2532V18.7066L59.1324 17.8532C60.6258 16.8932 60.9991 14.1199 59.8258 12.5732C59.0791 11.6132 56.8924 11.0266 55.6658 11.5066ZM58.2258 13.3732C59.1324 14.2799 59.0258 15.6666 58.0124 16.5199C56.3591 17.9066 54.2791 15.1866 55.6658 13.5332C56.4658 12.5732 57.3724 12.5199 58.2258 13.3732ZM46.5991 24.4132C47.3991 25.9066 45.4791 28.1999 44.0924 27.3466C42.8658 26.5999 42.5991 25.1599 43.3991 24.1999C44.3058 23.0799 45.9058 23.1866 46.5991 24.4132ZM70.5991 24.1999C71.3991 25.1599 71.1324 26.5999 69.9058 27.3466C68.5191 28.1999 66.5991 25.9066 67.3991 24.4132C68.0924 23.1866 69.6924 23.0799 70.5991 24.1999ZM76.8391 41.1599L78.3324 42.5999V60.9999V79.3999L76.8391 80.8399L75.3991 82.3332H56.9991H38.5991L37.1591 80.8399L35.6658 79.3999V61.0532C35.6658 43.4532 35.7191 42.6532 36.7324 41.5332C37.3191 40.8932 38.2791 40.1466 38.8658 39.8799C39.4524 39.6666 47.9324 39.5066 57.6391 39.5599L75.3991 39.6666L76.8391 41.1599ZM23.3458 48.0932C23.8258 48.8932 23.7191 49.2666 22.7058 50.0666C21.2658 51.2932 19.3991 50.7066 19.3991 49.1066C19.3991 46.8666 22.1724 46.1732 23.3458 48.0932ZM93.9591 47.5066C95.7724 49.3199 93.5858 51.7199 91.5058 50.2799C90.8658 49.8532 90.3324 49.1599 90.3324 48.7866C90.3324 47.8799 91.4524 46.8666 92.4658 46.8666C92.9458 46.8666 93.5858 47.1332 93.9591 47.5066ZM12.5191 59.9866C13.4258 61.1066 12.5191 62.5999 10.8658 62.5999C9.21245 62.5999 8.30578 61.1066 9.21245 59.9866C9.63911 59.5066 10.3324 59.1332 10.8658 59.1332C11.3991 59.1332 12.0924 59.5066 12.5191 59.9866ZM104.786 59.9866C105.692 61.1066 104.786 62.5999 103.132 62.5999C101.479 62.5999 100.572 61.1066 101.479 59.9866C101.906 59.5066 102.599 59.1332 103.132 59.1332C103.666 59.1332 104.359 59.5066 104.786 59.9866ZM23.3991 73.2666C23.3991 73.7999 22.9724 74.4932 22.4924 74.8132C20.4658 76.0399 18.3324 72.9466 20.2524 71.5599C21.0524 70.9732 21.3724 70.9732 22.2791 71.6132C22.9191 71.9866 23.3991 72.7332 23.3991 73.2666ZM94.5991 72.9466C94.5991 75.1332 91.8258 75.8266 90.6524 73.9066C90.1724 73.1066 90.2791 72.7332 91.2924 71.9332C92.7858 70.7066 94.5991 71.2932 94.5991 72.9466ZM46.2791 95.5066C47.7191 97.5866 45.3191 99.7732 43.5058 97.9599C42.7058 97.1599 42.7058 95.7732 43.5058 94.9732C44.4658 94.0132 45.3724 94.1732 46.2791 95.5066ZM70.8124 95.5066C71.5591 96.7332 70.6524 98.2799 69.1058 98.4932C67.5058 98.7599 66.7058 96.9466 67.7191 95.4532C68.6791 94.1199 69.9591 94.1732 70.8124 95.5066ZM58.2258 105.64C59.1324 106.547 59.0258 107.933 58.0124 108.787C56.3591 110.173 54.2791 107.453 55.6658 105.8C56.4658 104.84 57.3724 104.787 58.2258 105.64Z" fill="black"/>
<path d="M52.1986 50.7064C52.0919 51.0798 50.5453 55.6131 48.7853 60.7331C47.0786 65.8531 45.4786 70.4931 45.2653 70.9731C44.9453 71.7198 45.1586 71.9331 46.2253 71.9331C47.3986 71.9331 47.7186 71.5064 48.7319 68.4664L49.9053 64.9464L53.9586 65.1064L58.0653 65.2664L59.1853 68.4664C60.0386 70.8664 60.6253 71.7198 61.4786 71.8264C62.0653 71.9331 62.5986 71.8264 62.5986 71.5598C62.5986 71.3464 60.9986 66.3864 59.0786 60.5731C55.5586 50.1198 55.5053 50.0664 53.9586 50.0664C53.1053 50.0664 52.3053 50.3864 52.1986 50.7064ZM55.7186 57.9064C56.5719 60.5198 57.2653 62.6531 57.2653 62.7064C57.2653 62.8131 55.7186 62.8664 53.8519 62.8664H50.4386L52.0919 57.7998C52.9986 55.0264 53.8519 52.8931 54.0119 52.9998C54.1186 53.1598 54.9186 55.3464 55.7186 57.9064Z" fill="black"/>
<path d="M66.332 60.9998V71.9331H67.6654H68.9987V60.9998V50.0664H67.6654H66.332V60.9998Z" fill="black"/>
<path d="M55.6676 14.0668C55.1342 14.7068 55.1342 15.0268 55.6676 15.6668C56.0409 16.0935 56.6276 16.4668 57.0009 16.4668C57.3742 16.4668 57.9609 16.0935 58.3342 15.6668C58.8676 15.0268 58.8676 14.7068 58.3342 14.0668C57.9609 13.6401 57.3742 13.2668 57.0009 13.2668C56.6276 13.2668 56.0409 13.6401 55.6676 14.0668Z" fill="#ECECEC"/>
<path d="M43.6143 24.7333C43.1876 25.8533 43.7209 27.1333 44.6276 27.1333C45.7476 27.1333 46.6543 25.8 46.2809 24.7866C45.8543 23.72 43.9876 23.6666 43.6143 24.7333Z" fill="#ECECEC"/>
<path d="M67.7206 24.7865C67.2406 25.9598 68.6273 27.3998 69.8006 26.9198C70.3339 26.7598 70.6006 26.1198 70.4939 25.4265C70.2806 23.8798 68.2539 23.4532 67.7206 24.7865Z" fill="#ECECEC"/>
<path d="M38.2803 40.5734C36.0936 41.5867 35.9336 42.9201 35.9336 61.0001C35.9336 79.2934 36.0936 80.4134 38.4403 81.4801C40.2003 82.2801 73.8003 82.2801 75.5603 81.4801C77.9069 80.4134 78.0669 79.2934 78.0669 61.0001C78.0669 42.7067 77.9069 41.5867 75.5603 40.5201C73.8536 39.7201 39.8803 39.7734 38.2803 40.5734ZM59.3469 60.3067C61.2136 65.9601 62.8669 70.9201 63.0269 71.2934C63.1869 71.8267 62.8136 71.9867 61.4803 71.8267C59.8269 71.6667 59.6669 71.4534 58.6536 68.3067L57.5869 64.9467L53.8536 65.1067L50.1203 65.2667L49.0536 68.5734C48.0403 71.7201 47.8803 71.9334 46.3336 71.9334H44.6803L48.3603 61.0001L52.0403 50.0667H54.0136H55.9336L59.3469 60.3067ZM69.5336 61.0001V71.9334H67.9336H66.3336V61.0001V50.0667H67.9336H69.5336V61.0001Z" fill="#ECECEC"/>
<path d="M52.6275 57.2667C51.9342 59.4 51.2409 61.5334 51.0809 62.0134C50.8142 62.7067 51.2409 62.8667 53.7475 62.8667C55.4009 62.8667 56.7342 62.6534 56.7342 62.44C56.7342 62.2267 56.0942 60.04 55.2942 57.6934L53.8009 53.32L52.6275 57.2667Z" fill="#ECECEC"/>
<path d="M20.3067 47.7732C19.6133 48.4132 19.9333 49.9598 20.84 50.2798C21.96 50.7065 23.4 49.3732 22.9733 48.2532C22.6533 47.3998 20.9467 47.0798 20.3067 47.7732Z" fill="#ECECEC"/>
<path d="M91.0798 48.2002C90.8665 48.6802 91.0798 49.4269 91.5065 49.8535C92.5731 50.9202 94.1731 50.2269 93.9598 48.7869C93.7465 47.4002 91.5598 46.9202 91.0798 48.2002Z" fill="#ECECEC"/>
<path d="M9.90745 59.7735C9.05412 60.6268 9.10745 61.5335 10.1208 62.3335C11.2941 63.3468 13.0008 61.6935 12.1475 60.3601C11.4008 59.1868 10.7075 58.9735 9.90745 59.7735Z" fill="#ECECEC"/>
<path d="M102.173 59.7735C101.32 60.6268 101.373 61.5335 102.386 62.3335C103.56 63.3468 105.266 61.6935 104.413 60.3601C103.666 59.1868 102.973 58.9735 102.173 59.7735Z" fill="#ECECEC"/>
<path d="M20.5728 71.8799C19.4528 72.5732 20.0394 74.3332 21.4261 74.4932C22.8661 74.7065 23.5594 73.3199 22.5994 72.1999C21.8528 71.2932 21.5328 71.2399 20.5728 71.8799Z" fill="#ECECEC"/>
<path d="M91.4005 72.1999C90.4405 73.3199 91.1338 74.7065 92.5738 74.4932C93.9605 74.3332 94.5471 72.5732 93.4271 71.8799C92.4671 71.2399 92.1471 71.2932 91.4005 72.1999Z" fill="#ECECEC"/>
<path d="M43.6137 95.6669C43.1337 96.8936 43.7737 98.0669 44.9471 98.0669C46.1737 98.0669 46.8137 96.5736 46.0137 95.6136C45.2137 94.6536 43.9871 94.6536 43.6137 95.6669Z" fill="#ECECEC"/>
<path d="M67.9868 95.5599C67.0802 96.6799 67.8268 98.1733 69.2135 97.9599C70.0135 97.8533 70.3335 97.4266 70.3335 96.4666C70.3335 94.9733 68.9468 94.4399 67.9868 95.5599Z" fill="#ECECEC"/>
<path d="M55.6676 106.333C55.1342 106.973 55.1342 107.293 55.6676 107.933C56.0409 108.36 56.6276 108.733 57.0009 108.733C57.3742 108.733 57.9609 108.36 58.3342 107.933C58.8676 107.293 58.8676 106.973 58.3342 106.333C57.9609 105.907 57.3742 105.533 57.0009 105.533C56.6276 105.533 56.0409 105.907 55.6676 106.333Z" fill="#ECECEC"/>
</g>
</g>
<defs>
<clipPath id="clip0_1307_67">
<rect width="120" height="120" fill="white" transform="translate(0 0.939453)"/>
</clipPath>
<clipPath id="clip1_1307_67">
<rect width="120" height="120" fill="white" transform="translate(0 0.939453)"/>
</clipPath>
</defs>
</svg>
