<svg width="120" height="120" viewBox="0 0 120 120" fill="none" xmlns="http://www.w3.org/2000/svg">
<path d="M66.1641 10.758C65.0391 11.2971 64.2188 12.4221 64.2188 13.5002C64.2188 14.2268 64.7109 15.1408 80.1094 43.2658C85.7578 53.5549 87.6094 56.719 88.125 57.0237C90.2344 58.2658 93.2578 56.4612 92.9766 54.1408C92.8359 53.0862 70.1016 11.5315 69.3281 10.9455C68.4609 10.3127 67.2891 10.2424 66.1641 10.758Z" fill="black"/>
<path d="M56.1327 28.5236C51.8671 34.4064 48.2109 39.5158 47.9765 39.8674C47.5546 40.5002 47.5546 40.5236 48.1171 41.4142C48.4218 41.9064 50.3906 45.4689 52.4999 49.3361C54.6093 53.2033 56.3671 56.4142 56.3906 56.4611C56.4609 56.5549 84.1874 55.0549 84.3046 54.9611C84.3984 54.9142 64.289 18.258 64.0546 18.0236C63.9374 17.9064 60.5156 22.4299 56.1327 28.5236Z" fill="black"/>
<path d="M80.4368 26.6719C80.7884 27.5391 86.1087 37.0312 86.2259 37.0312C86.3196 37.0312 86.6478 36.4922 86.9759 35.8125C87.7259 34.2188 87.7493 31.7812 87.0462 30.2344C86.0618 28.1016 83.6946 26.4844 81.4915 26.4844C80.8587 26.4844 80.3899 26.5781 80.4368 26.6719Z" fill="black"/>
<path d="M20.7422 30.3281C18.5859 31.0078 17.0391 32.3672 16.0781 34.4297L15.5859 35.5078L15.5156 65.5781L15.4688 95.625H61.6406H107.836L107.766 65.6953C107.695 37.3594 107.672 35.6719 107.273 34.6406C106.664 33.0938 105.211 31.5469 103.641 30.7734L102.305 30.1172L95.6484 30.0469C89.3203 29.9766 89.0156 30 89.1797 30.3984C89.5781 31.3594 89.6016 34.1719 89.2031 35.2969C88.9922 35.9063 88.8281 36.4922 88.8281 36.6094C88.8281 36.7031 91.5469 36.8203 94.875 36.8438L100.898 36.9141L100.969 63.4453L101.016 90H61.6406H22.2656L22.3125 63.4453L22.3828 36.9141L35.1562 36.8438L47.9297 36.7734L50.1328 33.6563C51.3516 31.9453 52.4062 30.4219 52.4531 30.2813C52.5938 29.8594 22.0547 29.9063 20.7422 30.3281Z" fill="black"/>
<path d="M38.9062 44.0857C36.1406 45.6092 33.6797 47.1092 33.4453 47.3904C33.1406 47.7654 33.0469 48.1404 33.1172 48.656C33.2344 49.3357 33.1641 49.4529 32.0859 50.0154C30.75 50.7654 30.2344 51.3982 30.2344 52.3826C30.2344 53.1326 35.6953 63.3982 36.6094 64.3826C37.3828 65.2263 38.25 65.2732 39.8438 64.5467C41.1562 63.9607 41.2734 63.9373 41.6719 64.3123C42.5391 65.0623 43.4062 64.781 48.5625 61.9685C53.6016 59.2263 54.6094 58.4998 54.6094 57.6092C54.6094 57.0935 47.25 43.3826 46.2422 41.9998C45.3047 40.7342 44.6719 40.8982 38.9062 44.0857Z" fill="black"/>
<path d="M48.7504 63.9843C46.8754 65.0155 45.3285 65.953 45.2817 66.0702C45.2114 66.2811 53.977 82.4296 54.3989 82.8515C54.9379 83.3905 56.227 82.9921 59.1801 81.3515C60.8676 80.4374 62.3676 79.4999 62.5317 79.289C63.141 78.4452 62.8364 77.8124 60.4223 74.9765C56.6489 70.5702 54.1645 66.7265 52.852 63.2108C52.6176 62.6015 52.3832 62.1093 52.2895 62.1093C52.2192 62.1327 50.6254 62.953 48.7504 63.9843Z" fill="black"/>
<path d="M12.4219 99.3047C12.4219 102.422 13.5234 104.93 15.7734 107.016C16.5234 107.719 17.2266 108.281 17.3672 108.281C17.4844 108.281 17.5781 108.492 17.5781 108.75C17.5781 108.984 17.7891 109.312 18.0234 109.453C18.3281 109.617 33.5859 109.688 65.6719 109.688C103.922 109.688 112.969 109.641 113.297 109.383C113.578 109.172 113.695 108.844 113.625 108.281L113.555 107.461L110.438 107.391L107.32 107.32L108.258 106.242C109.992 104.297 110.859 101.859 110.859 99V97.7344H61.6406H12.4219V99.3047Z" fill="black"/>
<path d="M6.49182 107.484C6.14025 107.859 6.32775 109.195 6.77307 109.453C7.03088 109.57 8.69494 109.688 10.4996 109.688C13.4762 109.688 13.7809 109.641 14.1793 109.219C14.5309 108.844 14.5778 108.609 14.3903 108.094L14.1793 107.461L10.4059 107.391C8.34338 107.367 6.58557 107.414 6.49182 107.484Z" fill="black"/>
</svg>
