<svg width="120" height="121" viewBox="0 0 120 121" fill="none" xmlns="http://www.w3.org/2000/svg">
<g clip-path="url(#clip0_122_814)">
<path d="M40.9245 30.1426C32.4947 34.1095 25.4534 37.7789 25.2551 38.374C25.0567 38.969 27.2385 40.3575 30.1146 41.4484L35.3708 43.4318L35.6683 51.0682L35.9658 58.6054H32.4947C27.7344 58.6054 24.065 60.4897 22.379 63.6632C20.4947 67.4318 20.5939 70.407 22.9741 74.2748L24.9576 77.5475L22.9741 80.1261C18.7096 85.4814 21.6848 93.3161 28.7261 95.2996C31.1063 95.9938 44.098 96.2913 65.6187 96.093L98.8418 95.7955L99.1394 77.1509L99.3377 58.6054H89.9162H80.4947V51.2666C80.4947 44.1261 80.5939 43.9277 83.2716 42.936C84.7592 42.4401 86.7427 41.6467 87.7344 41.25C89.1228 40.655 89.4204 41.0517 89.4204 44.0269C89.4204 46.2087 88.8253 47.6963 87.9328 48.093C85.4534 48.9856 86.0485 54.5393 88.7261 55.531C93.0898 57.3161 97.1559 52.2583 94.0815 48.8864C93.1889 47.8947 92.3956 45.0186 92.1972 42.2418L91.8997 37.3823L76.0319 30.1426C67.3047 26.1756 59.2716 22.9029 58.1807 23.0021C57.0898 23.0021 49.3542 26.2748 40.9245 30.1426ZM73.0567 31.7294C80.1972 35.0021 85.7509 37.9773 85.4534 38.374C84.9576 39.4649 60.065 50.6715 58.379 50.6715C56.2964 50.5723 31.4038 39.0682 31.6022 38.1756C31.8005 37.0847 55.7014 26.0765 58.1807 25.9773C59.2716 25.9773 66.0154 28.5558 73.0567 31.7294ZM48.5609 49.6798C53.4204 51.8616 57.9823 53.6467 58.5774 53.6467C59.1724 53.6467 63.6352 51.8616 68.4947 49.6798C73.3542 47.498 77.6187 45.7128 77.9162 45.7128C78.3129 45.7128 78.4121 50.4732 78.3129 56.2252L78.0154 66.6385L68.3956 71.2004L58.6766 75.7624L49.0567 71.2996L39.3377 66.8368L39.0402 56.3244C38.941 50.4732 38.941 45.7128 39.1394 45.7128C39.4369 45.7128 43.6022 47.498 48.5609 49.6798ZM92.3956 51.0682C92.3956 53.1508 90.3129 54.1426 89.4204 52.5558C88.9245 51.8616 88.8253 50.8699 89.0237 50.4732C89.9162 49.0847 92.3956 49.5806 92.3956 51.0682ZM36.065 64.7542C36.3625 67.7294 37.0567 68.3244 43.8005 71.6963L51.2385 75.3657L39.1394 75.4649C27.7344 75.4649 26.941 75.3657 25.5526 73.2831C21.6848 67.8285 25.0567 61.5806 31.8005 61.5806C35.4699 61.5806 35.7675 61.7789 36.065 64.7542ZM96.3625 62.5723C96.3625 63.1674 93.0898 63.5641 88.4286 63.5641C83.7675 63.5641 80.4947 63.1674 80.4947 62.5723C80.4947 61.9773 83.7675 61.5806 88.4286 61.5806C93.0898 61.5806 96.3625 61.9773 96.3625 62.5723ZM96.3625 68.5228C96.3625 70.407 95.6683 70.5062 86.941 70.5062C77.7179 70.5062 77.5195 70.5062 79.3047 68.6219C80.6931 67.0351 82.4782 66.7376 88.7261 66.6385C95.7675 66.5393 96.3625 66.7376 96.3625 68.5228ZM96.3625 74.4732C96.3625 75.0682 90.7096 75.4649 81.2881 75.4649C71.0733 75.4649 66.6104 75.0682 67.6022 74.4732C69.5856 73.1839 96.3625 73.1839 96.3625 74.4732ZM96.3625 79.9277C96.3625 81.217 93.2881 81.4153 75.0402 81.4153H53.7179V85.8781V90.3409H75.0402C93.2881 90.3409 96.3625 90.5393 96.3625 91.8285C96.3625 93.1178 91.9989 93.3161 62.7427 93.3161C30.3129 93.3161 29.1228 93.217 26.5443 91.2335C22.9741 88.4566 22.9741 83.2996 26.5443 80.5228C29.1228 78.5393 30.3129 78.4401 62.7427 78.4401C91.9989 78.4401 96.3625 78.6385 96.3625 79.9277ZM96.3625 85.8781V88.3575H76.5278H56.6931V85.8781V83.3988H76.5278H96.3625V85.8781Z" fill="black"/>
</g>
<defs>
<clipPath id="clip0_122_814">
<rect width="120" height="120" fill="white" transform="translate(0 0.75)"/>
</clipPath>
</defs>
</svg>
