<svg width="120" height="121" viewBox="0 0 120 121" fill="none" xmlns="http://www.w3.org/2000/svg">
<g clip-path="url(#clip0_122_826)">
<path d="M50.8725 15.2965C49.2265 16.106 48.2282 17.4822 47.3917 20.0996C47.3107 20.3424 46.7441 20.9091 46.1235 21.3138C45.0171 22.0424 44.8552 22.0693 41.4553 22.0693C37.6507 22.0963 36.8951 22.2312 35.9777 23.0947C35.1952 23.7963 35.1412 25.6311 35.8698 27.0343C36.5444 28.2755 37.6507 30.758 37.9205 31.6484C38.0284 32.0262 38.3522 32.8087 38.6221 33.4024C38.8919 33.996 39.3506 35.0753 39.6205 35.8309C40.376 37.7467 41.5093 40.0672 41.9141 40.5529C42.5077 41.2545 43.3712 41.6053 46.0695 42.3069C48.2551 42.8735 49.3615 42.9814 52.5185 42.9814C54.6232 42.9814 56.674 42.8735 57.1057 42.7386C57.5374 42.6037 58.6168 42.2799 59.5072 42.037C63.015 41.0117 63.9325 40.0672 63.9595 37.5578C63.9595 34.1849 65.2277 29.3818 67.1435 25.4423C67.98 23.7693 68.1419 23.1217 68.1419 21.7455C68.1419 19.6408 67.7371 19.2631 65.4705 19.2361C63.9055 19.2361 63.7706 19.2901 60.3437 21.071C59.804 21.3408 59.3723 21.3948 58.8866 21.2329C58.158 20.963 58.1311 20.936 57.0517 18.6425C56.0264 16.4568 54.5962 15.1886 52.9502 15.0267C52.1407 14.9457 51.3852 15.0537 50.8725 15.2965Z" fill="black"/>
<path d="M65.147 44.0069C62.7185 46.2465 58.4011 47.4338 52.6267 47.4338C47.9046 47.4338 46.5824 47.1369 43.1286 45.41L41.3207 44.5196L40.1064 44.9783C37.597 45.9227 31.9035 49.1877 30.7702 50.294C30.5543 50.5099 30.0686 50.9146 29.6909 51.1575C27.748 52.5066 23.2148 57.5255 21.353 60.3858C19.8419 62.7603 18.061 66.3221 17.6833 67.8062C17.6023 68.184 17.4134 68.7236 17.3055 69.0205C16.1992 71.7728 15.7405 76.7917 16.1452 81.3518C17.0626 91.4166 21.7038 96.4086 32.3892 98.945C36.2478 99.8624 38.5144 100.105 47.6078 100.645C54.9473 101.077 55.8107 101.077 63.1232 100.645C72.9722 100.051 74.4023 99.8894 78.5307 98.8371C85.5464 97.0562 89.3511 94.6546 91.9954 90.3913C94.8017 85.8311 95.5303 75.7393 93.4795 69.5331C91.2939 62.8413 86.6797 56.2573 81.0132 51.6971C80.3116 51.1305 79.691 50.5908 79.6101 50.5099C79.2593 50.0781 75.1848 47.5147 73.3769 46.5703C71.4341 45.5449 66.4962 43.5212 65.9565 43.5212C65.7946 43.5212 65.4438 43.737 65.147 44.0069ZM55.6488 56.3922L55.7298 58.2271L56.944 58.416C59.2646 58.7938 60.9916 59.4953 60.9916 60.089C60.9916 60.8985 60.1281 63.7587 59.8852 63.7587C59.7773 63.7587 59.3456 63.6238 58.9138 63.4619C57.5377 62.9222 55.325 62.4095 54.4076 62.4095C53.1934 62.4095 51.6823 63.0571 51.1696 63.8127C50.1173 65.2967 51.1156 66.7538 54.0298 68.049C58.8868 70.2077 60.4519 71.314 61.5312 73.3108C61.963 74.1203 62.0979 74.8489 62.1249 76.3329C62.1249 78.5456 61.5312 79.8947 59.8852 81.5407C59.1297 82.2963 56.5123 83.7264 55.8647 83.7264C55.7028 83.7264 55.5949 84.5359 55.5949 85.5343C55.5949 86.5596 55.4869 87.531 55.352 87.7199C55.2171 87.9628 54.6235 88.0437 53.4092 87.9898L51.6823 87.9088L51.6013 85.993L51.5204 84.0772L50.1173 83.8883C49.3347 83.8073 48.2824 83.5645 47.7697 83.3486C47.257 83.1597 46.4205 82.8359 45.9618 82.674C45.4761 82.4851 45.0714 82.2423 45.0984 82.1613C45.1253 81.6487 46.0698 78.3297 46.2047 78.1948C46.2856 78.0869 46.9062 78.2757 47.5808 78.5726C49.4157 79.409 51.4394 79.7598 53.4092 79.5979C54.9743 79.49 55.2711 79.3551 55.9457 78.5995C56.6202 77.844 56.7282 77.5472 56.5933 76.5488C56.5393 75.9282 56.2695 75.1996 56.0536 74.9568C55.6488 74.579 52.5727 72.933 52.2489 72.933C51.5204 72.933 48.3094 71.0172 47.23 69.9379C46.1507 68.8586 45.8539 68.3728 45.611 67.1586C44.8555 63.4619 46.6904 60.3318 50.4141 59.0096L51.8172 58.4969V56.5541V54.5844H53.706H55.5679L55.6488 56.3922Z" fill="black"/>
</g>
<defs>
<clipPath id="clip0_122_826">
<rect width="120" height="120" fill="white" transform="translate(0 0.75)"/>
</clipPath>
</defs>
</svg>
