<svg width="120" height="121" viewBox="0 0 120 121" fill="none" xmlns="http://www.w3.org/2000/svg">
<g clip-path="url(#clip0_122_820)">
<path d="M54.56 8.9331C46.5067 14.4264 38.56 17.8931 28.0533 20.3998C24 21.3598 22.6667 21.8931 21.4933 23.1731L20 24.7731L20.16 48.2931C20.3733 70.9064 20.4267 72.0264 21.6 75.8664C25.9733 90.4264 37.5467 102.48 53.44 109.04C58.9867 111.333 61.6533 111.333 67.2 109.04C79.9467 103.813 89.8667 95.1731 95.4667 84.3998C100.213 75.3331 100.213 75.1198 100.48 48.2931L100.64 24.7731L99.1467 23.1731C97.9733 21.8931 96.64 21.3598 92.5867 20.3998C82.1333 17.8931 74.9867 14.8531 66.6133 9.2531C63.4667 7.11977 61.2267 5.99976 60.2133 5.99976C59.3067 5.99976 57.1733 7.06643 54.56 8.9331ZM66.7733 32.8798C75.7867 35.2798 83.2533 43.1731 85.1733 52.2931C88.8 69.8398 72.6933 85.8931 55.1467 82.2131C49.2267 80.9864 42.9333 76.6664 39.3067 71.3864C35.68 66.1064 34.1867 58.6398 35.4667 52.2931C37.3333 43.3331 44.8 35.3331 53.6 32.8798C56.9067 31.9731 63.4133 31.9731 66.7733 32.8798Z" fill="black"/>
<path d="M56.3196 42.7998C55.4129 43.7065 55.2529 44.5598 55.2529 48.1332V52.3998H50.7729C46.7196 52.3998 46.1862 52.5065 45.4396 53.5732C44.2129 55.3332 44.3196 59.3865 45.7062 61.1465C46.7196 62.4265 47.0929 62.5332 51.0396 62.5332H55.2529V66.7465C55.2529 72.1332 55.6796 72.6665 60.3196 72.6665C64.9596 72.6665 65.3862 72.1332 65.3862 66.7465V62.5332H69.5996C73.5462 62.5332 73.9196 62.4265 74.9329 61.1465C76.3196 59.3865 76.4262 55.3332 75.1996 53.5732C74.4529 52.5065 73.9196 52.3998 69.8662 52.3998H65.3862V48.1332C65.3862 42.6932 64.6396 41.7332 60.3196 41.7332C58.0796 41.7332 57.1196 41.9998 56.3196 42.7998Z" fill="black"/>
</g>
<defs>
<clipPath id="clip0_122_820">
<rect width="120" height="120" fill="white" transform="translate(0 0.75)"/>
</clipPath>
</defs>
</svg>
