<svg width="120" height="120" viewBox="0 0 120 120" fill="none" xmlns="http://www.w3.org/2000/svg">
<g clip-path="url(#clip0_1715_102)">
<path d="M74.6903 52.369C74.9378 52.4935 75.1604 52.6624 75.3468 52.8673L80.4363 50.6032L75.687 45.8993L74.6232 52.2997L74.6903 52.369ZM64.13 48.0942C64.3772 48.4671 64.5324 48.8933 64.5828 49.3378L72.1597 52.5488C72.3892 52.373 72.6503 52.2428 72.9288 52.1653L74.1725 44.4737L69.5575 39.6333L64.13 47.9793V48.0942ZM89.9848 59.9913L81.8642 51.8707L76.3435 54.1327L89.9155 59.9003C89.9155 59.9003 90.0303 59.9913 89.9848 59.9913ZM88.6263 61.3043L75.5982 55.7382C75.4168 55.9787 75.1893 56.1807 74.9288 56.3321C74.6684 56.4835 74.3803 56.5814 74.0815 56.62L72.6797 65.1935C73.0979 65.6148 73.3336 66.1837 73.3362 66.7773L81.2077 68.4283L88.4227 61.2567V61.1223L88.6263 61.3043ZM71.3667 53.9528L64.286 50.9412C64.0417 51.315 63.7053 51.6197 63.3091 51.8257C62.9129 52.0318 62.4703 52.1323 62.024 52.1177H61.5928L55.7342 61.1678L71.3883 54.3818V54.4035C71.377 54.2832 71.377 54.162 71.3883 54.0417C71.3911 54.0262 71.3907 54.0103 71.3869 53.995C71.3832 53.9796 71.3763 53.9653 71.3667 53.9528ZM79.9618 69.7868L73.0393 68.3612C72.7793 68.6938 72.4352 68.9511 72.0427 69.1065L70.3938 79.3332L80.0073 69.8085C80.0073 69.8085 79.9857 69.8518 79.9618 69.8518V69.7868ZM70.279 69.0848C69.9518 68.9506 69.6605 68.7415 69.4287 68.4744C69.197 68.2072 69.031 67.8894 68.9443 67.5465L56.0527 64.8988L55.8707 65.1935L67.5663 82.1152L68.2662 81.4132L70.2573 69.1282C70.2573 69.1282 70.3245 69.1758 70.279 69.152V69.0848ZM56.3235 63.3388L69.0592 65.9627C69.2422 65.643 69.5005 65.3729 69.8116 65.1758C70.1228 64.9787 70.4773 64.8606 70.8445 64.8317L72.2247 56.3947L71.9322 56.1455L56.0982 62.9315C56.1812 63.0627 56.2565 63.1987 56.3235 63.3388ZM50.9848 65.4643L50.714 65.1935L45.2172 67.4555L47.8865 70.1032L50.9177 65.3972L50.9848 65.4643ZM54.6032 66.3245C54.2204 66.5004 53.8046 66.5928 53.3833 66.5953C53.0518 66.5967 52.7224 66.5432 52.4083 66.4372L49.063 71.3013L63.7205 85.8223L66.2988 83.2657L54.6032 66.3245ZM52.5448 60.6023C52.7711 60.5814 52.9989 60.5814 53.2252 60.6023C53.4726 60.5712 53.723 60.5712 53.9705 60.6023L59.8963 51.394C59.4335 50.9147 59.1742 50.2749 59.1727 49.6087C59.1513 49.4135 59.1513 49.2166 59.1727 49.0215L51.9793 45.6957L46.19 51.329L52.5448 60.6023ZM53.2013 44.5647L60.2148 47.5503C60.7229 47.1324 61.3665 46.915 62.024 46.9393C62.3159 46.9419 62.6058 46.9879 62.8842 47.0758L68.3572 38.524L63.8332 34L53.2013 44.4282C53.2013 44.4282 53.1797 44.5408 53.2013 44.5647ZM50.5797 62.2533C50.7204 61.9903 50.8953 61.747 51.0997 61.5297L45.1023 52.5727L38 59.4713L50.5753 62.2533H50.5797ZM50.012 63.77L39.1548 61.5037L43.928 66.3462L49.9448 63.7895L50.012 63.77Z" fill="white"/>
</g>
<defs>
<clipPath id="clip0_1715_102">
<rect width="120" height="120" fill="white"/>
</clipPath>
</defs>
</svg>
