<svg width="120" height="120" viewBox="0 0 120 120" fill="none" xmlns="http://www.w3.org/2000/svg">
<g clip-path="url(#clip0_1715_116)">
<path d="M56.6927 25.125C46.0502 26.2006 36.7946 32.3427 31.7564 41.6832C27.5673 49.4386 26.8314 59.1754 29.8033 67.3554C33.0867 76.2997 40.0496 83.2626 48.9938 86.5459C55.5322 88.9235 63.7971 88.9235 70.3355 86.5459C80.9497 82.6682 88.7335 73.5541 90.828 62.6003C91.7903 57.3922 91.2809 50.8539 89.526 46.0138C86.2426 37.0695 79.2797 30.1066 70.3355 26.8233C66.3728 25.3797 60.9101 24.7004 56.6927 25.125ZM66.4861 28.748C70.5902 29.8236 73.449 31.2105 77.072 33.8711L79.1948 35.4279L77.8079 35.7675C75.4869 36.3619 73.9585 38.3149 73.9585 40.6642C73.9585 42.1077 74.6661 43.9192 76.3644 46.7497C78.3457 50.1179 78.8269 51.5049 78.9684 54.4202C79.0533 56.4016 78.9684 57.4488 78.5155 59.0905C77.4399 63.138 74.1 74.0919 73.9585 74.0919C73.8736 74.0919 71.496 67.1856 68.6655 58.7225C63.0046 41.7681 63.231 43.0135 65.7501 42.9852C66.4861 42.9569 67.1937 42.8154 67.3918 42.6172C67.8447 42.1644 67.8164 41.0605 67.3918 40.8906C67.1937 40.834 65.2407 40.8623 63.0612 40.9473C60.8818 41.0605 57.3154 41.0605 55.1359 40.9473C51.0884 40.7491 50.4657 40.8623 50.4657 41.7964C50.4657 42.5606 51.0601 42.9569 52.3055 42.9852C54.4 43.0135 54.3717 42.9852 56.7493 49.4386L58.957 55.4675L55.7869 64.9495C53.6358 71.4596 52.5602 74.29 52.3904 74.007C52.2772 73.7522 49.8713 66.761 47.0974 58.4395C42.2007 43.8626 42.0592 43.2965 42.6253 43.1267C42.965 43.0418 43.7292 42.9569 44.2953 42.9569C44.8614 42.9569 45.5124 42.872 45.7671 42.7871C46.3049 42.5889 46.3898 41.0888 45.8803 40.8906C45.6822 40.834 43.6726 40.8623 41.4365 40.9756C39.1721 41.0888 36.9644 41.0888 36.5115 41.0039L35.6907 40.834L36.738 39.4188C41.2667 33.3899 47.6352 29.6254 55.8435 28.1253C57.7116 27.7856 64.25 28.1819 66.4861 28.748ZM85.535 44.1457C87.7428 49.099 88.224 51.2218 88.2523 56.5431C88.2523 61.2699 87.9126 63.3645 86.4691 67.0158C84.3462 72.3936 80.5534 77.1771 75.8266 80.4321C74.9491 81.0265 74.1566 81.4794 74.1 81.3945C74.0151 81.3379 74.7227 79.1301 75.6284 76.4695C81.7422 59.0056 84.1764 51.7596 84.4312 50.3727C84.5727 49.5235 84.7142 47.4856 84.7142 45.8722C84.7142 44.2589 84.7708 42.9569 84.8557 42.9569C84.9123 42.9569 85.2237 43.4947 85.535 44.1457ZM35.2378 49.4103C36.1436 51.8445 39.2005 60.2793 42.0875 68.1479C44.9463 76.0166 47.2673 82.4984 47.2106 82.5267C47.154 82.5833 46.503 82.2719 45.7388 81.8474C38.4928 77.6583 33.6811 71.2614 31.6148 63.0531C30.8789 60.1378 30.8789 53.005 31.5865 50.3161C32.2375 47.9668 33.2848 44.9382 33.4829 44.9382C33.5678 44.9382 34.3604 46.9478 35.2378 49.4103ZM64.7312 71.3747C67.1654 78.0545 69.1467 83.6022 69.1467 83.7155C69.1467 84.1966 64.0802 85.1873 60.9384 85.3288C56.8625 85.5269 51.5979 84.7344 51.5979 83.9702C51.5979 83.8004 52.2772 81.6775 53.1263 79.2433C53.9754 76.8091 55.8435 71.4313 57.2588 67.2988C58.674 63.1663 59.8911 59.6283 59.976 59.4018C60.0326 59.1754 60.1458 59.0622 60.2024 59.1188C60.2591 59.1754 62.297 64.6948 64.7312 71.3747Z" fill="white"/>
</g>
<defs>
<clipPath id="clip0_1715_116">
<rect width="120" height="120" fill="white"/>
</clipPath>
</defs>
</svg>
