<svg width="117" height="117" viewBox="0 0 117 117" fill="none" xmlns="http://www.w3.org/2000/svg">
<path d="M58.5 0C26.091 0 0 26.091 0 58.5C0 90.909 26.091 117 58.5 117C90.909 117 117 90.909 117 58.5C117 26.091 90.909 0 58.5 0ZM72.15 21.1234C72.7838 21.1039 73.359 21.7864 72.9836 22.4786L58.1441 49.6811C58.0691 49.8198 58.0313 49.9756 58.0344 50.1333C58.0376 50.291 58.0816 50.4451 58.1622 50.5807C58.2427 50.7163 58.3571 50.8286 58.494 50.9068C58.631 50.9849 58.7859 51.0262 58.9436 51.0266H84.5861C85.4149 51.0266 85.8146 52.0358 85.2101 52.6012L40.2626 94.5506C39.4582 95.3014 38.2639 94.2435 38.9074 93.3514L60.1819 63.999C60.2794 63.8631 60.3376 63.703 60.3502 63.5362C60.3628 63.3694 60.3292 63.2024 60.2532 63.0534C60.1772 62.9044 60.0617 62.7791 59.9192 62.6914C59.7768 62.6037 59.613 62.5568 59.4458 62.556H32.3066C32.1261 62.5556 31.9497 62.5015 31.7999 62.4007C31.6501 62.2999 31.5336 62.1569 31.4652 61.9898C31.3968 61.8226 31.3795 61.639 31.4156 61.4621C31.4517 61.2851 31.5396 61.1229 31.668 60.996L71.5455 21.3964C71.7053 21.2295 71.9191 21.1316 72.15 21.1234Z" fill="black"/>
</svg>
