<svg width="113" height="113" viewBox="0 0 113 113" fill="none" xmlns="http://www.w3.org/2000/svg">
<path d="M51.0203 0.274673C40.3879 1.33288 30.9145 5.01138 22.5497 11.2094C11.3126 19.5742 3.95565 31.2144 0.831442 45.626C-0.277147 50.7155 -0.277147 62.2045 0.831442 67.2939C4.61072 84.729 14.9408 98.536 30.0075 106.397C38.8258 110.982 46.5355 112.796 56.8152 112.746C66.3894 112.746 73.5448 110.982 81.9096 106.699C101.058 96.9235 112.648 77.9263 112.648 56.46C112.597 38.269 104.484 21.9929 90.0728 11.2094C78.987 2.94537 64.4745 -1.13625 51.0203 0.274673ZM67.3972 12.3684C83.8748 16.6012 96.5732 29.6019 100.756 46.4323C102.015 51.6729 101.915 62.3053 100.453 67.5459C99.1431 72.4841 96.0693 79.0853 93.1467 83.1165C90.6271 86.6438 85.6385 91.5317 82.1615 93.9C78.5334 96.4196 71.8819 99.3926 67.3972 100.652C61.703 102.164 51.0203 102.164 45.2254 100.602C28.5462 96.1172 16.0997 83.3684 11.8669 66.4877C10.708 61.751 10.708 51.169 11.8669 46.4323C16.4021 28.191 30.2594 15.0895 48.6519 11.5621C53.5398 10.6551 62.2069 11.0078 67.3972 12.3684Z" fill="black"/>
<path d="M37.1117 40.0831C35.348 40.7886 33.8867 43.0561 33.8867 45.1725C33.8867 50.9674 42.05 52.6303 44.3175 47.2889C46.2324 42.653 41.7476 38.2187 37.1117 40.0831Z" fill="black"/>
<path d="M70.3207 40.5367C66.8438 42.7035 67.1461 48.196 70.8246 49.9597C76.2668 52.5296 81.3058 46.0292 77.3754 41.5949C75.5109 39.5289 72.6387 39.0753 70.3207 40.5367Z" fill="black"/>
<path d="M38.1197 67.4955C34.9451 68.9064 33.9373 72.5345 35.8521 75.6587C37.1119 77.7751 43.5115 81.9575 47.2404 83.1669C51.5236 84.5778 61.0977 84.5778 65.3809 83.1669C69.1098 81.9575 75.5094 77.7751 76.7691 75.6587C78.7344 72.4841 77.6762 68.856 74.4008 67.4955C72.1332 66.5381 70.5711 66.9916 67.1446 69.6119C63.5165 72.4337 60.6946 73.4416 56.3106 73.4416C51.9267 73.4416 49.1048 72.4337 45.4263 69.6119C42.1509 67.042 40.3369 66.5381 38.1197 67.4955Z" fill="black"/>
</svg>
