<svg width="111" height="111" viewBox="0 0 111 111" fill="none" xmlns="http://www.w3.org/2000/svg">
<path d="M55.5 0C24.6173 0 0 24.5927 0 55.5C0 86.4075 24.5927 111 55.5 111C86.4075 111 111 86.3825 111 55.5C111 24.6173 86.4075 0 55.5 0ZM12.062 55.9685L55.0315 98.9135C31.376 98.938 12.062 79.624 12.062 55.9685ZM65.1445 97.976L13.0487 45.8307C17.39 26.5167 34.7553 12.0373 55.5 12.0373C69.412 12.0867 82.4855 18.6973 90.724 29.896L84.4585 35.1993C77.8235 25.4807 66.7975 19.684 55.0315 19.7333C39.9846 19.6347 26.5907 29.1806 21.7066 43.3886L67.0935 88.8C78.1935 84.9275 86.876 75.2825 89.2935 63.6895H70.4725V55.5H98.938C98.938 76.2445 84.4585 93.6345 65.1445 97.976Z" fill="black"/>
</svg>
