<svg width="110" height="110" viewBox="0 0 110 110" fill="none" xmlns="http://www.w3.org/2000/svg">
<path d="M55 18.9062L18.9062 55L55 91.0938L91.0938 55L55 18.9062Z" fill="#F68712"/>
<path d="M6.875 6.875L55 18.9062L18.9062 55L6.875 6.875Z" fill="#FAB20B"/>
<path d="M103.125 6.875L91.0938 55L55 18.9062L103.125 6.875Z" fill="#F47216"/>
<path d="M103.125 103.125L55 91.0938L91.0938 55L103.125 103.125Z" fill="#F25C19"/>
<path d="M6.875 103.125L18.9062 55L55 91.0938L6.875 103.125Z" fill="#F89C0E"/>
<path d="M55 18.9062L6.875 6.875H30.9375L55 18.9062Z" fill="#FBC707"/>
<path d="M55 18.9062L103.125 6.875H79.0625L55 18.9062Z" fill="#FBC707"/>
<path d="M55 91.0938L103.125 103.125H79.0625L55 91.0938Z" fill="#F68712"/>
<path d="M55 91.0938L6.875 103.125H30.9375L55 91.0938Z" fill="#F25C19"/>
<path d="M18.9062 55L6.875 103.125V79.0625L18.9062 55Z" fill="#FFF200"/>
<path d="M18.9062 55L6.875 6.875V30.9375L18.9062 55Z" fill="#FFF200"/>
<path d="M91.0938 55L103.125 6.875V30.9375L91.0938 55Z" fill="#F1471D"/>
<path d="M91.0938 55L103.125 103.125V79.0625L91.0938 55Z" fill="#F1471D"/>
</svg>
