<svg width="111" height="111" viewBox="0 0 111 111" fill="none" xmlns="http://www.w3.org/2000/svg">
<path d="M82.3839 104.067C81.9723 104.284 81.9954 104.372 82.4071 104.164C82.5276 104.112 82.6374 104.038 82.7308 103.946C82.7308 103.872 82.7216 103.882 82.3839 104.067ZM83.2072 103.632C83.013 103.785 83.013 103.794 83.2488 103.674C83.3783 103.609 83.4894 103.535 83.4894 103.512C83.4894 103.424 83.4338 103.447 83.2072 103.632ZM83.7484 103.304C83.5541 103.456 83.5541 103.465 83.79 103.345C83.9195 103.28 84.0305 103.206 84.0305 103.183C84.0305 103.095 83.975 103.119 83.7484 103.304ZM84.2895 102.98C84.0953 103.132 84.0953 103.142 84.3311 103.021C84.4606 102.957 84.5716 102.883 84.5716 102.86C84.5716 102.772 84.5162 102.795 84.2895 102.98ZM85.0388 102.494C84.6595 102.735 84.5393 102.897 84.8769 102.711C85.1174 102.573 85.5059 102.277 85.4412 102.267C85.2993 102.328 85.1644 102.404 85.0388 102.494ZM51.8623 0.0165037C51.6218 0.0396301 50.8632 0.113635 50.1787 0.169138C34.4161 1.5891 19.6478 10.095 10.2957 23.1706C5.12546 30.3474 1.76482 38.6667 0.499521 47.421C0.0555023 50.469 0 51.3709 0 55.5059C0 59.6409 0.0555023 60.5382 0.499521 63.5909C3.51515 84.4324 18.3481 101.944 38.4631 108.433C42.0661 109.594 45.8634 110.385 50.1787 110.861C51.8623 111.046 59.1285 111.046 60.812 110.861C68.2632 110.038 74.5812 108.192 80.8067 105.015C81.7595 104.525 81.9445 104.395 81.815 104.289C78.774 100.271 75.7614 96.2311 72.7774 92.1705L63.9017 80.1818L52.7827 63.725C49.0857 58.2184 45.3531 52.7358 41.5851 47.2776C41.5435 47.2683 41.4972 54.5809 41.4787 63.5077C41.4464 79.1411 41.4371 79.7701 41.2382 80.1402C41.0494 80.5725 40.7112 80.9222 40.2854 81.1253C39.9385 81.3011 39.6333 81.3335 37.996 81.3335H36.1181L35.6186 81.019C35.3104 80.8247 35.0597 80.5517 34.8925 80.228L34.6658 79.7378L34.6889 57.9851L34.7213 36.2232L35.059 35.8023C35.2858 35.5357 35.5583 35.3118 35.8637 35.1408C36.3078 34.9235 36.4835 34.9003 38.3613 34.9003C40.5768 34.9003 40.9422 34.9882 41.5204 35.6172C46.0213 42.3158 50.4847 49.0395 54.9103 55.7881C62.1163 66.713 71.9634 81.6295 76.806 88.9559L85.5938 102.267L86.0378 101.976C90.2664 99.1634 94.1006 95.7988 97.4389 91.9716C104.432 83.9683 108.967 74.1172 110.5 63.6002C110.944 60.5521 111 59.6502 111 55.5152C111 51.3802 110.944 50.4829 110.5 47.4302C107.485 26.5887 92.6519 9.07742 72.5369 2.58816C68.7778 1.39136 64.9066 0.580828 60.9832 0.169138C59.9425 0.0627565 52.7688 -0.0575007 51.8715 0.0303796L51.8623 0.0165037ZM74.5812 33.5868C74.8399 33.7168 75.0701 33.897 75.2583 34.117C75.4465 34.337 75.589 34.5923 75.6774 34.868C75.7653 35.1501 75.7838 41.1815 75.7653 54.7751L75.7329 74.2846L72.2918 69.0117L68.8414 63.7389V49.5578C68.8414 40.3905 68.883 35.238 68.9477 34.9882C69.0262 34.7 69.1616 34.4303 69.3459 34.1952C69.5301 33.9601 69.7596 33.7642 70.0208 33.6191C70.4648 33.3925 70.6267 33.3694 72.3334 33.3694C73.9383 33.3694 74.2205 33.3925 74.5812 33.5868Z" fill="black"/>
</svg>
