<svg width="137" height="103" viewBox="0 0 137 103" fill="none" xmlns="http://www.w3.org/2000/svg">
<path d="M41.5325 99.4775C40.7741 98.0591 40.5056 96.4239 40.7697 94.8325H8.48963L56.4384 9.15682L76.645 45.6954L83 40.8827L63.046 4.4724C62.3786 3.22759 61.4197 2.16854 60.2539 1.3886C59.088 0.608657 57.751 0.131777 56.3607 0C54.9607 0.0586032 53.6054 0.517362 52.451 1.32344C51.2966 2.12952 50.39 3.25013 49.8357 4.55622L1.25043 91.3069C0.511429 92.523 0.0854292 93.9081 0.0115702 95.335C-0.0622888 96.7618 0.218362 98.1846 0.827733 99.4726C1.56672 100.668 2.62183 101.628 3.87266 102.243C5.12349 102.859 6.51963 103.105 7.90175 102.954H48.5871C47.2076 103.11 45.8128 102.869 44.5619 102.258C43.3111 101.648 42.2545 100.693 41.513 99.5022L41.5325 99.4775Z" fill="black"/>
<path d="M135.629 91.5554L96.2288 21.45C95.5883 20.2109 94.6465 19.1536 93.4903 18.3759C92.3341 17.5981 91.0009 17.1249 89.614 17C88.2357 17.0586 86.9023 17.5078 85.7686 18.2955C84.635 19.0832 83.7476 20.1771 83.2096 21.45L78 29.7906V45.9812L89.6091 26.0079L128.539 95.0437H113.728C113.964 96.4415 113.755 97.8781 113.131 99.1503L113.003 99.4054C112.201 100.545 111.131 101.469 109.888 102.095C108.644 102.722 107.266 103.031 105.874 102.997H129.053C130.445 103.035 131.825 102.728 133.069 102.101C134.313 101.474 135.383 100.548 136.182 99.4054C136.808 98.1671 137.083 96.7807 136.978 95.3968C136.873 94.0128 136.391 92.6842 135.585 91.5554H135.629Z" fill="black"/>
<path d="M115.113 99.3606L115.241 99.1061L115.585 98.4258C116.005 97.334 116.109 96.1471 115.885 94.9996C115.665 93.7471 115.215 92.5457 114.557 91.4559L83.6499 38.1054L78.9789 30H78.8953L74.18 38.0662L43.3167 91.4168C42.7152 92.5049 42.3092 93.6892 42.1169 94.9164C41.8257 96.4909 42.0823 98.1173 42.8446 99.527C43.6216 100.714 44.7142 101.662 46.0007 102.267C47.2873 102.872 48.7173 103.11 50.1315 102.953H107.698C109.138 102.999 110.567 102.692 111.86 102.06C113.153 101.427 114.27 100.489 115.113 99.3264V99.3606ZM78.8904 46.1863L107.182 94.9555H50.5986L78.8904 46.1863Z" fill="black"/>
</svg>
