<svg width="700" height="700" viewBox="0 0 700 700" fill="none" xmlns="http://www.w3.org/2000/svg">
<path d="M100 0H600C655 0 700 45 700 100V600C700 655 655 700 600 700H100C45 700 0 655 0 600V100C0 45 45 0 100 0Z" fill="black"/>
<path d="M637.5 350C637.5 310 590 277.5 520 255C537.5 182.5 530 125 497.5 107.5C487.5 102.5 480 100 470 100C437.5 100 397.5 122.5 357.5 162.5C315 122.5 275 100 242.5 100C232.5 100 222.5 102.5 215 107.5C182.5 125 175 182.5 192.5 255C122.5 277.5 75 310 75 350C75 390 122.5 422.5 192.5 445C175 517.5 180 575 215 595C222.5 600 232.5 602.5 242.5 602.5C275 602.5 315 580 355 540C395 580 437.5 602.5 467.5 602.5C477.5 602.5 487.5 600 495 595C527.5 575 535 517.5 517.5 445C590 422.5 637.5 387.5 637.5 350ZM470 127.5C475 127.5 480 127.5 482.5 130C497.5 140 505 172.5 500 215C497.5 225 497.5 237.5 495 247.5C472.5 242.5 447.5 237.5 422.5 235C407.5 215 392.5 195 377.5 180C412.5 145 447.5 127.5 470 127.5ZM432.5 395C425 410 415 422.5 407.5 437.5C390 437.5 375 440 357.5 440C340 440 322.5 440 307.5 437.5C297.5 425 290 410 282.5 395C275 380 267.5 365 260 350C267.5 335 275 320 282.5 305C290 290 300 275 310 262.5C325 262.5 342.5 260 360 260C377.5 260 392.5 260 410 262.5C420 275 427.5 290 437.5 305C445 320 452.5 335 460 350C450 365 440 380 432.5 395ZM470 382.5C475 397.5 480 410 485 425C470 427.5 455 430 440 432.5C445 425 450 417.5 455 407.5C460 400 465 390 470 382.5ZM355 500C345 490 335 477.5 325 465C335 465 345 465 355 465C365 465 375 465 385 465C375 477.5 365 490 355 500ZM270 432.5C255 430 240 427.5 225 425C230 410 235 397.5 240 382.5C245 390 250 400 255 407.5C260 417.5 265 425 270 432.5ZM242.5 317.5C237.5 302.5 232.5 287.5 227.5 275C242.5 272.5 257.5 270 272.5 267.5C267.5 275 262.5 285 257.5 292.5C250 300 245 310 242.5 317.5ZM355 200C365 210 375 222.5 385 235C375 235 365 235 355 235C345 235 335 235 325 235C335 222.5 345 210 355 200ZM455 292.5C450 282.5 445 275 440 267.5C455 270 470 272.5 485 275C480 290 475 305 470 317.5C465 310 460 300 455 292.5ZM212.5 215C207.5 172.5 212.5 140 230 130C232.5 127.5 237.5 127.5 242.5 127.5C265 127.5 300 145 337.5 182.5C322.5 200 307.5 217.5 292.5 237.5C267.5 240 242.5 245 220 250C215 237.5 212.5 225 212.5 215ZM167.5 405C127.5 387.5 102.5 367.5 102.5 347.5C102.5 330 127.5 307.5 167.5 290C177.5 285 187.5 282.5 200 280C207.5 302.5 215 325 225 347.5C215 370 205 392.5 200 415C187.5 415 177.5 410 167.5 405ZM230 570C215 560 207.5 527.5 212.5 485C215 475 215 462.5 220 450C242.5 455 265 460 290 462.5C305 482.5 320 502.5 337.5 520C300 555 265 575 242.5 575C237.5 572.5 232.5 572.5 230 570ZM500 485C505 527.5 500 560 482.5 570C480 572.5 475 572.5 470 572.5C447.5 572.5 412.5 555 375 517.5C390 500 407.5 482.5 422.5 460C447.5 457.5 472.5 455 492.5 447.5C495 462.5 497.5 475 500 485ZM545 405C535 410 525 412.5 512.5 417.5C505 395 497.5 372.5 487.5 350C497.5 327.5 507.5 302.5 512.5 282.5C525 285 535 290 545 292.5C585 310 610 330 610 350C610 367.5 585 390 545 405Z" fill="white"/>
<path d="M357.5 402.5C387.5 402.5 410 380 410 350C410 320 387.5 297.5 357.5 297.5C327.5 297.5 305 320 305 350C305 380 327.5 402.5 357.5 402.5Z" fill="white"/>
</svg>
