<svg width="89" height="109" viewBox="0 0 89 109" fill="none" xmlns="http://www.w3.org/2000/svg">
<path fill-rule="evenodd" clip-rule="evenodd" d="M75.2205 19.9365C79.2102 26.146 79.6227 32.8789 77.5835 37.9786C73.8218 34.3864 69.3144 31.8132 64.5844 30.5469C64.6404 29.4914 64.3781 28.409 63.7649 27.4546C62.2242 25.0569 59.0519 24.3755 56.6796 25.9326L45.234 33.4444C45.2308 33.4465 45.2276 33.4485 45.2244 33.4507L28.0416 44.7278C25.6691 46.2848 24.9948 49.4908 26.5355 51.8883C28.0762 54.286 31.2484 54.9675 33.6209 53.4104L50.8086 42.1301C50.807 42.1311 50.8102 42.129 50.8086 42.1301C57.329 37.8553 67.853 40.1526 73.9195 49.5936C79.9881 59.0369 77.7815 69.6905 71.2615 73.9697L36.8956 96.5237C30.3757 100.803 19.8478 98.5066 13.7797 89.0635C9.78951 82.8538 9.37715 76.121 11.4165 71.0212C15.178 74.6136 19.6855 77.1867 24.4154 78.4532C24.3594 79.5085 24.6217 80.5914 25.2349 81.5452C26.7756 83.9429 29.9479 84.6248 32.3203 83.0678L60.9587 64.2723C63.3305 62.7152 64.0053 59.5093 62.4645 57.1117C60.9238 54.7141 57.7515 54.0326 55.379 55.5896L38.1945 66.8679C38.1939 66.8683 38.195 66.8675 38.1945 66.8679C31.6743 71.1454 21.1479 68.8492 15.0803 59.4065C9.01212 49.9631 11.2186 39.3096 17.7386 35.0304L52.1043 12.4762C58.6244 8.19709 69.1519 10.4931 75.2205 19.9365ZM84.2947 47.0981C90.8175 37.995 90.4671 24.6554 83.8119 14.2979C75.4998 1.36322 58.985 -4.38376 46.525 3.79354L12.1593 26.3479C0.683123 33.8796 -1.51431 49.3928 4.70496 61.902C-1.81726 71.0053 -1.46732 84.3446 5.18827 94.7023C13.4999 107.637 30.0153 113.384 42.475 105.206L76.8404 82.6523C88.3166 75.1202 90.5143 59.6073 84.2947 47.0981Z" fill="black"/>
</svg>
