<svg width="120" height="121" viewBox="0 0 120 121" fill="none" xmlns="http://www.w3.org/2000/svg">
<g clip-path="url(#clip0_122_923)">
<g clip-path="url(#clip1_122_923)">
<path d="M58.313 55.7514C58.248 55.8001 58.1992 56.1739 58.1992 56.5639C58.1992 57.3764 58.508 57.5876 59.548 57.4576L60.1492 57.3926V56.5151V55.6376H59.288C58.8005 55.6376 58.3617 55.6864 58.313 55.7514Z" fill="black"/>
<path d="M80.7539 55.6701C80.9002 55.8163 80.9977 55.8163 81.1439 55.6701C81.2902 55.5238 81.2577 55.4751 80.9489 55.4751C80.6402 55.4751 80.6077 55.5238 80.7539 55.6701Z" fill="black"/>
<path d="M27 67.5V100H59.5H92V67.5V35H59.5H27V67.5ZM75.165 41.7275C76.9362 42.605 78.2362 44.0025 78.935 45.8225C79.2275 46.57 79.2437 47.22 79.2762 56.905C79.2925 62.56 79.2437 67.1425 79.1787 67.11C79.0812 67.045 78.6587 68.0525 78.61 68.475C78.5775 68.7513 76.8062 70.7988 76.465 70.945C76.2537 71.0425 76.075 71.1725 76.075 71.2375C76.075 71.4325 74.2062 72.2125 73.3125 72.375C72.8412 72.4725 69.9975 72.5375 66.9912 72.5375C63.985 72.5375 61.4338 72.6025 61.32 72.6838C61.1737 72.765 61.125 73.1875 61.1575 74.1788L61.2062 75.5438L63.8875 75.625C65.3662 75.6738 66.6825 75.7713 66.8125 75.8363C67.6412 76.2425 68.0312 77.77 67.5437 78.6963C67.0562 79.6713 66.8775 79.6875 59.3537 79.6875C52.9187 79.6875 52.4637 79.6713 51.895 79.3787C51.18 79.0213 50.8875 78.485 50.8875 77.5588C50.8875 76.86 51.2287 76.21 51.765 75.9013C51.9762 75.7875 53.0975 75.6738 54.625 75.625L57.1437 75.5438L57.1925 74.325C57.2737 72.245 58.005 72.4563 50.9362 72.4563H44.7937L43.7212 72.0013C41.7875 71.1888 40 69.32 39.3987 67.5163C39.1225 66.6712 39.1062 65.8587 39.1062 56.6125V46.6188L39.545 45.5788C39.7887 45.01 40.3087 44.1325 40.6825 43.6288C41.0725 43.125 41.365 42.6538 41.3325 42.5888C41.3162 42.5075 41.365 42.4913 41.4462 42.54C41.5275 42.605 41.9175 42.4425 42.3075 42.1825C42.9575 41.76 44.0138 41.305 44.7937 41.1263C44.9725 41.0775 51.5862 41.0613 59.5163 41.0775L73.8975 41.0938L75.165 41.7275ZM81.275 55.3938C81.5187 55.6863 81.3562 55.9625 80.95 55.9625C80.7875 55.9625 80.5925 55.8813 80.5437 55.8C80.43 55.6213 80.7387 55.15 80.95 55.15C81.015 55.15 81.1612 55.2638 81.275 55.3938ZM47.6375 90.4125C47.6375 90.7375 47.6862 91.68 47.735 92.4925C47.8487 93.9388 47.8325 93.9875 47.4912 93.9875C47.1825 93.9875 47.15 93.89 47.1337 92.9638C47.1175 92.4113 47.0687 91.7775 47.0037 91.55C46.9062 91.1925 46.8412 91.3063 46.5162 92.2975C46.0938 93.6463 45.785 94.15 45.5413 93.89C45.4437 93.8088 45.1512 93.11 44.8912 92.3463C44.485 91.1763 44.4037 91.0625 44.4037 91.55C44.3713 92.2975 44.1925 93.89 44.1275 93.9713C44.095 94.0038 43.965 93.9875 43.835 93.9388C43.575 93.825 43.575 93.89 43.835 90.77C43.9163 89.86 43.965 89.7625 44.29 89.7625C44.615 89.7625 44.7288 89.9575 45.1187 91.16C45.3787 91.9237 45.6388 92.5738 45.7037 92.6225C45.7687 92.655 45.8825 92.46 45.9312 92.1675C45.9963 91.875 46.11 91.55 46.175 91.4688C46.24 91.3713 46.3862 91.0138 46.5 90.6562C46.7762 89.8113 46.9387 89.6163 47.3125 89.7138C47.5562 89.7788 47.6375 89.9413 47.6375 90.4125ZM39.155 90.1525C39.22 90.4125 39.155 90.445 38.6187 90.3475C37.4487 90.12 36.75 90.7375 36.75 91.9725C36.75 92.3625 36.815 92.5088 36.945 92.4275C37.0425 92.3625 37.075 92.3788 37.0262 92.4925C36.685 93.0125 37.7737 93.5813 38.7325 93.3863C39.155 93.305 39.2037 93.3375 39.155 93.5975C39.09 93.9875 38.0987 94.1013 37.205 93.825C36.4575 93.6138 36.1 92.9963 36.1 91.9563C36.1 90.4938 36.8637 89.7463 38.2937 89.8113C38.9437 89.8438 39.1225 89.9088 39.155 90.1525ZM42.3562 90.0225C42.8275 90.3313 43.0875 91.03 43.0875 91.9888C43.0875 92.9638 42.665 93.63 41.95 93.825C40.7962 94.1338 40.6012 94.1013 40.0325 93.5163C39.3987 92.8663 39.2687 92.4113 39.4312 91.5013C39.48 91.1275 39.545 90.6888 39.5612 90.5425C39.5775 90.3963 39.6262 90.2987 39.675 90.3313C39.7237 90.3638 39.9512 90.25 40.1625 90.0712C40.6662 89.6975 41.8037 89.665 42.3562 90.0225ZM50.4487 89.9413C50.9362 90.2013 51.05 90.3963 51.05 91.095C51.05 91.8263 50.465 92.3625 49.6525 92.3625H49.1V93.1913C49.1 93.89 49.0512 94.0038 48.8237 93.955C48.5637 93.9062 48.5312 93.6625 48.4825 92.0375C48.4662 91.03 48.4825 90.0875 48.515 89.9738C48.6287 89.7138 49.9612 89.6975 50.4487 89.9413ZM52.35 91.3063C52.35 92.6388 52.3987 92.8988 52.675 93.175C53.065 93.565 53.3087 93.5813 53.7475 93.2725C54.0075 93.0775 54.0725 92.8013 54.105 91.4038C54.17 89.8925 54.1862 89.7625 54.495 89.7625C54.8037 89.7625 54.82 89.86 54.755 91.485C54.7062 93.1588 54.69 93.2075 54.235 93.6138C53.8287 93.955 53.6337 94.0038 53.0162 93.9388C51.8787 93.8088 51.7 93.4838 51.7 91.4525C51.7 89.8763 51.7162 89.7625 52.025 89.7625C52.3337 89.7625 52.35 89.8763 52.35 91.3063ZM58.2 90.0875C58.2 90.3638 58.0862 90.4125 57.55 90.4125H56.9V92.2163C56.9 93.8413 56.8675 94.0038 56.6237 93.955C56.3637 93.9062 56.3312 93.6625 56.2825 92.1513L56.2337 90.4125H55.6812C55.2262 90.4125 55.1125 90.3475 55.1125 90.0875C55.1125 89.7788 55.2262 89.7625 56.6562 89.7625C58.0862 89.7625 58.2 89.7788 58.2 90.0875ZM60.7675 90.0388C60.735 90.2663 60.5238 90.3475 59.9387 90.38C59.175 90.4288 59.175 90.4288 59.175 90.9975C59.175 91.55 59.2075 91.5662 59.7113 91.55C60.5238 91.5013 60.6375 91.5338 60.6375 91.7938C60.6375 91.9725 60.4425 92.0375 59.9062 92.0375H59.175V92.6875V93.3375H59.9712C60.5075 93.3375 60.8 93.4188 60.8487 93.565C60.995 93.9225 60.8162 93.9875 59.63 93.9875H58.525V91.875V89.7625H59.6787C60.6862 89.7625 60.8162 89.795 60.7675 90.0388ZM63.725 89.9575C64.1312 90.0225 64.1312 91.3063 63.725 91.7125C63.5462 91.8913 63.465 92.0375 63.53 92.0375C63.6925 92.0375 64.05 93.1425 64.05 93.6463C64.05 93.8413 63.9525 93.9875 63.8225 93.9875C63.53 93.9875 63.4487 93.8575 63.335 93.305C63.205 92.5738 62.9287 92.2 62.5062 92.2C62.1162 92.2 62.1 92.2488 62.1 93.0938C62.1 93.8738 62.0675 93.9875 61.775 93.9875C61.4662 93.9875 61.45 93.8738 61.45 91.9888C61.45 90.8837 61.4987 89.925 61.5637 89.86C61.6775 89.7625 62.7987 89.8113 63.725 89.9575ZM66.4225 91.3063C66.6825 92.1513 66.9262 92.85 66.975 92.85C67.0562 92.85 67.6087 91.1925 67.69 90.7375C67.755 90.2987 68.1287 89.7625 68.3562 89.7625C68.7137 89.7625 68.665 89.99 67.9175 92.0863C67.0075 94.6213 66.8287 94.6213 65.9675 92.0375C65.2687 89.9088 65.2362 89.7625 65.6425 89.7625C65.8862 89.7625 66.0487 90.0875 66.4225 91.3063ZM69.6562 91.875C69.6562 93.6463 69.6237 93.9062 69.38 93.955C69.1525 94.0038 69.1037 93.8088 69.055 92.4113C68.99 90.2013 69.0387 89.73 69.38 89.795C69.6237 89.8438 69.6562 90.1038 69.6562 91.875ZM72.565 89.8925C72.7275 90.1688 72.4025 90.38 71.8662 90.3638C71.265 90.3313 70.9237 90.6725 71.1025 91.1438C71.1838 91.3875 71.2487 91.3875 71.4762 91.2088C71.6387 91.0625 71.7037 91.0625 71.6387 91.1763C71.5575 91.3063 71.7037 91.4688 71.9963 91.6313C72.89 92.0863 73.085 92.9313 72.4187 93.5813C71.9963 94.02 71.1187 94.1338 70.55 93.825C70.0787 93.565 70.3062 93.1588 70.8262 93.3538C71.3462 93.5488 71.98 93.3863 72.0938 92.9963C72.24 92.5738 72.1262 92.4438 71.2 91.94C70.4688 91.55 70.3875 91.4363 70.3875 90.9488C70.3875 90.1688 70.8587 89.7625 71.7525 89.7625C72.1587 89.7625 72.5162 89.8275 72.565 89.8925ZM73.995 90.12C74.0275 90.3313 74.0437 91.2575 74.0437 92.2C74.0437 93.7925 74.0275 93.9062 73.7188 93.9062C73.5075 93.9062 73.41 93.8088 73.41 93.5813C73.4262 93.4025 73.4425 92.4763 73.4425 91.5013C73.475 90.1363 73.5237 89.7625 73.7025 89.7625C73.8162 89.7625 73.9462 89.925 73.995 90.12ZM77.4237 89.9413C78.2362 90.315 78.6262 92.0213 78.1225 92.9963C77.7975 93.63 77.18 93.9875 76.4487 93.9875C75.7175 93.9875 75.1975 93.6625 74.8562 93.0125C74.3525 92.0538 74.6612 90.575 75.4575 90.0225C75.88 89.7138 76.855 89.6813 77.4237 89.9413ZM80.3162 90.9163C80.7062 91.55 81.1125 92.2325 81.2262 92.4113C81.3887 92.7038 81.4375 92.5413 81.47 91.3063C81.5187 90.055 81.5675 89.8438 81.8112 89.795C82.0712 89.7463 82.0875 89.8925 82.055 91.8263C82.0062 93.7275 81.9737 93.9062 81.6975 93.9062C81.5025 93.9062 81.1125 93.435 80.4787 92.395L79.5687 90.8837L79.52 92.4438C79.4875 93.6625 79.4225 93.9875 79.2437 93.9875C79.0487 93.9875 79 93.6138 79 91.875C79 89.9088 79.0162 89.7625 79.3087 89.7625C79.5037 89.7625 79.845 90.1525 80.3162 90.9163Z" fill="black"/>
<path d="M45.7854 45.075C44.8591 45.2375 43.9816 45.8875 43.4616 46.7975L43.0879 47.4312L43.1366 56.8562L43.1691 66.2812L43.5754 66.8662C43.7866 67.1912 44.2904 67.6625 44.7129 67.9225L45.4441 68.3937L58.7691 68.4425C66.0979 68.475 72.3216 68.4425 72.5979 68.3937C73.4591 68.2475 74.4504 67.4837 74.8729 66.655L75.2629 65.8912V56.6612V47.4312L74.7754 46.6675C74.5154 46.245 73.9791 45.6925 73.6054 45.4487L72.9066 44.9937L59.7441 44.9775C52.5129 44.9612 46.2241 45.01 45.7854 45.075ZM63.4004 49.2837C66.0166 50.1937 68.4866 51.64 70.9079 53.7037C71.9641 54.6137 73.8004 56.5475 73.8004 56.7587C73.7841 56.8075 73.4266 57.2462 72.9879 57.7337C72.5491 58.2212 72.2404 58.6925 72.2891 58.7737C72.3379 58.8712 72.3054 58.8875 72.2079 58.8225C72.1104 58.7737 71.7204 59.0175 71.3304 59.3912C69.9816 60.675 66.7316 62.885 65.7079 63.1937C65.5129 63.2425 65.3829 63.3725 65.4479 63.4537C65.4966 63.535 65.4804 63.6 65.3991 63.5675C65.3341 63.5512 64.5704 63.7625 63.7091 64.055C61.4179 64.8025 59.6954 65.0137 57.8266 64.77C55.3891 64.4612 53.2766 63.6975 50.9204 62.2675C50.3516 61.9262 49.7991 61.6987 49.7016 61.7637C49.6204 61.8125 49.5879 61.7962 49.6366 61.6987C49.7666 61.5037 48.8241 60.7887 48.6129 60.9187C48.5316 60.9675 48.4991 60.9025 48.5479 60.7725C48.5966 60.6425 48.5154 60.4962 48.3366 60.4475C47.9954 60.3337 46.4354 58.8875 45.2979 57.6362L44.5179 56.7912L45.0216 56.1575C45.9641 54.955 49.3929 51.9 49.7991 51.9C49.8641 51.9 49.8804 51.8187 49.8154 51.705C49.7504 51.6075 49.7666 51.575 49.8804 51.64C49.9779 51.6887 50.3841 51.51 50.7904 51.25C51.9766 50.4537 54.2029 49.4625 55.8116 49.04C57.1279 48.6987 57.5829 48.65 59.5816 48.6987C61.6454 48.7475 62.0029 48.8125 63.4004 49.2837Z" fill="black"/>
<path d="M57.3059 50.2103C55.7459 50.5678 54.9496 50.8278 54.9496 50.9415C54.9496 51.0228 54.9009 51.0715 54.8359 51.0715C54.7546 51.0553 54.6734 51.0553 54.6246 51.0878C54.5759 51.104 54.3971 51.1365 54.2021 51.169C53.6496 51.2828 50.9684 52.8428 51.0171 53.0378C51.0334 53.1353 50.9846 53.184 50.8871 53.119C50.6759 52.989 48.4334 54.8253 48.5634 55.0365C48.6121 55.134 48.5796 55.1503 48.4821 55.0853C48.2871 54.9715 46.6621 56.4015 46.6621 56.694C46.6621 56.8078 47.0846 57.279 47.6046 57.7665C53.4546 63.2753 59.0446 64.6728 64.6834 62.0403C66.8121 61.049 68.4696 59.879 70.7121 57.7503L71.8334 56.7103L70.8096 55.719C69.4446 54.419 68.9084 54.0128 68.7134 54.1265C68.6159 54.1753 68.5996 54.1428 68.6646 54.0453C68.7784 53.8503 66.5196 52.3065 65.0246 51.559C63.0746 50.6003 61.6934 50.2428 59.5809 50.1778C58.5084 50.1615 57.4846 50.1615 57.3059 50.2103ZM56.8184 52.1765C56.9321 52.989 56.9159 53.0378 56.5746 53.0378C56.2334 53.0378 56.2171 52.9728 56.3146 52.4203C56.3634 52.0953 56.4121 51.6403 56.4121 51.4128C56.4121 50.7465 56.6884 51.2665 56.8184 52.1765ZM58.0371 51.6403C58.0371 51.949 58.1021 52.2415 58.1834 52.2903C58.4434 52.4528 58.1834 53.0378 57.8421 53.0378C57.5496 53.0378 57.5171 52.9565 57.6146 52.4203C57.6634 52.0953 57.7121 51.6565 57.7121 51.4453C57.7121 51.2503 57.7934 51.0878 57.8746 51.0878C57.9721 51.0878 58.0371 51.3315 58.0371 51.6403ZM59.3371 51.6403C59.3371 51.949 59.4021 52.2415 59.4834 52.2903C59.7434 52.4528 59.4834 53.0378 59.1421 53.0378C58.8496 53.0378 58.8171 52.9565 58.9146 52.4203C58.9634 52.0953 59.0121 51.6565 59.0121 51.4453C59.0121 51.2503 59.0934 51.0878 59.1746 51.0878C59.2721 51.0878 59.3371 51.3315 59.3371 51.6403ZM60.7346 52.144C60.8971 53.0215 60.8971 53.0378 60.5071 53.0378C60.1334 53.0378 60.1171 52.989 60.2146 52.4203C60.2634 52.0953 60.3121 51.689 60.3121 51.5265C60.3121 50.9253 60.5721 51.299 60.7346 52.144ZM61.9371 51.5265C61.9371 51.689 61.9859 52.0953 62.0346 52.4203C62.1321 52.989 62.1159 53.0378 61.7746 53.0378C61.4334 53.0378 61.4171 52.989 61.5146 52.4203C61.5634 52.0953 61.6121 51.689 61.6121 51.5265C61.6121 51.3803 61.6934 51.2503 61.7746 51.2503C61.8721 51.2503 61.9371 51.3803 61.9371 51.5265ZM61.5796 53.509L62.4246 53.5253V56.7753V60.009L59.4346 60.0578C57.8096 60.0903 56.3471 60.0903 56.1846 60.0578C55.9571 60.009 55.9246 59.6353 55.9246 56.7915C55.9246 55.0203 55.9571 53.5415 55.9896 53.509C56.0546 53.4603 57.8584 53.4603 61.5796 53.509ZM55.5671 54.1103C55.5996 54.3703 55.5184 54.484 55.2096 54.5328C54.9659 54.5815 54.7871 54.549 54.7871 54.484C54.7871 54.4028 54.5271 54.3378 54.2184 54.3378C53.6496 54.3378 53.4059 54.029 53.9421 53.9803C54.0884 53.9803 54.2996 53.9478 54.4134 53.9478C54.5109 53.9315 54.6571 53.8665 54.7221 53.8015C54.9659 53.5578 55.5184 53.769 55.5671 54.1103ZM64.2121 53.9478C64.7809 54.0615 64.8621 54.3378 64.3421 54.3378C64.1309 54.3378 63.6921 54.3865 63.3671 54.4353C62.7821 54.5328 62.7496 54.5165 62.7496 54.094C62.7496 53.6878 62.7821 53.6553 63.2371 53.7528C63.5134 53.8015 63.9521 53.899 64.2121 53.9478ZM55.5671 55.4103C55.5996 55.6703 55.5184 55.784 55.2096 55.8328C54.9659 55.8815 54.7871 55.849 54.7871 55.784C54.7871 55.7028 54.5759 55.6378 54.3321 55.6378C53.6009 55.6378 53.5521 55.4103 54.2509 55.2153C55.1446 54.9553 55.5021 55.004 55.5671 55.4103ZM64.1796 55.264C64.7646 55.3615 64.8946 55.6378 64.3421 55.6378C64.1309 55.6378 63.6921 55.6865 63.3671 55.7353C62.8309 55.8328 62.7496 55.8003 62.7496 55.524C62.7496 55.0853 62.9284 54.9553 63.3184 55.069C63.4971 55.1178 63.8871 55.199 64.1796 55.264ZM55.4859 56.434C55.5509 56.4503 55.5996 56.5965 55.5996 56.7915C55.5996 57.1003 55.5346 57.1165 54.6734 57.0028C53.4384 56.8565 53.2596 56.694 54.1696 56.5803C54.4134 56.5478 54.6571 56.4665 54.7059 56.4178C54.7709 56.369 54.9334 56.3365 55.0796 56.369C55.2259 56.4015 55.4046 56.434 55.4859 56.434ZM64.1959 56.5153C64.7159 56.5803 64.8459 56.9378 64.3421 56.9378C64.1471 56.9378 63.6921 56.9865 63.3671 57.0353C62.8309 57.1328 62.7496 57.1003 62.7496 56.824C62.7496 56.369 62.9284 56.2553 63.3996 56.369C63.6271 56.434 63.9846 56.499 64.1959 56.5153ZM55.5671 58.0428C55.6321 58.4165 55.5996 58.4165 54.6734 58.319C54.1534 58.254 53.6984 58.1728 53.6496 58.124C53.5196 57.994 54.0234 57.7828 54.3159 57.8315C54.4784 57.864 54.6571 57.8153 54.7221 57.734C54.9009 57.4253 55.5184 57.6528 55.5671 58.0428ZM64.1959 57.8315C64.7159 57.864 64.8459 58.2378 64.3421 58.2378C64.1471 58.2378 63.6921 58.2865 63.3671 58.3353C62.8309 58.4328 62.7496 58.4003 62.7496 58.124C62.7496 57.669 62.9284 57.5553 63.3996 57.6853C63.6271 57.7503 63.9846 57.8153 64.1959 57.8315ZM55.5671 59.3428C55.6321 59.7165 55.5996 59.7165 54.6734 59.619C53.3896 59.4565 53.2596 59.3103 54.2671 59.164C54.5759 59.1153 54.8684 59.034 54.9171 58.969C55.1284 58.7578 55.5184 58.9853 55.5671 59.3428ZM64.1796 59.164C64.7646 59.2615 64.8946 59.5378 64.3421 59.5378C64.1309 59.5378 63.6921 59.5865 63.3671 59.6353C62.8309 59.7328 62.7496 59.7003 62.7496 59.424C62.7496 58.9853 62.9284 58.8553 63.3184 58.969C63.4971 59.034 63.8871 59.1153 64.1796 59.164ZM56.8184 61.1953C56.7046 62.0565 56.6396 62.2515 56.5096 62.1215C56.4771 62.089 56.3959 61.6665 56.3309 61.1953C56.2334 60.399 56.2334 60.3503 56.5746 60.3503C56.9159 60.3503 56.9159 60.399 56.8184 61.1953ZM58.1021 61.2765C58.0046 62.2028 57.9396 62.414 57.8096 62.284C57.7771 62.2515 57.6959 61.7965 57.6471 61.2765C57.5334 60.399 57.5496 60.3503 57.8746 60.3503C58.1996 60.3503 58.2159 60.399 58.1021 61.2765ZM59.4021 61.2765C59.3046 62.2028 59.2396 62.414 59.1096 62.284C59.0771 62.2515 58.9959 61.7965 58.9471 61.2765C58.8334 60.399 58.8496 60.3503 59.1746 60.3503C59.4996 60.3503 59.5159 60.399 59.4021 61.2765ZM60.7021 61.2765C60.6046 62.2028 60.5396 62.414 60.4096 62.284C60.3771 62.2515 60.2959 61.7965 60.2471 61.2765C60.1334 60.399 60.1496 60.3503 60.4746 60.3503C60.7996 60.3503 60.8159 60.399 60.7021 61.2765ZM62.0021 61.2765C61.9046 62.2028 61.8396 62.414 61.7096 62.284C61.6771 62.2515 61.5959 61.7965 61.5471 61.2765C61.4334 60.399 61.4496 60.3503 61.7746 60.3503C62.0996 60.3503 62.1159 60.399 62.0021 61.2765Z" fill="black"/>
<path d="M40.537 90.6402C40.147 90.9815 40.082 91.1602 40.082 91.8427C40.082 92.704 40.5045 93.419 40.927 93.2565C41.0733 93.2077 41.1058 93.2565 41.0408 93.3702C40.8295 93.7115 41.8533 93.3377 42.1458 92.964C42.6495 92.3302 42.357 90.6077 41.707 90.3477C41.252 90.1852 41.0083 90.234 40.537 90.6402Z" fill="black"/>
<path d="M49.3109 90.3637C49.1809 90.4125 49.0996 90.7375 49.0996 91.16C49.0996 91.9562 49.3759 92.0862 50.0421 91.615C50.8221 91.0787 50.2046 89.99 49.3109 90.3637Z" fill="black"/>
<path d="M62.0996 91.0137C62.0996 91.6149 62.1484 91.7124 62.4409 91.7124C62.9934 91.7124 63.3996 91.4037 63.3996 90.9812C63.3996 90.5424 62.9934 90.2499 62.4571 90.2987C62.1484 90.3149 62.0996 90.4124 62.0996 91.0137Z" fill="black"/>
<path d="M76.0255 90.3636C75.668 90.4611 75.2617 91.2249 75.2617 91.7936C75.2617 92.3299 75.7167 93.3374 75.9767 93.3536C76.0742 93.3699 76.3342 93.4024 76.5455 93.4186C77.5367 93.5161 78.073 91.6799 77.3417 90.7049C77.1142 90.3961 76.4805 90.2336 76.0255 90.3636Z" fill="black"/>
</g>
</g>
<defs>
<clipPath id="clip0_122_923">
<rect width="120" height="120" fill="white" transform="translate(0 0.5)"/>
</clipPath>
<clipPath id="clip1_122_923">
<rect width="70" height="70" fill="white" transform="translate(25 25.5)"/>
</clipPath>
</defs>
</svg>
