<svg width="120" height="120" viewBox="0 0 120 120" fill="none" xmlns="http://www.w3.org/2000/svg">
<path d="M50.1562 18.8672C50.1562 21.5156 50.25 23.6719 50.3438 23.6719C50.4609 23.6719 51.0703 23.5078 51.7031 23.3203C53.9531 22.6641 57.0469 22.2656 60 22.2656C62.9531 22.2656 66.0469 22.6641 68.2969 23.3203C68.9297 23.5078 69.5391 23.6719 69.6562 23.6719C69.75 23.6719 69.8438 21.5156 69.8438 18.8672V14.0625H60H50.1562V18.8672Z" fill="black"/>
<path d="M26.0158 33.4452C23.3674 38.039 21.1877 41.9061 21.1408 42.0468C21.094 42.2577 29.2971 47.1796 29.4611 47.0155C29.4846 46.9921 29.7893 46.0311 30.1174 44.8827C31.6174 39.703 34.1252 35.3905 37.8049 31.6874C39.4221 30.0233 39.469 29.953 39.0236 29.6249C38.2502 29.039 31.2424 25.078 31.0315 25.078C30.9143 25.1015 28.6643 28.8515 26.0158 33.4452Z" fill="black"/>
<path d="M84.843 27.328C82.7102 28.5468 80.8821 29.6483 80.7649 29.7655C80.6243 29.9061 81.1399 30.6327 82.218 31.6874C85.8743 35.3905 88.3821 39.703 89.8821 44.8827C90.2102 46.0311 90.5149 46.9921 90.5383 47.0155C90.7024 47.1796 98.9055 42.2577 98.8587 42.0468C98.718 41.4608 89.1555 25.1015 88.9446 25.1015C88.8274 25.078 86.9758 26.0858 84.843 27.328Z" fill="black"/>
<path d="M55.2188 29.4141C52.9219 29.8828 51.4922 30.3984 49.2188 31.5234C44.7656 33.75 41.2734 37.0781 38.9062 41.2969L38.1562 42.6562H60H81.8438L81.0938 41.2969C80.0859 39.4922 78.0469 36.8438 76.6875 35.5781C73.9688 33.0469 69.7266 30.6797 66.2109 29.7422C63.7734 29.0859 57.6797 28.8984 55.2188 29.4141Z" fill="black"/>
<path d="M23.0156 50.0391C17.9062 50.9766 12.375 53.8125 8.46094 57.5156C4.57031 61.1953 1.28906 67.3828 0.351562 72.8438C-0.09375 75.375 -0.09375 80.25 0.351562 82.7812C1.28906 88.2422 4.57031 94.4297 8.46094 98.1094C11.3672 100.875 15.5391 103.383 19.3359 104.625C24.6328 106.406 31.6875 106.406 37.0078 104.625C42.7734 102.703 48.3047 98.5078 51.5156 93.5859L52.6172 91.875H60H67.3828L68.3203 93.3516C71.5312 98.3438 77.2031 102.727 82.9922 104.625C86.8828 105.914 92.6484 106.312 96.8438 105.586C102.07 104.672 107.555 101.883 111.539 98.1094C115.43 94.4297 118.711 88.2422 119.648 82.7812C120.094 80.25 120.094 75.375 119.648 72.8438C118.734 67.6172 115.945 62.1328 112.172 58.1484C108.492 54.2578 102.305 50.9766 96.8438 50.0391C94.0547 49.5469 25.6875 49.5469 23.0156 50.0391ZM31.1719 70.3125V73.8281H34.6875H38.2031V77.3438V80.8594H34.6875H31.1719V84.375V87.8906H27.6562H24.1406V84.375V80.8594H20.625H17.1094V77.3438V73.8281H20.625H24.1406V70.3125V66.7969H27.6562H31.1719V70.3125ZM55.3125 70.5469V74.0625H51.7969H48.2812V70.5469V67.0312H51.7969H55.3125V70.5469ZM71.7188 70.5469V74.0625H68.2031H64.6875V70.5469V67.0312H68.2031H71.7188V70.5469ZM93.8438 67.4766C94.8516 68.1562 95.3906 69.1172 95.3906 70.3125C95.3906 72.1875 93.9844 73.5938 92.1094 73.5938C90.2344 73.5938 88.8281 72.1875 88.8281 70.3125C88.8281 68.4375 90.2344 67.0312 92.1094 67.0312C92.7422 67.0312 93.4219 67.2188 93.8438 67.4766ZM86.8125 74.5078C87.8203 75.1875 88.3594 76.1484 88.3594 77.3438C88.3594 79.2188 86.9531 80.625 85.0781 80.625C83.2031 80.625 81.7969 79.2188 81.7969 77.3438C81.7969 75.4688 83.2031 74.0625 85.0781 74.0625C85.7109 74.0625 86.3906 74.25 86.8125 74.5078ZM100.875 74.5078C101.883 75.1875 102.422 76.1484 102.422 77.3438C102.422 79.2188 101.016 80.625 99.1406 80.625C97.2656 80.625 95.8594 79.2188 95.8594 77.3438C95.8594 75.4688 97.2656 74.0625 99.1406 74.0625C99.7734 74.0625 100.453 74.25 100.875 74.5078ZM93.8438 81.5391C94.8516 82.2188 95.3906 83.1797 95.3906 84.375C95.3906 86.25 93.9844 87.6562 92.1094 87.6562C90.2344 87.6562 88.8281 86.25 88.8281 84.375C88.8281 82.5 90.2344 81.0938 92.1094 81.0938C92.7422 81.0938 93.4219 81.2812 93.8438 81.5391Z" fill="black"/>
</svg>
