<svg width="120" height="121" viewBox="0 0 120 121" fill="none" xmlns="http://www.w3.org/2000/svg">
<g clip-path="url(#clip0_122_766)">
<path d="M31.0298 40.9486C31.0596 54.2891 31.0893 55.6887 31.4467 53.7531C34.0076 39.6979 44.6979 29.0076 58.753 26.4467C60.6886 26.0894 59.289 26.0596 45.9783 26.0299L31 26.0001L31.0298 40.9486Z" fill="black"/>
<path d="M70.3956 26.4766C75.1601 27.3402 80.3712 29.5438 84.1232 32.2833C85.8504 33.5638 86.4162 33.802 87.5775 33.8616C90.1384 33.9509 91.8655 35.7971 91.6571 38.2687C91.5082 40.1149 90.7935 41.1274 89.1557 41.842C87.4584 42.5865 86.1482 42.378 84.7486 41.1572C83.5872 40.1447 83.081 38.6856 83.3192 37.1967C83.4681 36.2438 83.3788 36.1545 81.4432 34.874C73.4627 29.6033 64.3507 28.2335 55.5662 30.9731C37.3123 36.6905 29.0638 57.9221 38.6523 74.4489C45.7097 86.5983 60.1222 92.2263 73.433 88.0276C88.2624 83.3525 97.1064 67.9871 93.682 52.8599C93.1162 50.4479 93.3544 49.6736 94.6349 49.3461C96.1833 48.959 96.8682 49.9714 97.5233 53.5746C97.9104 55.7483 97.9402 54.855 97.97 40.9487L97.9998 26.0002L83.0512 26.03C69.1747 26.0597 68.2516 26.0895 70.3956 26.4766ZM74.3263 57.3266C77.453 65.3666 80.0139 72.1262 80.0734 72.3644C80.1628 72.6622 79.4183 72.7516 76.5001 72.7516H72.8374L68.8174 61.287C66.6138 54.9741 64.7378 49.8225 64.6485 49.8225C64.4996 49.8225 60.1818 61.4359 60.1818 61.8528C60.1818 61.9422 61.7898 62.0315 63.7254 62.0315H67.2689L68.1027 64.4733C68.5494 65.8431 68.9663 67.1235 69.0556 67.3022C69.1449 67.6 67.9538 67.6893 63.7254 67.6893H58.2462L57.3529 70.1609L56.4595 72.6027L52.7969 72.692C50.8017 72.7218 49.1639 72.6622 49.1639 72.5431C49.1639 72.424 51.7248 65.6346 54.8515 57.4755L60.5689 42.6758H64.6187H68.6685L74.3263 57.3266Z" fill="black"/>
<path d="M31.0298 78.0222L31 93.0005L45.9783 92.9707C59.289 92.9409 60.6886 92.9112 58.753 92.5538C44.6979 89.9929 34.0076 79.3026 31.4467 65.2474C31.0893 63.3119 31.0596 64.7114 31.0298 78.0222Z" fill="black"/>
<path d="M97.583 64.8306C97.2853 67.3617 96.0048 71.4115 94.5457 74.3893C89.8408 83.948 80.8776 90.6183 70.2469 92.5538C68.3113 92.9112 69.7109 92.9409 83.0514 92.9707L97.9999 93.0005V78.1115C97.9999 69.9226 97.9404 63.2225 97.8808 63.2225C97.8213 63.2225 97.7021 63.9372 97.583 64.8306Z" fill="black"/>
</g>
<defs>
<clipPath id="clip0_122_766">
<rect width="120" height="120" fill="white" transform="translate(0 0.379883)"/>
</clipPath>
</defs>
</svg>
