<svg width="98" height="98" viewBox="0 0 98 98" fill="none" xmlns="http://www.w3.org/2000/svg">
<g clip-path="url(#clip0_1715_20)">
<path d="M57.3757 11.2333L77.5269 22.8708C80.8589 19.3632 86.4 19.2243 89.9076 22.5563C90.5119 23.128 91.0264 23.7854 91.447 24.5041C93.8521 28.7018 92.3943 34.055 88.1967 36.4601C87.4862 36.8684 86.7226 37.1747 85.9182 37.3707V60.6416C90.5977 61.7563 93.4887 66.4522 92.3698 71.1317C92.1738 71.9647 91.8512 72.765 91.4225 73.5041C89.0052 77.6813 83.6601 79.1146 79.4706 76.6973C78.6702 76.2358 77.9393 75.6397 77.3227 74.9455L57.294 86.5095C58.813 91.0992 56.3222 96.0441 51.7366 97.559C50.8505 97.8489 49.9317 98 49.0007 98C44.1783 98.0041 40.2665 94.1004 40.2624 89.278C40.2624 88.4409 40.3808 87.6038 40.6217 86.7913L20.4664 75.166C17.1344 78.6532 11.6015 78.7879 8.11024 75.4518C4.62307 72.1198 4.49241 66.5869 7.82441 63.0957C8.97999 61.8829 10.4622 61.0295 12.0874 60.6334L12.0915 37.3625C7.39566 36.2355 4.50466 31.5111 5.63574 26.8112C5.82766 26.0027 6.13799 25.2228 6.55041 24.5C8.96774 20.3187 14.3169 18.8895 18.5023 21.3068C19.2251 21.7193 19.8866 22.2378 20.4623 22.8463L40.6258 11.2088C39.2538 6.58234 41.8957 1.72725 46.5099 0.359337C47.3143 0.11842 48.1596 3.20388e-06 49.0007 3.20388e-06C53.8232 -0.00408013 57.735 3.8955 57.7391 8.71384C57.7432 9.56725 57.6166 10.4207 57.3757 11.2333ZM55.2727 14.8143C55.1952 14.9001 55.1217 14.9736 55.0359 15.0512L81.4183 60.7437C81.5245 60.7069 81.647 60.6783 81.7532 60.6498V37.3462C77.0777 36.1906 74.2317 31.458 75.3913 26.7785C75.4158 26.6805 75.4403 26.5784 75.4689 26.4845L55.2727 14.8143ZM42.9615 15.0553L42.7165 14.8103L22.5203 26.4559C23.8556 31.0905 21.1851 35.9211 16.5546 37.2563C16.4484 37.289 16.3463 37.3135 16.2442 37.3421V60.6498L16.5872 60.7437L42.9697 15.0512L42.9615 15.0553ZM51.4385 17.1255C49.846 17.5828 48.1596 17.5828 46.5712 17.1255L20.1928 62.8139C21.3933 63.9695 22.2427 65.4477 22.6428 67.0647H75.3627C75.7588 65.4395 76.6163 63.9573 77.825 62.8017L51.4385 17.1255ZM55.4647 83.3857L75.5261 71.7973C75.4648 71.6053 75.4158 71.4134 75.3709 71.2174H22.6306L22.5448 71.5563L42.7124 83.202C44.2967 81.5523 46.5262 80.5356 49.0007 80.5356C51.561 80.5356 53.8599 81.634 55.4647 83.3857Z" fill="black"/>
</g>
<defs>
<clipPath id="clip0_1715_20">
<rect width="98" height="98" fill="white"/>
</clipPath>
</defs>
</svg>
