<svg width="120" height="121" viewBox="0 0 120 121" fill="none" xmlns="http://www.w3.org/2000/svg">
<g clip-path="url(#clip0_122_784)">
<path d="M55.6519 26.0353C48.8642 26.4386 41.9758 28.7235 36.4315 32.4197C33.3065 34.5031 28.4005 39.409 26.3172 42.534C22.1169 48.8512 20 55.9076 20 63.6025C20 73.952 23.6962 82.8566 30.9543 90.1482C38.246 97.4063 47.1505 101.103 57.5 101.103C67.8495 101.103 76.754 97.4063 84.0457 90.1482C91.3038 82.8566 95 73.952 95 63.6025C95 53.2531 91.3038 44.3485 84.0457 37.0568C79.4086 32.4533 74.5027 29.4628 68.4207 27.6482C64.5565 26.5058 59.2809 25.8337 55.6519 26.0353ZM47.9234 62.2584V67.4668H46.4113H44.8992V63.6025V59.7383H43.8911H42.9167L42.8159 63.6697L42.7151 67.6348H40.0269H37.3387L37.2379 62.3257L37.1371 57.0501H42.547H47.9234V62.2584ZM60.289 62.3257L60.1882 67.6348H57.5672H54.9798V68.8781V70.155H52.2917H49.6035V63.6025V57.0501H54.9798H60.3898L60.289 62.3257ZM77.8293 62.2584V67.4668H76.3172H74.8051V63.6025V59.7383H73.629H72.453V63.6025V67.4668H71.1089H69.7648V63.6025V59.7383H68.5887H67.4126V63.7705V67.8028H64.7245H62.0363V62.4265V57.0501H69.9328H77.8293V62.2584Z" fill="black"/>
<path d="M54.9805 62.2586V64.7788H56.1565H57.3326V62.2586V59.7385H56.1565H54.9805V62.2586Z" fill="black"/>
</g>
<defs>
<clipPath id="clip0_122_784">
<rect width="120" height="120" fill="white" transform="translate(0 0.569336)"/>
</clipPath>
</defs>
</svg>
