<svg width="67" height="67" viewBox="0 0 67 67" fill="none" xmlns="http://www.w3.org/2000/svg">
<g clip-path="url(#clip0_1715_14)">
<path d="M23.293 0.680473C22.8611 0.902931 22.6256 1.13848 22.4162 1.57031C22.1283 2.11993 22.1152 2.31622 22.1152 4.80254V7.45898L20.5842 8.23106C19.7336 8.64981 18.4904 9.36953 17.823 9.80137L16.593 10.6127L14.3945 9.35645C13.1906 8.66289 12.0129 8.03477 11.7643 7.96934C11.1623 7.77305 10.2594 8.02168 9.84062 8.47969C9.67051 8.67598 7.39355 12.5363 4.76328 17.0771C0.143945 25.0857 0.0130859 25.3475 0 26.0148C0 27.258 0.209375 27.4412 4.1875 29.692L5.16895 30.2416V33.5V36.7584L4.1875 37.308C0.209375 39.5588 0 39.742 0 40.9852C0.0130859 41.6525 0.143945 41.9143 4.76328 49.9229C7.39355 54.4506 9.67051 58.324 9.84062 58.5203C10.2594 58.9783 11.1623 59.227 11.7643 59.0307C12.0129 58.9652 13.1906 58.3371 14.3945 57.6436L16.593 56.3873L17.823 57.1986C18.4904 57.6305 19.7336 58.3502 20.5842 58.7689L22.1152 59.541V62.1975C22.1152 64.6838 22.1283 64.8801 22.4162 65.4297C22.6256 65.8615 22.8611 66.0971 23.293 66.3064L23.8687 66.6074H33.5H43.1312L43.707 66.3064C44.1389 66.0971 44.3744 65.8615 44.5969 65.4297C44.8717 64.8801 44.8848 64.6838 44.8848 62.1975V59.541L46.4289 58.7689C47.2664 58.3502 48.5096 57.6305 49.19 57.1855L50.407 56.3873L52.6055 57.6436C53.8094 58.3371 55.0002 58.9652 55.2488 59.0438C55.8377 59.227 56.7406 58.9783 57.1594 58.5203C57.3295 58.324 59.6195 54.4506 62.2367 49.9229C66.9084 41.8227 67 41.6656 67 40.959C67 39.742 66.9215 39.6635 63.7939 37.8707L61.8311 36.7453V33.5V30.2547L63.7939 29.1293C66.9215 27.3365 67 27.258 67 26.041C67 25.3344 66.9084 25.1773 62.2367 17.0771C59.6195 12.5363 57.3295 8.67598 57.1594 8.47969C56.7406 8.02168 55.8377 7.77305 55.2488 7.95625C55.0002 8.03477 53.8094 8.66289 52.6055 9.35645L50.407 10.6127L49.19 9.81445C48.5096 9.36953 47.2664 8.64981 46.4289 8.23106L44.8848 7.45898V4.80254C44.8848 2.31622 44.8717 2.11993 44.5969 1.57031C44.3744 1.13848 44.1389 0.902931 43.707 0.680473L43.1312 0.392578H33.5H23.8687L23.293 0.680473ZM40.8281 6.93555C40.8281 10.2332 40.815 10.207 42.9873 11.123C44.8979 11.9213 46.298 12.7457 48.8629 14.5908C49.3994 14.9834 49.5957 15.0488 50.2107 15.0488C50.8781 15.0488 51.0744 14.9703 52.8541 13.9365C53.9141 13.3215 54.8432 12.8242 54.9217 12.8242C55.0395 12.8242 62.0404 24.8371 62.132 25.1904C62.1582 25.2689 61.36 25.8186 60.3654 26.3813C57.4865 28.0301 57.2902 28.2918 57.5912 30.1369C57.8268 31.5371 57.8268 35.4629 57.5912 36.8631C57.2902 38.7082 57.4865 38.9699 60.3654 40.6188C61.36 41.1814 62.1582 41.7311 62.132 41.8096C62.0535 42.1629 55.0395 54.1758 54.9086 54.1758C54.8432 54.1758 53.9141 53.6654 52.841 53.0504C51.1006 52.0428 50.8258 51.925 50.25 51.925C49.5041 51.9381 49.3078 52.0297 48.117 52.9326C46.7953 53.9402 44.7277 55.1311 43.1051 55.8246C40.7889 56.8061 40.8281 56.7406 40.8281 60.0645V62.5508H33.5H26.1719V60.0121C26.1719 57.6043 26.1588 57.4604 25.8709 57.0416C25.7139 56.793 25.3736 56.5051 25.125 56.3873C22.2199 55.0133 20.4271 54.0449 19.3672 53.2598C17.7184 52.0559 17.4959 51.9381 16.75 51.925C16.1873 51.925 15.8994 52.0559 14.0805 53.1027L12.0391 54.2805L11.7904 53.8617C11.0445 52.6578 4.8418 41.8227 4.8418 41.7441C4.8418 41.6918 5.65312 41.1814 6.63457 40.6188C7.6291 40.043 8.63672 39.4148 8.85918 39.2186C9.46113 38.682 9.61816 38.0277 9.40879 36.85C9.17324 35.6068 9.17324 31.5109 9.40879 30.1369C9.70977 28.2918 9.51348 28.0301 6.63457 26.3813C5.65312 25.8186 4.8418 25.3082 4.8418 25.2559C4.8418 25.1643 11.0053 14.4076 11.7904 13.1383L12.0391 12.7195L14.0674 13.8842C15.9256 14.9572 16.135 15.0488 16.7893 15.0488C17.4043 15.0488 17.6006 14.9834 18.1371 14.5908C20.5057 12.8766 23.2014 11.3324 24.6277 10.8744C24.8895 10.7828 25.2559 10.5996 25.4521 10.4557C26.1064 9.93223 26.1719 9.63125 26.1719 6.93555V4.44922H33.5H40.8281V6.93555Z" fill="black"/>
<path d="M19.8906 23.3189C19.6551 23.4891 19.341 23.777 19.2102 23.9602C19.0662 24.1434 17.4828 28.1477 15.69 32.8586C12.9943 39.925 12.4316 41.5346 12.4316 42.0711C12.4316 43.2488 13.1775 43.9686 14.3814 43.9686C15.2189 43.9686 15.8209 43.6545 16.148 43.0264C16.2658 42.7908 16.593 42.0057 16.8547 41.2859L17.352 39.9773L21.0945 39.9381L24.8371 39.9119L25.3736 41.3121C26.041 43.0787 26.1719 43.3143 26.6953 43.6676C27.258 44.0602 28.2787 44.0732 28.8937 43.7068C29.4564 43.3535 29.8359 42.7123 29.8359 42.0711C29.8359 41.3121 23.3977 24.2873 22.9266 23.777C22.4031 23.2143 21.9451 23.0311 21.0945 23.0311C20.5057 23.0311 20.2178 23.0965 19.8906 23.3189ZM22.233 32.9633C22.8219 34.5074 23.293 35.7768 23.293 35.8029C23.293 35.8291 22.3115 35.8553 21.1207 35.8553C19.4326 35.8553 18.9615 35.816 19.0008 35.6852C19.3148 34.8084 21.1207 30.1105 21.1469 30.1367C21.16 30.1498 21.6441 31.4191 22.233 32.9633Z" fill="black"/>
<path d="M33.3693 23.1228C33.0683 23.2405 32.5841 23.7116 32.3747 24.1042C32.2177 24.3921 32.1915 25.9886 32.1915 33.4999C32.1915 43.2882 32.1654 42.8825 32.8982 43.5761C33.3954 44.021 34.6779 44.0995 35.306 43.7069C36.1304 43.1966 36.2482 42.6993 36.2482 39.5063V36.6667L38.3157 36.6144C40.0954 36.562 40.488 36.5097 41.247 36.2218C44.0736 35.1618 45.8009 32.754 45.8009 29.8358C45.8009 26.7345 43.8249 24.1173 40.8413 23.2405C40.2655 23.0704 39.4935 23.0312 36.8501 23.0442C35.0443 23.0442 33.4739 23.0835 33.3693 23.1228ZM40.1216 27.3233C42.1761 28.3702 42.2808 31.0136 40.3179 32.1651C39.7552 32.4923 39.5851 32.5185 37.9886 32.5577L36.2482 32.6101V29.7704V26.9177L37.9232 26.9831C39.271 27.0355 39.6898 27.1009 40.1216 27.3233Z" fill="black"/>
<path d="M49.1508 23.2799C48.9545 23.4107 48.6666 23.6986 48.5357 23.8949C48.3002 24.2613 48.2871 24.6801 48.2871 33.5C48.2871 42.3199 48.3002 42.7387 48.5357 43.1051C48.9414 43.707 49.4387 43.9688 50.25 43.9688C51.0613 43.9688 51.5586 43.707 51.9643 43.1051C52.1998 42.7387 52.2129 42.3199 52.2129 33.5C52.2129 24.6801 52.1998 24.2613 51.9643 23.8949C51.5586 23.293 51.0613 23.0312 50.25 23.0312C49.7658 23.0312 49.4125 23.1098 49.1508 23.2799Z" fill="black"/>
</g>
<defs>
<clipPath id="clip0_1715_14">
<rect width="67" height="67" fill="white"/>
</clipPath>
</defs>
</svg>
